<svg width="205" height="237" viewBox="0 0 205 237" fill="none" xmlns="http://www.w3.org/2000/svg">
<rect y="0.5" width="205" height="236" rx="8" fill="white"/>
<rect x="15" y="70" width="174" height="154" rx="9" fill="url(#paint0_linear_163_5357)"/>
<path d="M64.416 136H44.416V132.224C44.416 128.576 46.112 126.688 50.72 125.216L56.544 123.36C57.92 122.912 58.464 122.496 58.464 121.504C58.464 120.416 58.048 119.712 54.784 119.712C51.2 119.712 50.4 120.608 50.4 122.56V122.976H44.512V122.496C44.512 118.176 47.456 114.24 55.008 114.24C61.792 114.24 64.48 117.216 64.48 121.6C64.48 125.632 61.792 127.52 57.952 128.48L53.152 129.664C51.744 130.016 50.752 130.24 50.752 131.328L56.768 130.592H64.416V136ZM75.557 136H68.581C68.581 126.624 74.469 122.848 78.245 120.384V119.968H65.125V114.56H84.357V119.392C78.597 125.056 75.557 128.288 75.557 136ZM97.0715 136H92.8475C88.8155 136 86.4155 134.048 86.4155 129.856V124.8H84.0475V119.872H86.4155V117.088H92.4315V119.872H97.0715V124.8H92.4315V128.992C92.4315 130.272 92.8155 130.592 94.1915 130.592H97.0715V136ZM104.204 136H98.1875V114.56H104.204V124.768H104.524C105.036 122.048 106.828 119.552 110.956 119.552C115.244 119.552 117.292 122.272 117.292 125.856V136H111.276V127.872C111.276 125.632 110.412 124.928 107.66 124.928C104.876 124.928 104.204 125.6 104.204 127.68V136ZM50.432 163H43.68L52.928 141.56H61.536L70.816 163H63.904L62.272 159.032H52.096L50.432 163ZM55.616 150.616L54.368 153.624H60.064L58.816 150.616L57.408 147H56.992L55.616 150.616ZM77.764 163.32C73.252 163.32 71.14 160.696 71.14 157.208V146.872H77.156V155C77.156 157.24 78.02 157.944 80.772 157.944C83.556 157.944 84.228 157.272 84.228 155.192V146.872H90.244V163H84.612V158.104H84.292C83.94 160.792 82.148 163.32 77.764 163.32ZM98.8943 161.208C94.0943 161.208 91.4063 158.456 91.4063 153.848C91.4063 149.304 94.2863 146.552 99.0543 146.552C102.318 146.552 104.494 147.864 104.942 150.648H105.262V146.872H110.894V160.28C110.894 166.04 107.47 168.76 101.262 168.76C95.6303 168.76 92.3663 166.392 92.3663 162.168H98.3823C98.3823 163.48 98.5423 163.8 101.678 163.8C104.27 163.8 104.878 163.416 104.878 160.696V157.304H104.558C104.142 159.64 102.446 161.208 98.8943 161.208ZM97.4863 153.848C97.4863 155.448 98.2543 156.056 101.07 156.056C103.758 156.056 104.878 155.736 104.878 154.04V153.816C104.878 152.088 103.758 151.736 101.07 151.736C98.2543 151.736 97.4863 152.28 97.4863 153.848ZM114.996 168.312H112.788V164.6H114.804C115.572 164.6 115.924 164.376 115.924 163.448V163H112.5V156.856H120.308V163.416C120.308 166.712 118.356 168.312 114.996 168.312ZM56.064 196H50.048V181.28H44.32V177.216H45.12C47.456 177.216 49.28 176.736 50.464 174.56H56.064V196ZM68.1993 196.32C61.8633 196.32 58.0233 193.376 58.0233 188.96V188.672H64.7433V188.96C64.7433 190.432 65.7673 190.56 68.1993 190.56C71.2393 190.56 72.4873 190.08 72.4873 186.336V185.184H72.0713C71.1113 186.592 69.0953 187.808 65.4793 187.808C60.1673 187.808 57.2873 185.856 57.2873 181.376C57.2873 177.024 60.7113 174.24 67.3673 174.24C75.6553 174.24 78.9513 177.728 78.9513 185.12C78.9513 193.088 74.3113 196.32 68.1993 196.32ZM67.7193 183.712C71.5593 183.712 72.1353 183.232 72.1353 181.824C72.1353 180.576 71.4633 180.032 67.7193 180.032C64.2953 180.032 63.6233 180.576 63.6233 181.824C63.6233 183.232 64.2953 183.712 67.7193 183.712ZM90.848 196.32C84.512 196.32 80.672 193.376 80.672 188.96V188.672H87.392V188.96C87.392 190.432 88.416 190.56 90.848 190.56C93.888 190.56 95.136 190.08 95.136 186.336V185.184H94.72C93.76 186.592 91.744 187.808 88.128 187.808C82.816 187.808 79.936 185.856 79.936 181.376C79.936 177.024 83.36 174.24 90.016 174.24C98.304 174.24 101.6 177.728 101.6 185.12C101.6 193.088 96.96 196.32 90.848 196.32ZM90.368 183.712C94.208 183.712 94.784 183.232 94.784 181.824C94.784 180.576 94.112 180.032 90.368 180.032C86.944 180.032 86.272 180.576 86.272 181.824C86.272 183.232 86.944 183.712 90.368 183.712ZM114.073 196H108.057V181.28H102.329V177.216H103.129C105.465 177.216 107.289 176.736 108.473 174.56H114.073V196Z" fill="black"/>
<path d="M40.936 33.5H35.768V22.78H40.936C44.376 22.78 46.552 24.78 46.552 28.14C46.552 31.5 44.376 33.5 40.936 33.5ZM40.936 24.94H38.168V31.34H40.936C43.112 31.34 43.992 30.716 43.992 28.14C43.992 25.564 43.112 24.94 40.936 24.94ZM49.8971 33.66C48.1691 33.66 47.1291 32.86 47.1291 31.516C47.1291 30.332 48.0091 29.596 49.7211 29.42L53.1611 29.068V28.764C53.1611 27.724 52.6971 27.436 51.4171 27.436C50.2011 27.436 49.7051 27.756 49.7051 28.668V28.732H47.2891V28.684C47.2891 26.7 48.9531 25.324 51.5931 25.324C54.2651 25.324 55.5291 26.7 55.5291 28.796V33.5H53.2891V31.66H53.1611C52.7931 32.908 51.6731 33.66 49.8971 33.66ZM49.5451 31.356C49.5451 31.788 49.8811 31.964 50.5851 31.964C52.2171 31.964 53.0971 31.58 53.1611 30.444L50.3771 30.764C49.8011 30.812 49.5451 30.972 49.5451 31.356ZM62.2336 33.5H60.2496C58.3776 33.5 57.2416 32.62 57.2416 30.604V27.468H55.9776V25.484H57.2416V23.932H59.6416V25.484H62.2336V27.468H59.6416V30.332C59.6416 31.132 59.9456 31.34 60.7936 31.34H62.2336V33.5ZM67.2285 33.66C64.5565 33.66 62.7325 32.348 62.7325 29.5C62.7325 26.94 64.5405 25.324 67.1805 25.324C69.8045 25.324 71.5485 26.7 71.5485 29.212C71.5485 29.5 71.5165 29.708 71.4845 29.98H64.9565C65.0205 31.212 65.5965 31.74 67.1485 31.74C68.5725 31.74 69.0685 31.372 69.0685 30.684V30.524H71.4685V30.7C71.4685 32.444 69.7725 33.66 67.2285 33.66ZM67.1325 27.196C65.7085 27.196 65.1005 27.676 64.9885 28.716H69.2445C69.1805 27.66 68.5405 27.196 67.1325 27.196ZM41.128 47.66C37.592 47.66 35.4 45.484 35.4 42.14C35.4 38.796 37.592 36.62 41.128 36.62C44.456 36.62 46.6 38.284 46.6 41.004V41.244H43.928V41.004C43.928 39.596 43.128 38.924 41.176 38.924C38.824 38.924 37.944 39.756 37.944 42.14C37.944 44.524 38.824 45.356 41.176 45.356C43.128 45.356 43.928 44.684 43.928 43.276V43.036H46.6V43.276C46.6 45.996 44.472 47.66 41.128 47.66ZM49.88 47.5H47.48V39.484H49.704V41.612H49.848C50.072 40.316 50.92 39.324 52.536 39.324C54.328 39.324 55.064 40.556 55.064 42.124V43.452H52.664V42.62C52.664 41.74 52.312 41.356 51.336 41.356C50.264 41.356 49.88 41.852 49.88 42.86V47.5ZM60.0291 47.66C57.3571 47.66 55.5331 46.348 55.5331 43.5C55.5331 40.94 57.3411 39.324 59.9811 39.324C62.6051 39.324 64.3491 40.7 64.3491 43.212C64.3491 43.5 64.3171 43.708 64.2851 43.98H57.7571C57.8211 45.212 58.3971 45.74 59.9491 45.74C61.3731 45.74 61.8691 45.372 61.8691 44.684V44.524H64.2691V44.7C64.2691 46.444 62.5731 47.66 60.0291 47.66ZM59.9331 41.196C58.5091 41.196 57.9011 41.676 57.7891 42.716H62.0451C61.9811 41.66 61.3411 41.196 59.9331 41.196ZM67.6709 47.66C65.9429 47.66 64.9029 46.86 64.9029 45.516C64.9029 44.332 65.7829 43.596 67.4949 43.42L70.9349 43.068V42.764C70.9349 41.724 70.4709 41.436 69.1909 41.436C67.9749 41.436 67.4789 41.756 67.4789 42.668V42.732H65.0629V42.684C65.0629 40.7 66.7269 39.324 69.3669 39.324C72.0389 39.324 73.3029 40.7 73.3029 42.796V47.5H71.0629V45.66H70.9349C70.5669 46.908 69.4469 47.66 67.6709 47.66ZM67.3189 45.356C67.3189 45.788 67.6549 45.964 68.3589 45.964C69.9909 45.964 70.8709 45.58 70.9349 44.444L68.1509 44.764C67.5749 44.812 67.3189 44.972 67.3189 45.356ZM80.0074 47.5H78.0234C76.1514 47.5 75.0154 46.62 75.0154 44.604V41.468H73.7514V39.484H75.0154V37.932H77.4154V39.484H80.0074V41.468H77.4154V44.332C77.4154 45.132 77.7194 45.34 78.5674 45.34H80.0074V47.5ZM85.0023 47.66C82.3303 47.66 80.5063 46.348 80.5063 43.5C80.5063 40.94 82.3143 39.324 84.9543 39.324C87.5783 39.324 89.3223 40.7 89.3223 43.212C89.3223 43.5 89.2903 43.708 89.2583 43.98H82.7303C82.7943 45.212 83.3703 45.74 84.9223 45.74C86.3463 45.74 86.8423 45.372 86.8423 44.684V44.524H89.2423V44.7C89.2423 46.444 87.5463 47.66 85.0023 47.66ZM84.9063 41.196C83.4823 41.196 82.8743 41.676 82.7623 42.716H87.0183C86.9543 41.66 86.3143 41.196 84.9063 41.196ZM93.764 47.66C91.268 47.66 89.892 46.028 89.892 43.5C89.892 40.94 91.252 39.324 93.636 39.324C95.54 39.324 96.516 40.268 96.788 41.612H96.932V36.78H99.332V47.5H97.092V45.276H96.964C96.66 46.86 95.604 47.66 93.764 47.66ZM92.324 43.5C92.324 44.956 93.044 45.468 94.58 45.468C96.1 45.468 96.932 44.94 96.932 43.548V43.42C96.932 42.028 96.116 41.516 94.58 41.516C93.044 41.516 92.324 42.028 92.324 43.5Z" fill="#0CAD8E"/>
<rect x="165" y="23.5" width="24" height="24" rx="12" fill="#F1F1F1"/>
<path opacity="0.4" d="M177 40.1673C179.577 40.1673 181.667 38.078 181.667 35.5007C181.667 32.9233 179.577 30.834 177 30.834C174.423 30.834 172.333 32.9233 172.333 35.5007C172.333 38.078 174.423 40.1673 177 40.1673Z" fill="#0CAD8E"/>
<path d="M177 42.806C176.633 42.806 176.333 42.5327 176.333 42.166V42.1127C176.333 41.746 176.633 41.446 177 41.446C177.367 41.446 177.667 41.746 177.667 42.1127C177.667 42.4793 177.367 42.806 177 42.806ZM181.76 40.926C181.587 40.926 181.42 40.8593 181.287 40.7327L181.2 40.646C180.94 40.386 180.94 39.966 181.2 39.706C181.46 39.446 181.88 39.446 182.14 39.706L182.227 39.7927C182.487 40.0527 182.487 40.4727 182.227 40.7327C182.1 40.8593 181.933 40.926 181.76 40.926ZM172.24 40.926C172.067 40.926 171.9 40.8593 171.767 40.7327C171.507 40.4727 171.507 40.0527 171.767 39.7927L171.853 39.706C172.113 39.446 172.533 39.446 172.793 39.706C173.053 39.966 173.053 40.386 172.793 40.646L172.707 40.7327C172.58 40.8593 172.407 40.926 172.24 40.926ZM183.667 36.166H183.613C183.247 36.166 182.947 35.866 182.947 35.4993C182.947 35.1327 183.247 34.8327 183.613 34.8327C183.98 34.8327 184.307 35.1327 184.307 35.4993C184.307 35.866 184.033 36.166 183.667 36.166ZM170.387 36.166H170.333C169.967 36.166 169.667 35.866 169.667 35.4993C169.667 35.1327 169.967 34.8327 170.333 34.8327C170.7 34.8327 171.027 35.1327 171.027 35.4993C171.027 35.866 170.753 36.166 170.387 36.166ZM181.673 31.4927C181.5 31.4927 181.333 31.426 181.2 31.2993C180.94 31.0393 180.94 30.6193 181.2 30.3593L181.287 30.2727C181.547 30.0127 181.967 30.0127 182.227 30.2727C182.487 30.5327 182.487 30.9527 182.227 31.2127L182.14 31.2993C182.013 31.426 181.847 31.4927 181.673 31.4927ZM172.327 31.4927C172.153 31.4927 171.987 31.426 171.853 31.2993L171.767 31.206C171.507 30.946 171.507 30.526 171.767 30.266C172.027 30.006 172.447 30.006 172.707 30.266L172.793 30.3527C173.053 30.6127 173.053 31.0327 172.793 31.2927C172.667 31.426 172.493 31.4927 172.327 31.4927ZM177 29.526C176.633 29.526 176.333 29.2527 176.333 28.886V28.8327C176.333 28.466 176.633 28.166 177 28.166C177.367 28.166 177.667 28.466 177.667 28.8327C177.667 29.1993 177.367 29.526 177 29.526Z" fill="#0CAD8E"/>
<defs>
<linearGradient id="paint0_linear_163_5357" x1="19.0231" y1="41.6111" x2="204.125" y2="354.064" gradientUnits="userSpaceOnUse">
<stop offset="0.260417" stop-color="white"/>
<stop offset="0.71875" stop-color="#DFDFDF" stop-opacity="0"/>
<stop offset="1" stop-color="white"/>
</linearGradient>
</defs>
</svg>
