<svg width="133" height="125" viewBox="0 0 133 125" fill="none" xmlns="http://www.w3.org/2000/svg">
<g id="Group 3808">
<path id="Vector" d="M97.3811 63.1833C97.1196 56.6682 96.838 50.6678 96.5565 44.6675C96.401 42.485 96.2455 40.3025 95.7416 38.2379C94.7646 34.1997 91.626 31.8067 87.9769 31.923C84.3278 32.0392 81.2805 34.7965 80.8276 38.9117C80.4966 41.665 80.6629 44.4534 80.6241 47.2095C80.5466 59.3252 80.7305 71.3525 80.243 83.4037C79.8666 93.487 78.2601 103.377 77.9708 113.43C77.5302 126.482 77.6739 139.539 77.7867 152.504C77.8297 154.928 78.6928 157.481 79.6376 159.701C80.4336 161.769 82.3969 162.121 83.7437 160.649C85.5769 158.607 87.5789 156.203 88.3508 153.606C89.6693 148.893 90.4599 144.054 91.0146 139.092C92.83 121.207 94.4967 103.17 96.1071 85.2532C96.3309 83.0441 97.1603 82.0525 99.1692 81.6781C106.794 80.116 114.358 78.3716 121.952 76.7183C123.582 76.3706 125.242 76.114 126.748 75.4015C129.792 74.0678 131.855 71.8462 131.878 68.1812C131.87 64.425 129.982 61.7109 126.716 60.3768C124.568 59.4777 122.163 58.9698 119.883 58.8266C113.568 58.5233 107.429 59.8877 101.357 61.7374C100.051 62.1792 98.949 62.6532 97.3811 63.1833Z" fill="#0CAD8E"/>
<path id="Vector_2" d="M69.1293 74.3611C60.8542 77.1588 53.0455 79.9005 45.2622 82.4304C41.778 83.6084 38.1705 84.4217 34.6246 85.4173C33.2001 85.7974 32.3183 85.4859 31.7634 83.8449C28.1007 73.2985 24.2638 62.811 20.6573 52.144C19.7634 49.5001 19.3922 46.6794 18.5854 44.006C17.9635 41.8796 17.3671 39.5414 16.2534 37.6829C14.4161 34.5452 10.8018 33.329 7.66599 34.3892C4.58646 35.3287 2.47719 38.2769 2.51077 41.8213C2.54297 43.6391 2.86735 45.4597 3.45301 47.1919C9.12331 62.2407 14.8807 77.2601 20.7252 92.2501C22.7435 97.3585 26.6205 100.213 31.812 99.7784C36.2759 99.4883 40.729 98.5923 45.0588 97.3316C52.7041 95.2548 60.1952 92.7221 67.8042 90.2511C68.5011 90.0155 69.3614 89.1151 69.4378 88.4797C69.4752 83.997 69.2768 79.3908 69.1293 74.3611Z" fill="black"/>
<path id="Vector_3" d="M103.494 151.026C104.1 152.243 104.705 153.461 105.106 154.646C106.025 157.078 107.481 156.789 109.007 155.562C112.521 152.749 114.614 148.891 115.149 144.444C116.014 137.243 116.675 130.01 117.217 122.715C117.572 118.023 117.461 113.388 117.698 108.634C117.981 103.154 115.189 98.9168 110.673 97.9038C106.07 96.9204 101.387 99.7225 100.52 105.197C99.6844 110.762 99.4071 116.545 99.6833 122.243C100.146 130.214 101.398 138.223 102.326 146.138C102.707 147.837 103.144 149.417 103.494 151.026Z" fill="black"/>
<path id="Vector_4" d="M39.9811 61.3547C40.7517 63.634 41.5531 66.0044 42.3237 68.2837C43.3101 71.2011 44.5765 71.7889 47.1535 70.5113C49.7304 69.2336 52.3946 67.9266 54.8174 66.1931C59.2022 63.0851 63.4381 59.8243 67.4946 56.3194C72.1245 52.2143 71.7988 48.667 66.5938 45.0424C60.6195 40.8652 54.1133 37.9853 47.075 36.4028C44.5529 35.8332 41.9183 35.5048 39.3144 35.2676C35.7163 34.9603 34.2208 36.2786 34.7261 40.0699C35.4887 45.1965 36.7485 50.3581 37.8904 55.458C38.3943 57.5227 39.2467 59.4695 39.9811 61.3547C39.894 61.3841 39.894 61.3841 39.9811 61.3547Z" fill="#F1DDC4"/>
</g>
</svg>
