<svg width="76" height="93" viewBox="0 0 76 93" fill="none" xmlns="http://www.w3.org/2000/svg">
<path d="M20.7979 35.2553C19.5873 31.3181 18.4978 27.6839 17.4083 24.0496C17.0452 22.717 16.682 21.3845 16.5609 20.0519C16.3188 17.4473 17.7715 15.3879 20.0716 14.7216C22.3717 14.0553 24.8534 15.085 26.0034 17.4473C26.7903 19.0222 27.2745 20.7182 27.8798 22.3536C30.4825 29.5616 32.9037 36.7695 35.7485 43.8564C38.1091 49.7923 41.1961 55.3649 43.4962 61.3009C46.5226 68.9934 49.1859 76.8071 51.8491 84.5602C52.3334 86.0139 52.3334 87.7099 52.2123 89.2242C52.1518 90.6173 51.0017 91.223 49.8517 90.6173C48.2779 89.7693 46.5226 88.7396 45.4936 87.3465C43.6778 84.8025 42.1645 82.0768 40.7724 79.2299C35.8695 68.9328 31.0273 58.5146 26.2455 48.1569C25.6402 46.8849 24.9139 46.4609 23.5823 46.6426C18.4979 47.2483 13.4134 47.7329 8.32903 48.2781C7.23951 48.3992 6.14998 48.5809 5.06047 48.4598C2.88143 48.278 1.12611 47.3695 0.339238 45.1889C-0.447635 42.9478 0.157674 40.9489 1.913 39.4952C3.06305 38.5261 4.45521 37.7387 5.84737 37.1935C9.7212 35.7398 13.8371 35.3158 18.0136 35.1947C18.9215 35.1947 19.7084 35.2553 20.7979 35.2553Z" fill="#0CAD8E"/>
<path d="M40.7725 36.2235C46.5227 36.2235 51.9703 36.2841 57.3573 36.2235C59.7785 36.2235 62.1996 35.9813 64.6208 35.8601C65.5892 35.7996 66.0735 35.4361 66.0735 34.3458C66.134 27.3196 66.3156 20.2933 66.3156 13.2065C66.3156 11.4499 65.9524 9.69337 65.8919 7.93681C65.8313 6.54367 65.7103 5.02939 66.0129 3.69682C66.4971 1.45569 68.4946 0.00198142 70.6736 0.00198142C72.7921 -0.0585898 74.7291 1.27398 75.4554 3.39397C75.8186 4.48425 76.0001 5.6351 76.0001 6.78595C75.637 16.9013 75.2133 27.0167 74.7291 37.1321C74.5475 40.5847 72.7316 43.0681 69.4025 43.8555C66.5577 44.5824 63.5918 44.9458 60.6259 45.0669C55.4204 45.3698 50.2149 45.3698 44.949 45.4304C44.4647 45.4304 43.7384 45.0669 43.5568 44.7035C42.5883 42.0384 41.7409 39.2521 40.7725 36.2235Z" fill="black"/>
<path d="M35.5063 88.8598C35.3853 89.7078 35.2642 90.5558 35.2642 91.3433C35.2037 92.9787 34.2352 93.0998 33.0246 92.6758C30.2403 91.7067 28.1218 89.829 26.8507 87.285C24.7927 83.1662 22.8558 78.9868 20.9794 74.7468C19.7689 72.0211 18.8609 69.2348 17.7109 66.4485C16.3793 63.2382 17.2267 60.1491 19.8294 58.6348C22.4926 57.1206 26.0033 57.8474 27.6981 60.9365C29.3929 64.0862 30.7851 67.4782 31.814 70.9308C33.2062 75.7765 34.1142 80.8039 35.2037 85.7101C35.3247 86.8004 35.3853 87.8301 35.5063 88.8598Z" fill="black"/>
<path d="M56.2071 22.5953C56.2071 24.1096 56.2071 25.6845 56.2071 27.1988C56.2071 29.137 55.5413 29.7427 53.6649 29.5005C51.7886 29.2582 49.8516 29.0159 47.9752 28.4707C44.5856 27.5016 41.2566 26.4113 37.988 25.1393C34.2352 23.6251 33.6905 21.4445 36.1721 18.2342C39.017 14.5394 42.4671 11.5108 46.5225 9.14854C47.9752 8.30054 49.549 7.57369 51.1227 6.90741C53.3018 5.99884 54.5123 6.48341 54.9965 8.84569C55.6018 12.056 55.9045 15.3874 56.2677 18.6582C56.3887 19.9908 56.2676 21.3233 56.2071 22.5953C56.2676 22.5953 56.2676 22.5953 56.2071 22.5953Z" fill="#F1DDC4"/>
</svg>
