<svg width="24" height="24" viewBox="0 0 24 24" fill="none" xmlns="http://www.w3.org/2000/svg">
<path d="M9.4 19.55C9.1 19 8.83734 18.429 8.612 17.837C8.38667 17.245 8.19934 16.6327 8.05 16H5.1C5.58333 16.8333 6.18767 17.5583 6.913 18.175C7.63833 18.7917 8.46733 19.25 9.4 19.55ZM4.25 14H7.65C7.6 13.6667 7.56234 13.3373 7.537 13.012C7.51167 12.6867 7.49933 12.3493 7.5 12C7.5 11.65 7.51267 11.3127 7.538 10.988C7.56333 10.6633 7.60067 10.334 7.65 10H4.25C4.16667 10.3333 4.104 10.6627 4.062 10.988C4.02 11.3133 3.99933 11.6507 4 12C4 12.35 4.021 12.6873 4.063 13.012C4.105 13.3367 4.16733 13.666 4.25 14ZM5.1 8H8.05C8.2 7.36667 8.38767 6.754 8.613 6.162C8.83833 5.57 9.10067 4.99933 9.4 4.45C8.46667 4.75 7.63733 5.20833 6.912 5.825C6.18667 6.44167 5.58267 7.16667 5.1 8ZM10.1 8H13.9C13.7 7.26667 13.4417 6.575 13.125 5.925C12.8083 5.275 12.4333 4.65 12 4.05C11.5667 4.65 11.1917 5.275 10.875 5.925C10.5583 6.575 10.3 7.26667 10.1 8ZM15.95 8H18.9C18.4167 7.16667 17.8123 6.44167 17.087 5.825C16.3617 5.20833 15.5327 4.75 14.6 4.45C14.9 5 15.1627 5.571 15.388 6.163C15.6133 6.755 15.8007 7.36733 15.95 8ZM12 22C10.6333 22 9.34167 21.7373 8.125 21.212C6.90833 20.6867 5.84567 19.97 4.937 19.062C4.029 18.154 3.31233 17.0917 2.787 15.875C2.26167 14.6583 1.99933 13.3667 2 12C2 10.6167 2.26267 9.32067 2.788 8.112C3.31333 6.90333 4.03 5.84533 4.938 4.938C5.846 4.02933 6.908 3.31267 8.124 2.788C9.34 2.26333 10.632 2.00067 12 2C13.3833 2 14.6793 2.26267 15.888 2.788C17.0967 3.31333 18.1547 4.03 19.062 4.938C19.9707 5.846 20.6873 6.90433 21.212 8.113C21.7367 9.32167 21.9993 10.6173 22 12C22 12.1667 21.9957 12.3333 21.987 12.5C21.9783 12.6667 21.966 12.8333 21.95 13H19.925C19.9583 12.8333 19.9793 12.6707 19.988 12.512C19.9967 12.3533 20.0007 12.1827 20 12C20 11.65 19.979 11.3127 19.937 10.988C19.895 10.6633 19.8327 10.334 19.75 10H16.35C16.4 10.3333 16.4377 10.6627 16.463 10.988C16.4883 11.3133 16.5007 11.6507 16.5 12V12.513C16.5 12.671 16.4917 12.8333 16.475 13H14.475C14.4917 12.8333 14.5 12.6707 14.5 12.512V12C14.5 11.65 14.4873 11.3127 14.462 10.988C14.4367 10.6633 14.3993 10.334 14.35 10H9.65C9.6 10.3333 9.56233 10.6627 9.537 10.988C9.51167 11.3133 9.49933 11.6507 9.5 12C9.5 12.35 9.51267 12.6873 9.538 13.012C9.56333 13.3367 9.60067 13.666 9.65 14H13V16H10.1C10.3 16.7333 10.5583 17.425 10.875 18.075C11.1917 18.725 11.5667 19.35 12 19.95C12.1833 19.6833 12.3583 19.4123 12.525 19.137C12.6917 18.8617 12.85 18.5827 13 18.3V21.95C12.8333 21.9667 12.671 21.9793 12.513 21.988C12.355 21.9967 12.184 22.0007 12 22ZM17 18.425V19.65C17 19.9333 16.904 20.171 16.712 20.363C16.52 20.555 16.2827 20.6507 16 20.65C15.7167 20.65 15.479 20.5543 15.287 20.363C15.095 20.1717 14.9993 19.934 15 19.65V16C15 15.7167 15.096 15.479 15.288 15.287C15.48 15.095 15.7173 14.9993 16 15H19.65C19.9333 15 20.171 15.096 20.363 15.288C20.555 15.48 20.6507 15.7173 20.65 16C20.65 16.2833 20.5543 16.521 20.363 16.713C20.1717 16.905 19.934 17.0007 19.65 17H18.4L20.65 19.25C20.8333 19.4333 20.925 19.6627 20.925 19.938C20.925 20.2133 20.8333 20.4507 20.65 20.65C20.45 20.85 20.2127 20.95 19.938 20.95C19.6633 20.95 19.4257 20.85 19.225 20.65L17 18.425Z" fill="black"/>
</svg>
