<svg width="116" height="95" viewBox="0 0 116 95" fill="none" xmlns="http://www.w3.org/2000/svg">
<path d="M183.172 16.4955C188.005 28.7612 177.639 68.7124 167.623 76.6325C167.413 76.212 167.132 75.7914 166.922 75.3709C164.471 70.4646 161.249 66.1891 157.047 62.6146C156.276 61.9838 155.436 61.353 154.525 60.9324C150.253 59.1101 145.77 61.9837 145.91 66.6097C145.98 68.3619 146.541 70.2543 147.311 71.8664C149.832 76.9129 152.494 81.9593 155.296 86.8656C162.3 99.2014 168.323 111.958 173.646 125.065C173.926 125.836 174.207 126.536 174.627 127.728C173.506 127.307 172.806 127.097 172.105 126.817C152.774 119.317 133.443 111.748 114.042 104.388C102.065 99.8322 89.6676 96.6081 76.9903 94.6456C76.6401 94.5755 76.2899 94.4353 75.7295 94.3652C76.0097 93.8746 76.1498 93.3139 76.43 93.0335C79.3717 89.8795 82.1032 86.5152 85.2551 83.5714C87.7765 81.1883 90.9284 79.4361 93.6599 77.2633C95.1308 76.0718 96.5316 74.7401 97.5822 73.1981C99.4033 70.6048 99.1231 67.3106 97.3721 64.9976C95.551 62.6146 92.5393 61.7034 89.4575 62.6146C88.4069 62.965 87.3563 63.4556 86.3057 64.0164C80.0721 67.4508 74.6789 72.0066 69.9162 77.2633C64.8733 82.7303 59.8304 88.1973 54.8575 93.7344C53.5267 95.2063 52.4761 96.8184 51.2854 98.4304C50.9352 98.9211 50.7951 99.4818 50.5149 100.183C54.4372 100.743 58.0793 101.024 61.6514 101.865C69.2158 103.617 76.7802 105.299 84.2045 107.682C103.466 113.92 122.377 121.14 140.937 129.27C149.482 132.985 158.237 136.139 166.782 139.643C171.265 141.466 175.607 143.638 180.02 145.601C180.72 145.951 181.421 146.302 182.121 146.512C185.273 147.633 188.285 147.493 190.806 145.04C193.328 142.587 193.538 139.573 192.347 136.349C190.456 131.232 188.705 125.976 186.534 120.999C181.771 110.135 176.728 99.4818 171.895 88.688C171.615 88.0571 171.545 86.9357 171.895 86.5853C179.95 78.9455 184.643 69.3432 188.425 59.1802C192.207 49.0872 194.588 38.714 195.289 27.9902C195.709 21.542 195.009 15.2339 192.417 9.27623C191.296 6.68291 189.616 4.22977 187.724 2.19716C185.273 -0.466249 181.491 -0.746604 178.689 1.56636C158.377 18.3178 134.283 22.4531 109.069 22.1027C78.8113 21.6821 49.3943 16.2151 20.5376 7.24364C16.4052 5.98202 12.2027 4.86057 8.00031 3.87931C6.45941 3.52886 4.7084 3.45879 3.09747 3.73915C0.015686 4.29986 -0.964874 6.96327 1.0663 9.27623C2.39706 10.8182 4.21812 12.0798 6.03918 13.0611C13.6736 17.1964 21.8684 20 30.3433 22.1027C54.2271 28.0603 78.251 32.8264 102.905 34.088C122.166 35.0693 141.217 33.9478 159.568 27.3594C167.763 24.6259 175.677 21.1915 183.172 16.4955Z" fill="black"/>
<path d="M57.0285 43.0586C55.4876 43.8296 53.7366 44.3903 52.3358 45.3715C50.935 46.4229 49.6743 47.7546 48.6237 49.1564C44.1411 55.114 39.7285 61.0717 35.386 67.0994C33.705 69.4123 32.5844 72.0757 32.5143 75.0896C32.4443 77.5428 33.1447 78.1736 35.5261 77.9633C38.7479 77.6128 41.4795 76.0709 43.7208 73.828C47.2929 70.4637 50.7949 67.0293 54.0868 63.4547C56.6783 60.6511 59.1998 57.7774 61.5111 54.7636C62.4917 53.4319 63.2621 51.6095 63.4723 49.9274C63.8225 46.3528 60.8107 43.4791 57.0285 43.0586Z" fill="#F1DDC4"/>
<path d="M18.5066 107.472C18.5767 109.504 18.5067 111.257 18.7868 112.939C19.3471 116.584 21.9386 118.196 25.4407 117.074C27.8921 116.303 30.3435 115.252 32.865 114.551C35.5265 113.85 38.3281 113.429 40.9897 112.869C41.2698 112.799 41.62 112.869 41.9702 112.799C43.9314 112.588 45.5423 111.747 46.1727 109.785C46.803 107.962 46.1727 106.07 44.3516 104.738C41.62 102.776 38.7484 100.954 36.0168 98.991C34.1257 97.5892 32.3046 96.1173 30.5536 94.5754C28.3824 92.6128 25.0204 92.5427 22.569 94.6454C20.6779 96.3276 19.6273 98.5004 19.2771 100.954C18.8568 103.266 18.7168 105.509 18.5066 107.472Z" fill="#F1DDC4"/>
<path d="M26.3516 65.278C25.7912 61.7735 25.3009 58.269 24.5305 54.7645C23.9702 51.9609 21.7289 50.5592 19.2074 50.9797C16.686 51.4002 15.075 53.7132 15.4953 56.5168C16.2657 62.124 17.0362 67.7311 17.8766 73.2682C18.2269 75.6513 19.4876 76.983 21.2386 77.0531C22.9196 77.1232 24.3204 76.0017 24.8107 73.6888C25.5111 71.0955 25.8613 68.2218 26.3516 65.278Z" fill="#DA4E41"/>
</svg>
