<svg width="47" height="44" viewBox="0 0 47 44" fill="none" xmlns="http://www.w3.org/2000/svg">
<g clip-path="url(#clip0_131_7327)">
<rect x="0.981689" y="0.685547" width="46.0183" height="42.4784" rx="21.2392" fill="#F1DDC4"/>
<path d="M18.0583 26.0176C17.7109 26.3615 17.7082 26.9218 18.052 27.2691C18.3959 27.6164 18.9562 27.6192 19.3036 27.2754L18.0583 26.0176ZM29.6959 16.6212C29.6984 16.1325 29.3041 15.7343 28.8154 15.7319L20.8508 15.6922C20.362 15.6898 19.9638 16.084 19.9614 16.5727C19.959 17.0615 20.3532 17.4597 20.842 17.4621L27.9216 17.4974L27.8864 24.577C27.8839 25.0658 28.2782 25.4639 28.7669 25.4664C29.2557 25.4688 29.6538 25.0746 29.6563 24.5858L29.6959 16.6212ZM19.3036 27.2754L29.4336 17.2457L28.1883 15.9879L18.0583 26.0176L19.3036 27.2754Z" fill="#0CAD8E"/>
</g>
<defs>
<clipPath id="clip0_131_7327">
<rect x="0.981689" y="0.685547" width="46.0183" height="42.4784" rx="21.2392" fill="white"/>
</clipPath>
</defs>
</svg>
