<svg width="35" height="35" viewBox="0 0 35 35" fill="none" xmlns="http://www.w3.org/2000/svg">
<g id="Icon/Arrow/login">
<rect width="34.0242" height="34.0242" rx="6.4808" transform="matrix(1.19249e-08 -1 -1 -1.19249e-08 34.3628 34.3359)" fill="#64CAB7"/>
<g id="vuesax/bulk/login">
<g id="login">
<path id="Vector" opacity="0.4" d="M27.4785 16.0681C27.4785 15.5821 27.0937 15.1973 26.6077 15.1973L8.08676 15.1973C7.61082 15.1973 7.2159 15.5821 7.2159 16.0681C7.2159 22.0325 11.3778 26.1944 17.3421 26.1944C23.3065 26.1944 27.4785 22.0224 27.4785 16.0681Z" fill="#F1DDC4"/>
<path id="Vector_2" d="M17.8181 21.273L20.7041 18.3971C20.9977 18.1034 20.9977 17.6174 20.7041 17.3237C20.4104 17.0301 19.9243 17.0301 19.6307 17.3237L18.051 18.9034L18.051 9.21259C18.051 8.79742 17.7067 8.45312 17.2915 8.45312C16.8763 8.45312 16.5321 8.79742 16.5321 9.21259L16.5321 18.9034L14.9422 17.3237C14.6486 17.0301 14.1625 17.0301 13.8689 17.3237C13.717 17.4756 13.6461 17.668 13.6461 17.8604C13.6461 18.0528 13.717 18.2452 13.8689 18.3971L16.7548 21.273C17.0485 21.5767 17.5244 21.5767 17.8181 21.273Z" fill="#F1DDC4"/>
</g>
</g>
</g>
</svg>
