<svg width="10" height="9" viewBox="0 0 10 9" fill="none" xmlns="http://www.w3.org/2000/svg">
<g clip-path="url(#clip0_452_22640)">
<path d="M3.44047 5.33467C3.33759 5.33467 3.2513 5.29981 3.18158 5.23009C3.11211 5.16062 3.07738 5.07445 3.07738 4.97157C3.07738 4.8687 3.11211 4.7824 3.18158 4.71269C3.2513 4.64321 3.33759 4.60848 3.44047 4.60848C3.54335 4.60848 3.62964 4.64321 3.69936 4.71269C3.76883 4.7824 3.80356 4.8687 3.80356 4.97157C3.80356 5.07445 3.76883 5.16062 3.69936 5.23009C3.62964 5.29981 3.54335 5.33467 3.44047 5.33467ZM4.89285 5.33467C4.78997 5.33467 4.70379 5.29981 4.63432 5.23009C4.56461 5.16062 4.52975 5.07445 4.52975 4.97157C4.52975 4.8687 4.56461 4.7824 4.63432 4.71269C4.70379 4.64321 4.78997 4.60848 4.89285 4.60848C4.99572 4.60848 5.08202 4.64321 5.15173 4.71269C5.2212 4.7824 5.25594 4.8687 5.25594 4.97157C5.25594 5.07445 5.2212 5.16062 5.15173 5.23009C5.08202 5.29981 4.99572 5.33467 4.89285 5.33467ZM6.34522 5.33467C6.24234 5.33467 6.15617 5.29981 6.0867 5.23009C6.01698 5.16062 5.98213 5.07445 5.98213 4.97157C5.98213 4.8687 6.01698 4.7824 6.0867 4.71269C6.15617 4.64321 6.24234 4.60848 6.34522 4.60848C6.4481 4.60848 6.53427 4.64321 6.60374 4.71269C6.67346 4.7824 6.70832 4.8687 6.70832 4.97157C6.70832 5.07445 6.67346 5.16062 6.60374 5.23009C6.53427 5.29981 6.4481 5.33467 6.34522 5.33467ZM2.35119 8.23942C2.15149 8.23942 1.98047 8.16837 1.83814 8.02628C1.69605 7.88395 1.625 7.71293 1.625 7.51323V2.42991C1.625 2.23021 1.69605 2.05932 1.83814 1.91723C1.98047 1.77489 2.15149 1.70373 2.35119 1.70373H2.71428V1.33156C2.71428 1.22868 2.74902 1.14396 2.81849 1.07739C2.8882 1.01082 2.9745 0.977539 3.07738 0.977539C3.18025 0.977539 3.26655 1.01228 3.33626 1.08175C3.40573 1.15146 3.44047 1.23776 3.44047 1.34063V1.70373H6.34522V1.33156C6.34522 1.22868 6.38008 1.14396 6.44979 1.07739C6.51926 1.01082 6.60544 0.977539 6.70832 0.977539C6.81119 0.977539 6.89737 1.01228 6.96684 1.08175C7.03655 1.15146 7.07141 1.23776 7.07141 1.34063V1.70373H7.4345C7.6342 1.70373 7.80522 1.77489 7.94756 1.91723C8.08965 2.05932 8.16069 2.23021 8.16069 2.42991V7.51323C8.16069 7.71293 8.08965 7.88395 7.94756 8.02628C7.80522 8.16837 7.6342 8.23942 7.4345 8.23942H2.35119ZM2.35119 7.51323H7.4345V3.88229H2.35119V7.51323ZM2.35119 3.1561H7.4345V2.42991H2.35119V3.1561ZM2.35119 3.1561V2.42991V3.1561Z" fill="#7D7D7D"/>
</g>
<defs>
<clipPath id="clip0_452_22640">
<rect width="8.71425" height="8.71425" fill="white" transform="translate(0.537109 0.250977)"/>
</clipPath>
</defs>
</svg>
