<svg width="10" height="10" viewBox="0 0 10 10" fill="none" xmlns="http://www.w3.org/2000/svg">
<g clip-path="url(#clip0_452_22644)">
<path d="M8.11913 4.21592C8.29872 4.45082 8.29872 4.76795 8.11913 5.00247C7.55346 5.74091 6.19631 7.26136 4.61183 7.26136C3.02735 7.26136 1.6702 5.74091 1.10453 5.00247C1.01716 4.89 0.969727 4.75162 0.969727 4.6092C0.969727 4.46677 1.01716 4.3284 1.10453 4.21592C1.6702 3.47748 3.02735 1.95703 4.61183 1.95703C6.19631 1.95703 7.55346 3.47748 8.11913 4.21592V4.21592Z" stroke="#696969" stroke-width="0.757761" stroke-linecap="round" stroke-linejoin="round"/>
<path d="M4.61125 5.74496C5.239 5.74496 5.74789 5.23607 5.74789 4.60832C5.74789 3.98057 5.239 3.47168 4.61125 3.47168C3.9835 3.47168 3.47461 3.98057 3.47461 4.60832C3.47461 5.23607 3.9835 5.74496 4.61125 5.74496Z" stroke="#696969" stroke-width="0.757761" stroke-linecap="round" stroke-linejoin="round"/>
</g>
<defs>
<clipPath id="clip0_452_22644">
<rect width="9.09313" height="9.09313" fill="white" transform="translate(0.0644531 0.0615234)"/>
</clipPath>
</defs>
</svg>
