<svg width="380" height="540" viewBox="0 0 380 540" fill="none" xmlns="http://www.w3.org/2000/svg">
<g clip-path="url(#clip0_131_8346)">
<path d="M145.216 -17.6952C145.216 -19.773 145.232 -21.4512 145.216 -23.1454C145.104 -30.8332 144.641 -38.537 144.929 -46.2247C145.216 -54.0244 150.198 -59.5225 157.049 -60.6893C163.82 -61.8401 170.67 -58.2439 173.273 -51.0516C175.173 -45.8092 176.211 -40.1193 176.802 -34.5412C179.245 -11.334 176.546 11.5535 171.516 34.2013C170.622 38.229 168.786 42.1767 166.726 45.8049C164.203 50.2641 160.115 52.8374 154.749 52.0702C149.432 51.303 145.583 47.7867 144.993 42.8C144.035 34.5209 143.811 26.0659 144.338 17.7389C144.641 13.0079 143.667 10.8183 139.18 9.14005C120.018 1.97971 100.361 -1.90414 79.9051 -0.19397C49.6928 2.33133 25.9157 16.4603 8.74958 41.3456C-6.54822 63.5139 0.988907 90.2054 25.5484 101.745C38.5787 107.866 52.5511 109.689 66.7471 109.049C110.517 107.067 150.039 92.7627 184.595 65.9433C207.046 48.522 225.25 27.3286 233.825 -0.561539C239.51 -19.0538 242.48 -38.0095 238.839 -57.2849C234.576 -79.9647 223.302 -98.2971 203.757 -111.195C176.786 -129 147.755 -135.17 116.186 -126.97C106.94 -124.557 97.7579 -121.792 88.6878 -118.755C85.7177 -117.764 83.3383 -115.143 80.448 -113.769C78.5159 -112.857 75.9928 -112.17 74.0287 -112.618C68.9667 -113.769 65.9806 -119.522 67.6254 -124.685C68.3919 -127.114 69.7332 -129.528 71.3939 -131.446C73.5497 -133.939 76.0088 -136.432 78.8352 -138.047C115.259 -158.872 152.961 -167.679 193.553 -150.226C225.314 -136.56 249.618 -115.638 261.946 -82.3781C270.92 -58.164 269.738 -33.7581 264.629 -9.01653C256.676 29.4224 234.751 59.0387 205.385 83.3647C165.321 116.545 118.629 134.286 66.9866 138.969C50.4752 140.472 34.1395 138.761 18.6979 132.336C-8.6401 120.973 -24.4808 100.291 -28.8402 71.1058C-30.7884 58.0798 -27.419 45.7249 -21.6384 34.0255C0.302258 -10.2952 47.7925 -36.0756 96.8317 -30.3537C112.625 -28.5157 128.034 -25.2551 142.549 -18.4944C143.204 -18.1747 143.923 -18.0628 145.216 -17.6952Z" fill="#29A631" fill-opacity="0.02"/>
<path d="M306.933 51.4141C311.117 48.8728 315.588 46.7151 319.404 43.7103C326.925 37.7807 334.095 31.4355 341.361 25.1862C351.086 16.8271 361.274 9.1713 373.426 4.61617C379.749 2.23471 386.121 1.46754 392.428 4.63217C399.646 8.26028 403.079 14.6215 404.756 22.1494C407.119 32.6981 405.251 43.071 402.488 53.1402C397.075 72.8632 390.847 92.3623 385.242 112.037C379.781 131.217 376.204 150.796 374.943 170.695C374.511 177.567 374.975 184.648 376.156 191.44C377.673 200.215 382.927 206.368 391.853 208.846C393.115 209.197 394.264 209.917 395.398 211.067C391.023 213.896 386.376 214.839 381.506 214.024C372.483 212.538 366.336 207.056 362.312 199.144C356.547 187.796 354.2 175.553 354.136 162.927C354.04 139.752 358.575 117.328 365.873 95.4311C370.328 82.0853 375.374 68.9154 379.669 55.5217C381.921 48.5052 383.182 41.185 384.843 33.9767C385.099 32.858 385.115 31.6593 385.115 30.5085C385.067 23.3322 383.454 21.9896 377.418 25.6497C368.651 30.972 360.236 36.9336 351.932 42.9591C343.836 48.8409 336.395 55.6336 328.059 61.1158C322.71 64.632 316.482 67.2372 310.286 68.9154C300.482 71.5686 292.881 66.8217 289.639 57.12C286.637 48.1376 287.483 39.0433 289.383 30.013C293.2 11.7925 301.743 -4.35027 312.027 -19.582C320.219 -31.729 329.512 -43.1407 337.528 -55.3996C349.169 -73.1726 351.756 -93.0874 349.138 -113.833C348.499 -118.868 346.503 -122.895 341.521 -125.629C335.389 -128.985 333.393 -135.042 335.5 -140.381C337.64 -145.831 343.405 -148.436 350.431 -147.11C351.15 -146.982 351.868 -146.854 352.555 -146.614C394.169 -131.974 430.353 -110.253 452.198 -69.9281C459.352 -56.7103 464.51 -42.7092 468.294 -28.1807C468.55 -27.2218 468.869 -26.2788 469.62 -23.7854C470.69 -25.5595 471.169 -26.5824 471.855 -27.4296C489.325 -48.6069 510.116 -65.4049 535.633 -75.9856C575.555 -92.5439 615.46 -109.134 655.381 -125.677C669.385 -131.478 683.198 -137.584 693.721 -149.012C696.947 -152.512 699.933 -156.332 702.392 -160.391C705.458 -165.458 704.468 -169.47 699.055 -171.851C694.392 -173.913 689.107 -175.543 684.092 -175.559C670.551 -175.591 657.217 -173.865 644.842 -167.52C643.085 -166.609 639.764 -166.353 638.55 -167.408C637.257 -168.527 636.65 -171.979 637.417 -173.641C638.726 -176.518 640.834 -179.827 643.485 -181.153C661.497 -190.072 680.292 -194.355 700.221 -188.298C703.35 -187.339 706.384 -185.66 709.083 -183.774C719.271 -176.662 722.688 -165.586 716.556 -154.797C712.117 -146.982 706.097 -139.853 699.821 -133.332C690.767 -123.902 679.334 -117.621 667.405 -112.507C635.947 -99.017 604.362 -85.8311 572.872 -72.4055C560.337 -67.0512 547.738 -61.7928 535.522 -55.7353C509.525 -42.8531 488.894 -23.9293 474.251 1.2278C471.967 5.15959 470.849 9.79462 469.236 14.11C468.183 16.955 467.56 20.0237 466.107 22.6289C463.648 27.0561 458.905 28.9581 454.242 27.9512C449.579 26.9603 445.97 23.3002 445.507 18.2975C445.22 15.1649 445.507 11.9044 446.018 8.78769C447.807 -2.01677 447.088 -12.5335 443.719 -23.0183C434.984 -50.2851 420.852 -74.0997 399.103 -92.9755C393.69 -97.6744 387.622 -101.606 381.697 -106.002C373.17 -74.8988 354.806 -50.3651 336.938 -25.5756C323.796 -7.33907 312.011 11.6007 306.885 33.8329C305.639 39.2032 305.576 44.8451 304.985 50.3592C305.639 50.7748 306.294 51.0945 306.933 51.4141Z" fill="#29A631" fill-opacity="0.02"/>
<path d="M296.869 398.515C308.222 394.392 319.64 391.131 329.093 383.971C332.303 381.541 334.73 377.306 336.119 373.39C338.626 366.294 337.988 358.846 336.279 351.749C334.267 351.493 332.463 351.557 330.914 350.998C327.081 349.608 324.43 346.906 324.383 342.655C324.335 338.547 326.89 336.006 330.546 334.536C338.291 331.419 346.595 335.079 350.491 343.71C355.074 353.843 355.361 364.52 353.541 375.308C351.433 387.839 344.886 397.764 333.66 403.422C320.885 409.863 307.695 415.633 294.266 420.54C274.385 427.812 253.914 433.454 234.129 440.95C219.533 446.48 205.385 453.369 191.493 460.529C178.798 467.066 168.594 476.863 160.913 488.995C151.061 504.546 155.963 515.43 174.135 518.595C182.662 520.081 190.439 518.531 196.235 511.642C197.433 510.22 197.928 507.359 197.433 505.505C195.82 499.415 196.571 495.196 200.515 492.639C204.427 490.097 209.984 490.785 214.232 494.349C220.827 499.895 222.28 508.797 217.218 516.789C206.567 533.603 191.253 541.818 171.277 539.708C165.033 539.053 158.646 537.311 152.929 534.722C134.837 526.522 127.172 506.767 134.645 488.387C141.48 471.557 153.743 459.026 168.131 448.574C187.932 434.189 210.096 424.487 233.362 417.279C247.351 412.948 261.435 408.936 275.471 404.765C277.1 404.285 278.713 403.726 280.262 403.214C273.507 385.361 274.721 366.597 271.447 347.913C269.02 349.288 267.008 350.327 265.092 351.51C258.688 355.489 252.476 359.805 245.897 363.465C233.314 370.481 219.917 372.239 205.928 368.563C186.175 363.353 179.66 346.139 191.046 329.133C197.816 319.016 207.19 311.728 217.505 305.591C234.161 295.681 252.46 290.071 271.176 285.772C292.845 280.785 314.754 277.349 336.982 276.246C353.429 275.431 369.733 276.709 385.845 280.226C387.091 280.497 388.336 280.689 390.045 280.993C390.38 273.033 390.652 265.394 391.051 257.754C391.274 253.263 391.37 248.739 392.121 244.328C393.287 237.583 398.317 233.396 404.353 233.476C410.501 233.572 415.403 238.207 416.489 245.047C416.792 246.901 417.096 248.803 417.048 250.673C416.377 279.97 415.818 309.283 414.716 338.563C414.557 342.735 412.225 347.162 409.894 350.838C407.53 354.578 403.347 356.113 398.796 355.122C394.213 354.131 391.466 351.014 390.444 346.587C389.726 343.502 389.358 340.274 389.31 337.109C389.199 326.512 389.167 315.916 389.438 305.319C389.534 301.771 388.48 300.716 384.951 300.348C353.621 297.008 322.929 301.051 292.701 308.899C277.435 312.863 262.409 317.913 247.59 323.3C236.236 327.423 226.081 334.04 216.851 341.968C215.35 343.262 213.529 344.173 212.236 345.756C219.454 349.56 226.033 349.64 232.324 346.827C237.849 344.349 243.007 341.041 248.341 338.116C254.824 334.584 261.068 330.476 267.87 327.695C278.856 323.188 287.16 327.487 289.236 339.203C291.28 350.742 291.855 362.538 293.116 374.205C293.835 380.822 294.585 387.455 295.432 394.056C295.591 395.447 296.278 396.757 296.869 398.515Z" fill="#29A631" fill-opacity="0.02"/>
<path d="M-184.98 737.466C-180.046 723.241 -172.317 711.11 -163.678 699.363C-149.61 680.247 -130.272 669.682 -107.9 664.024C-103.7 662.97 -98.9737 663.401 -94.5824 663.897C-92.1392 664.184 -89.8717 666.022 -86.2947 667.78C-92.1552 671.345 -96.4986 674.477 -101.241 676.779C-118.87 685.346 -132.763 697.924 -144.596 713.54C-154.464 726.55 -164.524 739.192 -169.411 755.111C-170.624 759.075 -173.706 760.082 -177.89 760.274C-190.553 760.833 -197.851 753.417 -204.254 744.035C-218.258 723.481 -221.628 701.121 -216.103 677.098C-210.625 653.284 -198.505 633.018 -182.696 614.813C-166.856 596.561 -148.955 580.418 -130.224 565.266C-101.577 542.091 -72.5778 519.363 -43.8345 496.3C-19.818 477.04 1.56384 455.288 18.2509 429.204C21.3009 424.441 24.1433 419.71 23.5684 413.492C23.4087 411.702 25.6443 408.65 27.4328 408.01C29.4608 407.291 33.405 407.803 34.4429 409.257C36.8382 412.629 39.3133 416.897 39.3453 420.813C39.3932 426.902 38.3552 433.343 36.1835 439.033C28.5985 458.884 17.5163 476.449 2.20258 491.585C-20.7761 514.281 -46.3576 533.86 -71.0608 554.494C-92.4266 572.363 -114.176 589.768 -135.27 607.956C-151.973 622.357 -165.738 639.411 -176.66 658.654C-188.413 679.368 -192.278 701.536 -188.637 725.031C-188.222 727.748 -187.423 730.401 -186.689 733.055C-186.226 734.557 -185.539 735.995 -184.98 737.466Z" fill="white" fill-opacity="0.05"/>
<path d="M326.267 581.009C326.267 583.23 326.251 584.924 326.267 586.619C326.778 623.523 326.091 660.38 322.53 697.14C321.939 703.198 321.348 709.351 319.752 715.169C318.602 719.357 316.446 723.688 313.588 726.917C307.632 733.597 297.524 731.68 294.601 723.225C293.052 718.749 292.573 713.427 293.26 708.744C301.356 653.971 302.969 598.877 302.25 543.641C302.202 540.156 301.643 536.688 301.627 533.22C301.58 526.203 305.827 521.025 312.007 520.194C317.995 519.394 323.424 523.103 325.197 529.751C326.618 535.074 327.177 540.62 328.662 545.91C329.94 550.481 331.728 554.972 333.772 559.256C335.672 563.252 339.297 564.594 343.64 563.875C351.305 562.596 356.144 558.153 358.156 550.673C360.886 540.556 359.178 530.487 357.709 520.433C356.878 514.696 355.617 508.958 355.473 503.188C355.186 490.513 362.292 482.73 374.939 482.378C407.259 481.451 438.605 475.473 469.169 465.148C480.283 461.393 490.582 456.214 498.902 447.679C511.677 434.605 511.421 419.581 497.704 407.434C481.704 393.257 463.276 390.54 443.22 397.077C441.895 397.509 440.665 398.292 438.94 399.139C439.946 400.817 440.793 402.112 441.511 403.471C443.875 407.962 442.517 410.583 437.455 411.446C424.968 413.588 414.972 401.121 419.427 388.926C421.359 383.652 424.968 379.656 429.759 376.955C471.149 353.668 516.244 380.551 525.122 412.629C528.971 426.518 526.799 439.416 518.24 451.052C509.473 462.975 497.704 471.062 484.179 476.592C459.38 486.725 433.623 493.55 407.275 498.265C398.428 499.847 389.566 501.446 380.687 502.82C377.462 503.316 376.28 504.706 376.52 507.999C377.126 516.102 377.957 524.237 377.797 532.341C377.653 539.837 377.206 547.508 375.402 554.733C369.701 577.828 345.078 587.769 326.267 581.009Z" fill="#29A631" fill-opacity="0.02"/>
<path d="M200.116 171.269C198.311 171.957 196.858 172.452 195.453 173.059C158.598 189.058 121.759 205.121 84.8713 221.056C77.0148 224.444 68.9986 227.449 60.9825 230.47C54.4514 232.931 49.8205 232.228 47.3773 228.76C44.8383 225.164 45.7964 219.346 50.092 214.391C56.9424 206.496 65.1981 200.23 74.6355 195.947C87.0271 190.305 99.6422 185.063 112.385 180.268C140.234 169.783 168.099 159.394 194.415 145.377C198.455 143.219 202.367 140.582 205.785 137.529C215.238 129.106 228.843 132.047 232.979 144.05C234.352 148.046 234.72 152.617 234.528 156.885C233.442 180.747 235.965 204.114 242.688 227.082C243.997 231.573 244.748 236.607 244.157 241.179C242.768 251.775 231.031 255.899 223.095 248.754C220.252 246.197 218.048 242.761 216.116 239.404C207.653 224.62 204.379 208.27 202.24 191.632C201.425 185.047 200.866 178.43 200.116 171.269Z" fill="#29A631" fill-opacity="0.02"/>
<path d="M-31.2674 285.629C-26.2054 287.052 -22.7722 287.995 -19.3389 288.985C-16.7041 289.753 -13.9735 290.328 -11.4665 291.399C-4.91942 294.228 -1.64587 299.806 -2.92335 306.806C-3.76968 311.473 -5.09507 316.188 -7.04322 320.504C-13.6382 335.048 -15.2031 350.312 -14.6762 366.023C-14.3568 375.741 -14.245 385.474 -14.4366 395.192C-14.5005 398.277 -15.4267 401.537 -16.768 404.334C-18.9238 408.873 -21.6384 409.049 -24.4489 404.958C-26.0617 402.608 -27.4989 399.923 -28.2174 397.19C-35.7705 368.053 -36.0579 339.491 -20.8879 312.289C-19.6264 310.035 -18.6044 307.654 -17.1034 304.553C-20.4248 304.249 -23.1075 304.057 -25.7902 303.77C-29.974 303.322 -34.2056 303.13 -38.3095 302.299C-49.0403 300.11 -54.6772 291.383 -52.5374 280.61C-50.8767 272.267 -46.7728 265.107 -41.2796 258.794C-35.4671 252.129 -28.9839 246.007 -23.4109 239.151C-18.4128 232.997 -13.9097 226.38 -9.91755 219.54C-8.41652 216.982 -8.95945 213.21 -8.5762 209.998C-11.4984 210.174 -14.5644 209.87 -17.3269 210.637C-24.9758 212.715 -32.6407 214.665 -38.7247 220.579C-43.0202 224.75 -49.5353 224.542 -54.5015 221.282C-59.7552 217.846 -62.1345 211.213 -60.3939 204.772C-58.9567 199.449 -55.6193 195.437 -51.1322 192.529C-37.5909 183.77 -22.5805 180.19 -6.69191 182.252C10.0111 184.425 19.8796 200.12 15.3446 217.782C13.3325 225.613 9.67576 233.413 5.14071 240.142C-0.991184 249.236 -8.75186 257.227 -15.7141 265.778C-20.6643 271.948 -25.4708 278.261 -31.2674 285.629Z" fill="#0CAD8E"/>
<path d="M151.14 256.698C146.621 258.552 142.613 260.119 138.669 261.845C115.515 271.898 92.4243 282.079 69.2221 291.989C63.9206 294.258 58.3156 295.936 52.7107 297.359C49.6926 298.126 46.3552 298.158 43.2414 297.806C38.8181 297.311 35.5605 293.827 35.1613 289.863C34.7142 285.404 36.854 282.351 40.7184 280.417C42.1396 279.714 43.6565 279.17 45.1416 278.611C55.1858 274.807 65.1821 270.891 75.2742 267.263C102.389 257.497 128.337 245.382 152.785 230.055C162.734 223.821 171.74 226.762 176.674 237.455C181.305 247.492 182.838 258.297 183.908 269.149C184.531 275.51 184.962 281.887 185.281 288.265C185.409 290.694 185.313 293.251 184.722 295.601C183.301 301.275 179.676 305.063 173.816 306.166C167.971 307.268 162.925 305.223 159.891 300.268C157.911 297.055 156.793 293.091 156.17 289.32C154.717 280.593 153.807 271.77 152.61 263.012C152.306 261.046 151.699 259.144 151.14 256.698Z" fill="#29A631" fill-opacity="0.02"/>
<path d="M84.5359 362.377C85.3982 349.159 86.7236 338.834 91.9133 329.421C97.167 319.895 105.838 316.075 118.213 317.817C126.788 319.032 134.405 325.824 135.875 335.382C138.717 353.842 133.815 370.465 120.481 383.635C109.734 394.247 94.3405 390.859 88.3364 376.97C86.005 371.647 85.3343 365.606 84.5359 362.377Z" fill="#29A631" fill-opacity="0.02"/>
<path d="M28.6943 594.05C28.806 614.668 25.5964 634.582 15.9993 653.059C14.2268 656.479 11.9114 659.772 9.27661 662.569C6.72165 665.27 3.20857 666.692 -0.639832 665.062C-4.48824 663.432 -5.81362 659.915 -5.82959 656.191C-5.82959 652.467 -5.20681 648.695 -4.52016 645.003C-1.16678 626.607 2.76146 608.291 5.55595 589.814C7.48814 576.98 6.06694 564.034 3.46408 551.28C2.93712 548.722 2.41016 546.133 2.26644 543.544C2.07482 539.98 3.27244 536.879 6.81745 535.377C10.5381 533.81 13.8755 535.009 16.1271 538.014C18.187 540.763 19.8956 543.879 21.1891 547.076C27.3689 562.116 28.6144 578.003 28.6943 594.05Z" fill="#29A631" fill-opacity="0.02"/>
<path d="M262.393 512.026C262.489 539.469 242.001 566.432 215.494 573.417C211.949 574.344 208.02 574.552 204.363 574.152C199.924 573.672 197.05 570.172 196.619 565.937C196.172 561.573 197.976 558.185 201.809 556.235C204.092 555.068 206.679 554.381 209.202 553.79C238.217 547.045 255.255 509.837 231.302 483.209C227.741 479.245 227.31 475.33 229.913 472.293C232.468 469.304 236.38 469.096 241.011 471.701C254.536 479.341 262.329 494.046 262.393 512.026Z" fill="#29A631" fill-opacity="0.02"/>
<path d="M101.702 549.01C101.558 557.864 99.9456 564.257 95.8417 569.835C88.4004 579.953 75.6257 581.887 65.4697 574.503C54.196 566.303 50.3316 549.218 56.9425 536.943C57.7729 535.408 58.5873 533.89 59.3697 532.324C65.2461 520.512 78.7874 517.044 89.4863 524.828C98.3328 531.237 101.287 540.571 101.702 549.01ZM79.4261 558.903C83.3863 553.405 82.6837 544.375 78.5639 540.635C76.3442 538.637 74.5398 539.436 74.2683 542.025C73.6136 548.099 75.2105 553.629 79.4261 558.903Z" fill="#29A631" fill-opacity="0.02"/>
<path d="M313.668 103.456C312.135 106.924 311.624 110.217 309.707 112.023C301.148 120.03 295.959 130.243 290.226 140.153C289.428 141.527 288.661 142.934 287.767 144.244C285.563 147.473 282.561 149.359 278.553 148.751C274.561 148.144 272.23 145.523 271.064 141.751C268.988 135.118 267.056 128.421 264.708 121.884C263.766 119.247 262.137 116.722 260.349 114.516C258.177 111.863 256.804 109.194 257.874 105.773C258.992 102.193 261.658 100.195 265.251 99.9396C274.784 99.2523 284.334 98.661 293.883 98.3253C298.737 98.1495 303.687 98.2134 308.478 98.9806C310.314 99.2683 311.815 101.794 313.668 103.456Z" fill="#29A631" fill-opacity="0.02"/>
<path d="M109.175 430.928C102.117 430.577 95.7937 429.33 92.5361 422.41C90.4442 417.982 91.578 417.327 96.1609 416.016C111.746 411.557 126.645 405.564 137.12 392.25C138.557 390.412 139.18 387.823 139.819 385.489C141.639 378.936 146.222 375.356 152.003 376.203C157.767 377.05 161.472 382.308 161.073 389.069C160.45 399.794 155.819 408.552 147.851 415.553C136.705 425.318 123.371 429.57 109.175 430.928Z" fill="#29A631" fill-opacity="0.02"/>
<path d="M324.367 154.68C323.744 157.493 323.121 162.751 321.412 167.626C317.66 178.286 313.476 188.819 309.197 199.288C308.19 201.749 306.434 204.147 304.454 205.937C299.392 210.524 293.052 208.398 291.551 201.701C291.056 199.496 290.897 196.955 291.487 194.829C295.767 179.309 300.063 163.806 304.837 148.43C306.753 142.261 311.4 139.656 316.287 140.583C321.508 141.558 324.478 145.841 324.367 154.68Z" fill="#29A631" fill-opacity="0.02"/>
<path d="M98.2529 51.2711C100.185 39.9712 101.798 29.3905 103.874 18.8898C105.263 11.8893 109.926 8.2612 115.499 8.98043C121.311 9.73162 125.671 14.7662 124.617 21.6708C122.557 35.0965 119.651 48.3942 116.808 61.692C116.329 63.9775 114.716 66.1832 113.183 68.0532C109.143 72.9759 104.018 72.6402 101.654 66.7266C99.6741 61.7719 99.2749 56.1779 98.2529 51.2711Z" fill="#F1DDC4"/>
<path d="M358.827 410.934C363.665 411.077 366.651 412.9 368.136 416.639C369.685 420.555 368.871 424.247 365.581 426.868C362.883 429.01 359.865 430.864 356.751 432.367C345.014 438.041 333.181 443.555 321.365 449.053C318.49 450.395 315.488 452.169 312.47 452.345C310.011 452.489 306.754 451.147 305.093 449.325C302.841 446.863 303.815 443.587 306.067 441.045C306.642 440.406 307.296 439.767 308.031 439.335C323.552 430.289 339.074 421.243 354.643 412.292C356.096 411.461 357.901 411.221 358.827 410.934Z" fill="#29A631" fill-opacity="0.02"/>
<path d="M275.04 488.692C275.152 478.558 268.748 469.688 259.742 466.284C258.656 465.868 257.522 465.612 256.453 465.181C253.482 463.966 251.71 461.808 251.902 458.5C252.109 455.048 254.105 452.618 257.411 452.123C260.189 451.707 263.335 451.611 265.922 452.522C280.709 457.701 289.555 468.313 292.509 483.593C293.116 486.694 292.398 490.258 291.487 493.391C290.242 497.69 286.298 500.167 282.673 499.784C278.697 499.368 275.806 496.14 275.2 491.393C275.04 490.082 275.04 488.771 275.04 488.692Z" fill="#29A631" fill-opacity="0.02"/>
<path d="M103.283 489.793C103.171 496.65 99.5622 500.758 93.7337 500.694C87.8094 500.63 82.0448 494.748 82.1406 488.882C82.2204 484.152 88.2086 478.941 93.5261 478.957C99.3706 478.989 103.395 483.464 103.283 489.793Z" fill="#29A631" fill-opacity="0.02"/>
</g>
<defs>
<clipPath id="clip0_131_8346">
<rect width="2055" height="1429" fill="white" transform="translate(-260 -496)"/>
</clipPath>
</defs>
</svg>
