<svg width="54" height="59" viewBox="0 0 54 59" fill="none" xmlns="http://www.w3.org/2000/svg">
<path id="Vector" d="M0.527889 45.2268C1.27559 37.2642 2.04741 29.3016 2.771 21.339C3.66341 11.3254 4.29054 1.2636 5.52063 -8.71378C5.89448 -11.6937 7.52254 -14.7461 9.30737 -17.2555C12.2741 -21.4419 16.7241 -22.3588 21.6203 -20.8386C28.3858 -18.7273 32.9565 -14.2514 35.4528 -7.77274C39.1913 1.91508 44.6061 10.6257 50.5154 19.095C54.7122 25.1152 53.5786 30.9062 47.814 34.6703C37.7442 41.2696 27.7467 47.9896 17.725 54.6613C16.7241 55.3248 15.7593 56.0728 14.7101 56.6519C8.08934 60.3075 0.937922 56.3744 0.455534 48.8341C0.383175 47.6397 0.443481 46.4332 0.443481 45.2268C0.4676 45.2389 0.49171 45.2268 0.527889 45.2268Z" fill="#F1DDC4"/>
</svg>
