<svg width="58" height="32" viewBox="0 0 58 32" fill="none" xmlns="http://www.w3.org/2000/svg">
<path id="Vector" d="M27.4439 18.166C28.8828 16.9421 30.451 15.6387 31.9933 14.2954C37.4645 9.55912 43.4527 6.2059 50.3112 5.19098C50.854 5.11138 51.3968 4.99201 51.9396 5.00196C54.1971 5.07161 56.4976 5.36014 57.4195 8.17603C58.2984 10.8526 56.5751 12.5441 55.1018 14.1561C50.1733 19.559 45.176 24.8823 40.2734 30.3151C35.681 35.4195 30.5544 39.4095 24.2301 40.9916C11.0474 44.2851 -1.67863 30.2853 0.55295 14.9322C0.785586 13.3501 1.19055 11.7482 1.76783 10.2855C3.94771 4.7134 7.48895 0.962176 12.9688 0.594021C18.4315 0.235816 22.2139 3.65866 24.6523 8.92229C25.9189 11.6486 26.4617 14.8128 27.4439 18.166Z" fill="#0CAD8E"/>
</svg>
