<svg xmlns="http://www.w3.org/2000/svg" width="91" height="130" viewBox="0 0 91 130" fill="none">
<path d="M82.4171 83.5348C84.1375 83.5348 86.1877 82.9464 87.5067 83.6639C89.901 84.9698 91.263 87.0219 90.5748 90.3367C86.5174 110.154 65.4134 128.924 45.1552 129.813C28.6533 130.545 16.8396 122.265 8.75358 108.475C2.18723 97.2821 -0.0923586 84.7977 0.309077 71.9975C0.968579 51.0753 8.03672 32.2337 20.3522 15.4299C26.2304 7.40833 33.9867 1.85489 44.1229 0.348142C51.1624 -0.685054 54.3739 1.74013 58.8757 7.20746C63.2055 12.4595 63.4636 18.257 64.2091 24.2839C66.4887 42.6806 69.4708 60.9193 77.7432 77.7948C78.8758 80.1052 80.3239 82.2576 81.6285 84.4819C81.9153 84.1662 82.1733 83.8505 82.4171 83.5348ZM72.8973 96.3637C72.8973 96.0049 72.8973 95.6605 72.8973 95.3018C59.6642 90.8533 53.9008 80.2343 50.9043 67.9364C48.8542 59.513 47.6498 50.7883 46.933 42.1353C46.2735 34.1997 46.7896 26.1638 46.7896 18.1708C46.1875 17.9125 45.5853 17.6542 44.9832 17.3959C41.7573 20.9834 38.1444 24.2983 35.4061 28.2302C30.8469 34.7594 29.0691 42.4223 27.8361 50.1999C25.5135 64.923 27.5924 79.0576 33.872 92.5035C38.5745 102.592 46.4599 106.021 57.0119 102.663C62.4313 100.941 67.6213 98.4875 72.8973 96.3637Z" fill="black"/>
</svg>