<svg xmlns="http://www.w3.org/2000/svg" width="199" height="51" viewBox="0 0 199 51" fill="none">
<path d="M66.6764 25.3776C62.3609 28.4915 58.0312 31.5337 53.7874 34.705C47.4791 39.4262 40.9988 43.6881 32.9128 44.75C15.6654 47.0173 -0.148282 32.3517 0.898318 15.0026C1.18506 10.3245 3.56498 7.02397 7.50765 5.81857C11.479 4.59883 15.8518 6.14864 18.3608 10.0518C19.8948 12.4483 20.8984 15.1748 22.2604 17.686C25.0274 22.809 28.9415 24.1147 33.9451 21.13C37.6153 18.9488 40.8412 16.0214 44.4254 13.6537C50.2749 9.80789 55.9524 5.47423 62.2606 2.56119C73.4005 -2.59044 82.7195 1.09742 88.3396 12.0751C90.1174 15.5335 91.5081 19.1928 93.3289 23.3399C94.5332 22.278 95.5368 21.4026 96.5404 20.5273C101.143 16.4949 105.429 12.0321 110.39 8.51637C121.745 0.494747 132.971 2.97733 140.498 14.6582C144.268 20.5273 145.989 20.7999 151.308 16.0645C154.032 13.6393 156.455 10.8698 159.207 8.50201C166.433 2.30283 174.849 2.28849 181.745 8.87512C190.677 17.4277 196.971 27.6736 199.552 39.9285C200.412 43.9751 199.308 45.0514 195.337 44.0469C186.577 41.837 179.681 36.6423 173.444 30.3283C169.401 26.2242 169.473 26.5543 164.641 29.5104C159.336 32.7535 153.946 36.0683 148.197 38.2925C140.197 41.3778 132.211 39.9715 125.057 35.2791C122.634 33.6862 121.071 33.8728 118.906 35.5517C114.275 39.1249 109.587 42.6836 104.641 45.8119C92.9991 53.1878 83.2069 51.2936 75.2069 40.0145C72.1101 35.5948 69.7301 30.6584 66.6764 25.3776Z" fill="#0CAD8E"/>
</svg>