<svg xmlns="http://www.w3.org/2000/svg" width="55" height="68" viewBox="0 0 55 68" fill="none">
<path d="M54.095 34.7705C54.095 39.7212 53.923 44.6863 54.1381 49.6227C54.4391 56.4389 51.4714 62.0928 47.629 67.1727C46.2097 69.0525 43.0842 70.4301 40.6326 70.588C32.3601 71.1189 24.2597 69.8131 16.6181 66.3834C3.34205 60.4282 -2.1347 48.2451 2.73988 34.4548C8.14493 19.1865 19.7436 9.91633 34.0519 3.53061C35.4713 2.89921 36.948 2.38267 38.353 1.70822C44.2742 -1.14741 50.181 1.19158 51.9445 7.5773C52.9768 11.3083 53.1058 15.2832 53.5932 19.1434C53.7223 20.1765 53.7366 21.2241 53.751 22.2716C53.7653 26.4331 53.751 30.609 53.751 34.7705C53.88 34.7705 53.9803 34.7705 54.095 34.7705ZM32.2884 25.2278C26.7687 30.6951 22.0232 35.818 20.2024 42.7921C19.7006 44.715 20.2024 48.0442 21.5214 49.0774C24.4031 51.3303 28.1164 52.5214 32.2741 54.516C32.2885 44.0979 32.2884 35.1006 32.2884 25.2278Z" fill="#DA4E41"/>
</svg>