<svg width="71" height="58" viewBox="0 0 71 58" fill="none" xmlns="http://www.w3.org/2000/svg">
<g id="Group 3810">
<path id="Vector" d="M70.2574 34.3919C70.5084 31.8749 70.8472 29.3641 70.979 26.8346C71.048 25.5478 70.9539 24.1857 70.5962 22.9555C68.7767 16.6598 65.4639 11.2994 60.2875 7.20061C47.7954 -2.68542 31.4696 2.55574 27.6234 18.003C24.5866 30.2052 27.5355 41.2336 36.42 50.2723C41.6528 55.5951 48.1091 58.3631 55.6822 56.3797C64.0207 54.1953 68.3626 48.1633 70.0629 40.0222C70.4456 38.1956 70.5021 36.3 70.7029 34.4358C70.5523 34.4233 70.408 34.4044 70.2574 34.3919ZM37.7062 28.5607C37.7188 25.3658 38.409 22.1772 40.3164 19.34C42.9516 15.4233 46.8103 14.5759 50.8446 17.049C54.0132 18.9885 56.0524 21.901 57.7025 25.1524C58.7001 27.117 59.8922 28.975 60.9463 30.9145C61.2036 31.3916 61.3667 31.9753 61.3855 32.5214C61.4922 36.0553 60.8522 39.4385 59.1581 42.5769C56.3786 47.7365 51.5976 49.0797 46.6597 45.9475C45.1978 45.0186 43.8362 43.7946 42.7382 42.4451C39.507 38.4844 37.8694 33.8709 37.7062 28.5607Z" fill="#0CAD8E"/>
<path id="Vector_2" d="M5.31831 0.234375C3.26661 0.410127 1.56629 1.07547 0.593773 2.93969C-0.416393 4.86668 -0.102667 6.81878 1.27141 8.35661C2.41961 9.64336 3.82505 10.8485 5.34971 11.6143C9.67272 13.7735 14.1149 15.6942 18.5195 17.6965C19.7367 18.2489 20.9539 18.3054 22.0645 17.4392C23.2691 16.5039 23.7021 15.1732 23.288 13.7798C22.9429 12.6123 22.4159 11.3883 21.6253 10.4844C18.0176 6.35429 13.6193 3.24725 8.5998 1.05036C7.58337 0.610978 6.41632 0.498002 5.31831 0.234375Z" fill="#F1DDC4"/>
<path id="Vector_3" d="M15.7963 29.7422C16.9319 29.6731 18.0801 29.6731 19.2032 29.5162C21.0855 29.2526 22.3028 27.9784 22.4345 26.2899C22.56 24.7081 21.6314 22.982 19.8872 22.6933C16.9445 22.2162 13.9266 21.9401 10.9525 22.0279C8.96984 22.0844 7.77143 23.7101 7.68359 25.4049C7.60202 27.1059 8.62475 28.6563 10.5572 29.171C12.2388 29.6166 14.0207 29.6982 15.7524 29.943C15.7775 29.8802 15.7837 29.8112 15.7963 29.7422Z" fill="black"/>
</g>
</svg>
