<svg width="36" height="72" viewBox="0 0 36 72" fill="none" xmlns="http://www.w3.org/2000/svg">
<g id="Group 3808">
<path id="Vector" d="M19.9078 27.3258C20.8049 24.2742 21.6123 21.4572 22.4197 18.6403C22.6888 17.6075 22.958 16.5746 23.0477 15.5417C23.2271 13.5229 22.1505 11.9267 20.446 11.4102C18.7415 10.8938 16.9025 11.6919 16.0502 13.5229C15.4671 14.7436 15.1083 16.0581 14.6597 17.3258C12.7309 22.9126 10.9367 28.4995 8.82852 33.9925C7.07915 38.5935 4.79154 42.9128 3.08703 47.5137C0.844265 53.4762 -1.12939 59.5326 -3.10303 65.542C-3.46188 66.6688 -3.46186 67.9834 -3.37215 69.1571C-3.3273 70.2369 -2.47503 70.7064 -1.62278 70.2369C-0.456543 69.5796 0.844242 68.7815 1.60678 67.7017C2.95245 65.7298 4.07385 63.6171 5.10553 61.4105C8.73881 53.4293 12.3272 45.3541 15.8708 37.3259C16.3194 36.34 16.8576 36.0113 17.8444 36.1522C21.6123 36.6217 25.3801 36.9972 29.148 37.4198C29.9554 37.5137 30.7628 37.6545 31.5702 37.5606C33.185 37.4198 34.4858 36.7156 35.0689 35.0254C35.652 33.2883 35.2035 31.739 33.9027 30.6122C33.0504 29.861 32.0187 29.2507 30.9871 28.8282C28.1163 27.7014 25.0662 27.3728 21.9711 27.2789C21.2983 27.2789 20.7152 27.3258 19.9078 27.3258Z" fill="#0CAD8E"/>
<path id="Vector_2" d="M5.10547 28.0768C0.844208 28.0768 -3.19279 28.1238 -7.18492 28.0768C-8.97913 28.0768 -10.7733 27.889 -12.5676 27.7951C-13.2852 27.7482 -13.6441 27.4665 -13.6441 26.6214C-13.689 21.1754 -13.8235 15.7293 -13.8235 10.2363C-13.8235 8.87483 -13.5544 7.51332 -13.5095 6.15181C-13.4647 5.07199 -13.375 3.89827 -13.5992 2.8654C-13.9581 1.1283 -15.4383 0.00153579 -17.0531 0.00153579C-18.623 -0.0454129 -20.0584 0.987457 -20.5967 2.63066C-20.8658 3.47574 -21.0004 4.36776 -21.0004 5.25978C-20.7312 13.1002 -20.4173 20.9406 -20.0584 28.7811C-19.9238 31.4571 -18.5782 33.382 -16.1111 33.9924C-14.0029 34.5557 -11.805 34.8374 -9.60712 34.9313C-5.74955 35.1661 -1.89198 35.1661 2.01044 35.213C2.36928 35.213 2.90754 34.9313 3.0421 34.6496C3.75979 32.5839 4.38778 30.4243 5.10547 28.0768Z" fill="black"/>
<path id="Vector_3" d="M9.00806 68.875C9.09777 69.5323 9.18749 70.1896 9.18749 70.7999C9.23235 72.0675 9.95004 72.1614 10.8471 71.8328C12.9105 71.0816 14.4804 69.6262 15.4224 67.6544C16.9475 64.4619 18.3828 61.2224 19.7734 57.936C20.6705 55.8233 21.3433 53.6637 22.1956 51.504C23.1824 49.0158 22.5544 46.6214 20.6256 45.4477C18.652 44.2739 16.0504 44.8373 14.7944 47.2317C13.5385 49.673 12.5068 52.3022 11.7443 54.9782C10.7126 58.7341 10.0397 62.6309 9.23234 66.4337C9.14263 67.2788 9.09777 68.0769 9.00806 68.875Z" fill="black"/>
<path id="Vector_4" d="M-6.33281 17.5126C-6.33281 18.6864 -6.33281 19.907 -6.33281 21.0807C-6.33281 22.5831 -5.83942 23.0526 -4.44891 22.8648C-3.05839 22.677 -1.62301 22.4892 -0.23249 22.0667C2.27941 21.3155 4.74646 20.4704 7.16865 19.4845C9.94968 18.3108 10.3534 16.6206 8.51431 14.1323C6.40611 11.2685 3.84936 8.92104 0.84405 7.09004C-0.232479 6.43276 -1.39874 5.86938 -2.56497 5.35294C-4.17977 4.64871 -5.07686 5.0243 -5.4357 6.8553C-5.88426 9.34358 -6.10855 11.9258 -6.37768 14.461C-6.46739 15.4939 -6.37767 16.5267 -6.33281 17.5126C-6.37767 17.5126 -6.37767 17.5126 -6.33281 17.5126Z" fill="#F1DDC4"/>
</g>
</svg>
