<svg width="44" height="72" viewBox="0 0 44 72" fill="none" xmlns="http://www.w3.org/2000/svg">
<g id="Group 3807">
<path id="Vector" d="M16.4909 27.1492C15.5586 24.1174 14.7197 21.3187 13.8807 18.5201C13.601 17.4939 13.3213 16.4678 13.2281 15.4416C13.0416 13.4359 14.1603 11.85 15.9316 11.337C17.7028 10.8239 19.6138 11.6168 20.4994 13.4359C21.1054 14.6487 21.4782 15.9547 21.9444 17.2141C23.9486 22.7647 25.8131 28.3153 28.0038 33.7726C29.8216 38.3437 32.1988 42.6349 33.97 47.206C36.3005 53.1298 38.3515 59.1468 40.4023 65.1172C40.7752 66.2367 40.7752 67.5427 40.682 68.7088C40.6354 69.7816 39.7498 70.2481 38.8642 69.7816C37.6523 69.1286 36.3006 68.3357 35.5082 67.2629C34.1099 65.3038 32.9446 63.2049 31.8725 61.0126C28.097 53.0831 24.3681 45.0604 20.6859 37.0843C20.2197 36.1048 19.6604 35.7783 18.635 35.9182C14.7197 36.3847 10.8043 36.7578 6.889 37.1776C6.05 37.2709 5.21099 37.4108 4.37199 37.3175C2.69399 37.1776 1.34228 36.478 0.736333 34.7988C0.13039 33.073 0.596517 31.5337 1.94824 30.4143C2.83385 29.668 3.9059 29.0616 4.97795 28.6418C7.96106 27.5224 11.1306 27.1959 14.3468 27.1026C15.0459 27.1026 15.6519 27.1492 16.4909 27.1492Z" fill="#0CAD8E"/>
<path id="Vector_2" d="M31.8726 27.8945C36.3006 27.8945 40.4956 27.9412 44.644 27.8945C46.5084 27.8945 48.3729 27.7079 50.2373 27.6147C50.9831 27.568 51.356 27.2881 51.356 26.4486C51.4026 21.0379 51.5424 15.6272 51.5424 10.1699C51.5424 8.8172 51.2628 7.46453 51.2161 6.11186C51.1695 5.03905 51.0763 3.87296 51.3094 2.8468C51.6823 1.12098 53.2204 0.00152582 54.8984 0.00152582C56.5298 -0.045118 58.0214 0.981045 58.5807 2.61358C58.8604 3.45317 59.0002 4.3394 59.0002 5.22563C58.7205 13.0151 58.3943 20.8047 58.0214 28.5942C57.8815 31.2529 56.4832 33.1653 53.9196 33.7716C51.7289 34.3314 49.4449 34.6112 47.161 34.7045C43.1525 34.9377 39.1439 34.9377 35.0887 34.9844C34.7158 34.9844 34.1565 34.7045 34.0167 34.4246C33.2709 32.3723 32.6183 30.2267 31.8726 27.8945Z" fill="black"/>
<path id="Vector_3" d="M27.8172 68.4281C27.724 69.0811 27.6307 69.7341 27.6307 70.3405C27.5841 71.5998 26.8383 71.6931 25.9061 71.3666C23.762 70.6203 22.1306 69.1744 21.1518 67.2153C19.567 64.0435 18.0755 60.8251 16.6305 57.5601C15.6983 55.4611 14.9991 53.3155 14.1135 51.1699C13.0881 48.6977 13.7406 46.3189 15.7449 45.1528C17.7958 43.9867 20.4992 44.5464 21.8044 46.9253C23.1095 49.3507 24.1815 51.9628 24.9739 54.6215C26.046 58.353 26.7451 62.2244 27.5841 66.0026C27.6774 66.8422 27.724 67.6351 27.8172 68.4281Z" fill="black"/>
<path id="Vector_4" d="M43.7581 17.4003C43.7581 18.5664 43.7581 19.7791 43.7581 20.9452C43.7581 22.4378 43.2454 22.9042 41.8005 22.7177C40.3556 22.5311 38.864 22.3445 37.419 21.9247C34.8088 21.1784 32.2452 20.3388 29.7282 19.3593C26.8383 18.1932 26.4188 16.514 28.3299 14.0419C30.5206 11.1967 33.1774 8.86446 36.3004 7.04535C37.419 6.39234 38.6309 5.83261 39.8428 5.31953C41.5208 4.61988 42.453 4.99303 42.8259 6.81213C43.292 9.28426 43.5251 11.8497 43.8048 14.3684C43.898 15.3946 43.8048 16.4208 43.7581 17.4003C43.8048 17.4003 43.8048 17.4003 43.7581 17.4003Z" fill="#F1DDC4"/>
</g>
</svg>
