<svg width="371" height="543" viewBox="0 0 371 543" fill="none" xmlns="http://www.w3.org/2000/svg">
<g clip-path="url(#clip0_452_21128)">
<path d="M24.0352 -9.20608e-05C25.0076 5.58951 25.8951 11.1945 27.0373 16.7533C27.2457 17.7801 28.3107 18.7837 29.2291 19.4786C31.8452 21.455 34.7238 23.0917 37.2242 25.184C39.2076 26.8439 40.1645 29.2604 40.1799 31.9316C40.1954 35.375 38.7754 38.0694 35.7502 39.7447C32.7404 41.4046 29.5918 41.1576 27.0836 38.9881C24.5755 36.8187 22.5998 34.0316 20.2846 31.6228C19.428 30.735 18.3167 29.6696 17.2132 29.5074C11.3943 28.6813 5.54449 27.7703 -0.312973 27.531C-24.476 26.5582 -48.1296 30.21 -71.4978 36.0158C-79.5933 38.0231 -87.6734 40.123 -95.6454 42.5627C-118.844 49.6655 -140.344 60.2348 -159.661 74.9885C-164.422 78.6326 -168.821 82.8479 -172.896 87.2563C-175.304 89.8658 -177.094 93.2165 -178.537 96.5054C-180.351 100.628 -179.317 103.709 -175.821 106.604C-170.635 110.912 -164.469 112.216 -158.032 111.221C-153.371 110.495 -148.702 109.182 -144.326 107.414C-134.24 103.338 -125.195 97.4627 -117.007 90.2827C-112.739 86.5383 -108.487 82.7707 -104.188 79.0572C-103.239 78.2388 -102.221 77.4359 -101.094 76.9186C-96.5329 74.8341 -91.4548 77.9146 -91.6401 82.9174C-91.7327 85.4189 -92.6433 87.9975 -93.6466 90.3368C-99.203 103.33 -103.772 116.656 -106.882 130.437C-108.093 135.81 -108.796 141.346 -109.197 146.843C-109.529 151.321 -108.394 151.892 -104.15 150.41C-99.0641 148.626 -94.9353 145.353 -91.177 141.647C-85.0031 135.571 -85.4199 138.535 -88.2367 130.105C-89.8573 125.264 -88.7615 121.473 -85.0031 118.238C-81.9239 115.59 -78.4743 113.915 -74.3146 114C-66.7748 114.147 -61.743 120.477 -63.765 127.758C-64.5907 130.738 -66.0339 133.702 -67.832 136.219C-74.7854 145.947 -83.2976 154.154 -93.3224 160.693C-97.6364 163.511 -102.367 165.503 -107.6 165.958C-114.653 166.568 -120.21 163.334 -123.196 156.887C-125.866 151.128 -125.975 145.067 -125.126 138.937C-123.567 127.673 -119.808 117.019 -115.934 106.411C-115.718 105.816 -115.51 105.222 -115.332 104.62C-115.301 104.511 -115.402 104.365 -115.494 104.064C-116.22 104.566 -116.899 105.029 -117.578 105.5C-127.973 112.626 -138.754 119.01 -151.094 122.207C-159.506 124.384 -167.918 124.453 -176.099 121.211C-178.807 120.138 -181.455 118.709 -183.831 117.019C-191.919 111.244 -194.89 102.798 -192.483 93.147C-191.009 87.2409 -188.014 82.1299 -184.171 77.4822C-176.94 68.7581 -168.227 61.6939 -158.781 55.5716C-135.073 40.2234 -109.56 29.1446 -81.8931 23.0995C-65.7947 19.5789 -49.7117 16.0275 -33.2661 14.4912C-18.0706 13.0706 -2.88284 12.9934 12.274 14.9853C12.8837 15.0625 13.5011 15.0779 14.2728 15.1242C13.8793 9.99016 13.4934 4.98731 13.1075 -0.0078125C16.7424 -9.20608e-05 20.3927 -9.20608e-05 24.0352 -9.20608e-05Z" fill="#D1D1D1" fill-opacity="0.02"/>
<path d="M193.185 -9.20594e-05C192.189 9.88979 187.86 18.3514 182.01 26.1645C176.917 32.9507 171.568 39.5594 166.822 46.585C162.948 52.3136 159.599 58.4205 156.388 64.5582C153.788 69.5225 152.893 74.9113 154.521 80.4778C154.891 81.7517 155.293 83.041 155.864 84.2299C157.909 88.507 160.648 89.943 165.379 89.3254C170.781 88.6228 175.713 86.7391 179.934 83.234C183.6 80.1921 187.204 77.0653 190.746 73.8845C191.14 73.5294 191.163 72.4949 191.008 71.8618C189.781 66.7972 189.835 61.7094 190.653 56.6062C191.232 52.9853 193.023 51.0552 195.809 50.8931C198.625 50.7309 201.149 52.553 201.983 55.8959C202.693 58.737 202.916 61.694 203.333 64.6123C204.506 72.8114 209.584 78.6558 216.962 80.0995C218.451 80.3929 220.095 80.555 221.546 80.2307C228.87 78.5631 234.264 74.2628 237.783 67.6541C238.879 65.6082 238.609 63.431 237.799 61.3234C235.839 56.2588 232.605 52.1901 228.013 49.2949C226.122 48.106 224.046 47.2104 222.086 46.1141C219.979 44.9406 218.042 44.7013 216.19 46.6468C215.195 47.6891 214.269 46.9788 213.474 46.2145C210.773 43.6358 210.78 39.212 213.613 36.1547C217.232 32.2559 221.862 30.9589 226.856 32.2405C229.966 33.0434 233.168 34.4176 235.715 36.3477C243.162 42.0145 248.155 49.6115 251.119 58.4514C252.809 63.5005 252.523 68.6346 250.123 73.4136C245.061 83.4733 237.158 90.5993 226.377 93.7724C215.534 96.9609 206.242 93.34 198.44 85.4806C197.946 84.9865 197.491 84.4538 197.013 83.9443C196.966 83.8979 196.881 83.8902 196.573 83.7667C196.256 84.3843 195.994 85.0869 195.577 85.6659C193.648 88.314 192.058 91.3559 189.65 93.4713C181.678 100.474 172.093 103.392 161.613 102.566C153.603 101.933 147.791 97.3547 144.056 90.3677C138.986 80.8792 138.299 70.9894 142.142 60.891C144.504 54.6838 147.861 48.9861 151.959 43.798C157.484 36.8187 163.249 30.0324 168.952 23.1921C170.835 20.93 172.888 18.8069 174.771 16.5448C178.838 11.6809 181.755 6.22258 183.121 -0.0078125C186.455 -9.20594e-05 189.82 -9.20594e-05 193.185 -9.20594e-05Z" fill="#D1D1D1" fill-opacity="0.02"/>
<path d="M99.3569 0C96.9491 4.2694 94.3869 8.4616 92.1875 12.8314C90.6826 15.8192 89.525 19.0077 88.4909 22.1963C87.6883 24.6668 88.2594 25.6473 90.7058 26.2572C98.8939 28.2954 106.835 27.5234 114.39 23.7095C115 23.4007 115.432 22.451 115.648 21.7176C116.281 19.4941 116.667 17.2011 117.315 14.9854C118.334 11.5112 120.664 9.75864 123.682 10.0211C126.522 10.2605 128.891 12.4067 128.992 15.8501C129.107 20.0191 128.714 24.2422 128.197 28.3958C127.44 34.4409 126.383 40.4551 125.442 46.4771C125.272 47.5811 125.087 48.6928 124.809 49.7814C123.968 53.0549 122.208 54.846 119.615 55.1317C116.968 55.425 113.904 53.9041 112.924 51.0167C112.052 48.4458 111.99 45.5815 111.712 42.8253C111.604 41.7521 111.882 40.6404 111.975 39.5673C107.437 40.2312 103.108 41.1654 98.7395 41.4047C94.6416 41.6286 90.4279 41.536 86.4072 40.818C75.1939 38.8184 69.4213 29.1369 72.6086 18.1816C74.291 12.399 77.2544 7.23405 80.6269 2.28525C81.1362 1.53637 81.607 0.764324 82.1009 0C87.8503 0 93.6075 0 99.3569 0Z" fill="#D1D1D1" fill-opacity="0.02"/>
<path d="M377.906 -9.20603e-05C377.358 1.30466 377.08 2.81787 376.231 3.88329C370.173 11.5034 366.577 20.4436 362.541 29.1446C362.402 29.4457 362.41 29.8085 362.278 30.5728C366.477 29.9629 370.49 29.4997 374.456 28.774C377.829 28.1564 381.14 27.1913 384.489 26.4656C385.832 26.1722 386.503 25.5623 386.727 24.1417C386.982 22.5668 387.445 20.9918 388.039 19.5017C389.197 16.6066 391.573 15.2787 394.143 15.904C396.59 16.4985 398.102 18.6988 397.933 21.7252C397.747 24.9446 397.3 28.1486 397.153 31.3681C397.068 33.2441 397.23 35.1511 397.485 37.0117C397.801 39.3355 399.206 40.7716 401.56 41.2271C402.378 41.3892 403.203 41.6131 403.975 41.9373C406.128 42.8483 407.271 44.7785 407.016 46.9479C406.777 48.9784 405.249 50.5456 403.041 51.0243C397.624 52.2055 390.732 48.685 388.031 43.1726C387.059 41.1885 386.511 39.0036 385.801 36.9963C380.291 38.2084 374.781 39.4745 369.239 40.6094C366.569 41.1576 363.853 41.5822 361.136 41.837C359.415 41.9991 357.617 41.9296 355.912 41.6362C351.922 40.9491 349.514 37.9536 349.661 33.9081C349.715 32.3871 349.915 30.7813 350.479 29.3839C354.669 18.9536 359.4 8.80893 366.546 -0.0078125C370.328 -9.20603e-05 374.117 -9.20603e-05 377.906 -9.20603e-05Z" fill="#D1D1D1" fill-opacity="0.02"/>
<path d="M213.38 0C215.479 5.16497 215.417 10.4072 213.619 15.5953C211.08 22.9374 206.041 28.0638 199.002 31.2369C198.007 31.6847 196.865 31.9703 195.777 32.0398C191.671 32.2792 188.877 28.8281 189.996 24.8675C190.328 23.6863 190.984 22.5437 191.694 21.5323C192.582 20.2816 193.577 19.0695 194.719 18.0504C199.419 13.8582 202.39 8.84762 202.614 2.40106C202.645 1.59813 203.046 0.802926 203.278 0C206.65 0 210.015 0 213.38 0Z" fill="#D1D1D1" fill-opacity="0.02"/>
<path d="M397.941 409.785C399.253 408.233 400.387 407.268 401.035 406.04C402.286 403.701 403.258 401.215 404.354 398.791C406.492 394.066 411.33 392.043 415.621 394.166C419.009 395.842 420.499 398.814 420.429 402.419C420.336 407.461 420.066 412.51 419.634 417.536C418.338 432.506 416.254 447.36 412.48 461.936C411.793 464.577 410.998 467.209 410.011 469.757C406.021 480.079 398.249 484.735 387.206 483.515C377.552 482.449 369.24 478.288 361.762 472.305C354.878 466.8 349.028 460.284 343.456 453.49C337.182 445.847 330.9 438.211 324.425 430.746C319.023 424.515 312.764 419.211 305.726 414.872C296.99 409.491 287.621 405.909 277.295 405.376C260.618 404.527 245.446 414.479 239.264 429.989C232.473 447.036 245.33 464.175 260.418 465.596C264.516 465.982 268.39 465.156 271.77 462.654C275.212 460.107 275.613 456.957 272.549 453.938C270.597 452.008 268.15 450.587 265.341 448.503C265.449 451.452 264.107 451.39 262.602 450.881C261.02 450.348 259.345 449.946 257.909 449.136C252.353 445.986 252.415 439.068 258.002 435.918C261.081 434.181 264.392 434.073 267.811 434.683C278.368 436.567 287.251 446.843 287.104 457.142C287.027 462.585 284.689 467.047 280.714 470.622C273.059 477.493 263.898 479.817 253.935 478.427C226.384 474.575 211.042 447.105 222.24 421.612C229.394 405.315 242.452 396.004 259.407 391.835C275.59 387.859 290.855 390.87 305.418 398.412C314.864 403.3 323.067 409.877 330.206 417.698C337.722 425.928 344.961 434.413 352.216 442.882C357.386 448.912 362.835 454.648 369.14 459.512C374.04 463.287 379.419 466.059 385.539 467.263C385.817 467.317 386.087 467.379 386.365 467.425C391.798 468.244 393.449 467.534 394.491 462.222C396.829 450.255 398.736 438.211 400.812 426.191C400.858 425.936 400.758 425.658 400.734 425.449C398.705 425.449 396.745 425.681 394.854 425.411C386.558 424.214 381.68 419.026 379.234 411.352C377.305 405.284 377.876 399.138 379.411 393.07C381.781 383.651 386.141 375.12 391.065 366.82C393.349 362.976 395.402 358.976 397.377 354.954C398.249 353.186 398.219 351.287 396.436 349.866C392.469 352.476 389.93 351.287 389.197 346.562C388.464 341.868 391.744 338.332 396.552 338.633C402.587 339.011 408.081 344.254 409.517 350.947C410.335 354.761 409.964 358.529 408.753 362.157C407.109 367.075 405.234 371.916 403.389 376.764C400.487 384.377 397.779 392.051 396.799 400.196C396.552 402.257 396.729 404.388 396.884 406.48C396.922 407.353 397.416 408.233 397.941 409.785Z" fill="#F1DDC4"/>
<path d="M-7.69048 584.653C-11.773 585.587 -15.6317 586.599 -19.5289 587.348C-33.8986 590.104 -48.3609 591.733 -63.0239 590.621C-69.4833 590.135 -75.8501 589.062 -81.8773 586.607C-89.1239 583.65 -94.2714 578.732 -95.6759 570.679C-96.4091 566.472 -95.5756 562.442 -93.9318 558.566C-90.706 550.977 -85.489 544.893 -79.4618 539.411C-78.9061 538.902 -78.3505 538.392 -77.2932 537.427C-79.6547 537.713 -81.3989 538.045 -83.143 538.107C-88.3136 538.284 -93.5382 538.894 -98.6394 538.354C-106.256 537.551 -109.86 530.95 -107.074 523.816C-104.898 518.234 -101.464 513.355 -97.0651 509.41C-92.3883 505.225 -87.511 501.056 -82.1011 497.945C-73.558 493.027 -64.6676 488.603 -55.6152 484.689C-43.0127 479.231 -30.1248 474.436 -17.3526 469.372C-16.0484 468.854 -14.7287 468.36 -13.3859 467.974C-7.46668 466.26 -2.67423 469.403 -2.65108 475.533C-2.62021 483.045 -5.87691 489.352 -11.225 494.54C-11.9659 495.258 -13.1852 495.706 -14.2348 495.837C-16.8664 496.162 -18.1475 494.185 -17.26 491.699C-16.1178 488.487 -15.1686 485.214 -14.0959 481.832C-14.6824 481.755 -14.8985 481.655 -15.0451 481.717C-34.408 489.545 -54.0486 496.741 -71.9914 507.688C-79.0451 511.989 -85.6665 516.76 -90.7909 523.353C-91.2925 523.994 -91.7401 524.673 -92.3652 525.538C-90.1889 525.538 -88.329 525.661 -86.4846 525.515C-74.0519 524.519 -61.6193 523.461 -49.1867 522.427C-45.6598 522.133 -42.9202 523.77 -42.0095 526.665C-41.068 529.653 -42.3799 532.641 -45.5904 534.362C-49.7963 536.609 -54.0794 538.709 -58.3162 540.894C-65.7095 544.708 -72.1303 549.765 -77.2006 556.381C-79.0991 558.859 -80.712 561.639 -82.0008 564.487C-83.7989 568.471 -82.788 571.876 -78.7286 573.613C-74.3375 575.489 -69.6299 577.08 -64.9146 577.674C-45.8373 580.098 -27.1768 577.365 -8.7786 572.247C-7.59785 571.915 -6.96507 571.351 -6.98822 570.077C-7.00365 569.313 -6.83385 568.548 -6.77212 567.776C-6.70266 566.873 -6.65636 565.97 -6.58691 564.804C-7.73679 564.711 -8.82492 564.688 -9.89763 564.534C-14.7364 563.831 -19.6909 563.53 -24.3677 562.225C-27.7093 561.299 -30.9969 559.431 -33.7365 557.261C-40.2037 552.15 -41.122 544.399 -36.0826 537.867C-29.6232 529.491 -20.9952 524.11 -10.8855 521.222C-0.59053 518.288 9.58864 518.288 19.4437 523.191C34.5311 530.695 38.8143 547.163 29.075 560.897C23.449 568.834 16.1484 574.879 7.33517 579.01C5.81485 579.72 5.22062 580.515 5.12029 582.268C3.85465 604.178 2.45011 626.081 1.13817 647.984C0.91436 651.682 0.968384 655.403 0.898926 659.117C0.891212 659.395 0.929787 659.681 0.937508 659.958C1.01468 663.224 -0.212395 665.386 -2.50445 666.019C-4.78107 666.644 -7.52842 665.34 -8.99471 662.784C-10.87 659.511 -11.3099 655.851 -11.225 652.199C-11.0707 645.614 -10.6925 639.028 -10.3221 632.451C-9.46545 617.118 -8.55481 601.785 -7.67503 586.452C-7.66731 585.912 -7.69048 585.364 -7.69048 584.653ZM5.68369 566.317C11.6955 562.519 16.5266 558.319 19.899 552.652C23.1712 547.14 21.7666 540.963 16.4725 537.327C15.3226 536.539 14.0647 535.899 12.7913 535.312C1.92532 530.294 -14.6515 533.583 -24.9079 544.955C-25.9729 546.136 -25.888 547.201 -24.5297 547.827C-22.0679 548.954 -19.5907 550.282 -16.9745 550.776C-12.3132 551.656 -7.53613 551.911 -2.82084 552.559C2.14913 553.239 5.21291 556.505 5.66051 561.515C5.79171 562.951 5.68369 564.41 5.68369 566.317Z" fill="#D1D1D1" fill-opacity="0.02"/>
<path d="M120.51 157.327C121.482 154.887 122.393 152.393 123.45 149.961C127.988 139.547 132.533 129.132 137.164 118.763C137.866 117.188 138.831 115.636 140.012 114.393C142.481 111.776 145.591 110.911 149.041 112.17C152.398 113.397 154.327 115.984 154.466 119.489C154.559 121.82 154.204 124.268 153.525 126.514C152.352 130.398 150.885 134.204 149.357 137.972C145.144 148.371 140.868 158.747 136.531 169.093C135.505 171.54 134.447 174.057 132.912 176.188C128.497 182.333 120.294 181.299 117.122 174.458C116.072 172.204 114.513 170.189 113.178 168.074C113.14 168.012 113.086 167.966 113.047 167.912C100.707 151.621 85.0563 139.523 67.0518 129.942C39.879 115.482 13.0612 100.373 -13.9186 85.5421C-14.3971 85.2796 -14.9065 85.0789 -15.8403 84.6465C-20.0694 105.322 -25.4407 125.573 -26.0426 147.144C-24.9236 146.619 -24.1827 146.333 -23.4959 145.939C-18.4256 142.974 -13.9727 139.269 -10.1989 134.76C-8.48563 132.714 -6.86499 130.591 -5.0437 128.653C-3.61599 127.132 -2.08022 125.619 -0.351536 124.476C5.30528 120.732 11.5023 122.577 14.2882 128.777C15.06 130.491 15.523 132.351 16.0324 134.173C16.7655 136.806 17.3289 139.493 18.1161 142.102C18.6794 143.97 19.374 145.831 20.2383 147.584C23.8038 154.849 28.7737 156.346 35.9508 152.502C37.4712 151.691 38.0731 150.579 37.3168 149.089C36.275 147.043 35.2254 144.928 33.79 143.16C31.359 140.18 28.6039 137.454 26.0032 134.606C25.0076 133.517 23.9967 132.444 23.1169 131.27C21.7201 129.394 21.3188 127.302 22.3683 125.133C23.4565 122.878 25.4476 121.82 27.8245 121.851C29.3988 121.875 31.0735 122.176 32.5089 122.801C43.0277 127.387 49.3482 135.432 51.1386 146.727C52.2422 153.675 49.5488 159.257 43.5216 163.032C38.7985 165.997 33.6048 167.595 28.0483 167.95C21.0487 168.398 15.3378 165.75 10.7074 160.562C6.74072 156.122 4.37146 150.849 2.61962 145.237C2.39582 144.526 2.14886 143.831 1.79386 142.781C1.01441 143.623 0.458767 144.21 -0.0814476 144.82C-6.07011 151.56 -13.0234 157.041 -21.1961 160.886C-23.2103 161.836 -25.3558 162.615 -27.5321 163.079C-33.0654 164.252 -37.9427 161.635 -39.71 156.269C-40.6592 153.389 -41.0606 150.239 -41.1763 147.198C-41.6085 135.571 -40.1653 124.067 -38.0276 112.687C-35.5581 99.5316 -32.61 86.4609 -29.9167 73.3438C-27.725 62.7051 -19.9922 60.7595 -12.1359 65.2374C1.44659 72.9732 15.0369 80.7246 28.303 89.0009C46.0915 100.095 63.5095 111.768 81.1899 123.04C93.2367 130.722 103.655 140.226 113.364 150.618C115.548 152.949 118.033 155.011 120.51 157.327Z" fill="#D1D1D1" fill-opacity="0.02"/>
<path d="M73.1798 467.611C92.9284 467.302 111.242 474.305 129.979 479.177C140.73 481.971 151.573 483.353 162.67 482.357C174.555 481.292 185.475 471.749 188.083 460.092C188.292 459.173 188.161 458.154 188.091 457.189C187.875 454.355 190.051 452.657 192.706 453.653C195.052 454.533 196.48 456.432 196.503 458.756C196.534 461.566 196.341 464.554 195.407 467.171C189.719 483.214 175.28 493.668 158.279 494.579C147.876 495.135 137.743 493.598 127.626 491.467C113.68 488.541 99.6039 486.349 85.3809 485.577C71.1424 484.805 57.583 487.445 45.4359 495.382C43.7072 496.509 42.2641 498.107 40.7823 499.582C39.4627 500.894 39.7097 502.021 41.4306 502.832C41.9786 503.094 42.4416 503.542 42.9355 503.89C41.6698 506.129 38.6987 507.395 35.851 506.986C30.688 506.244 26.9529 502.299 26.5284 497.088C26.0885 491.66 28.288 487.221 31.9306 483.438C36.4838 478.706 42.0248 475.394 48.1601 473.186C52.1731 471.742 56.356 470.784 60.4693 469.626C61.3336 469.387 62.2211 469.233 63.4019 468.97C62.9852 467.032 62.7459 465.233 62.2134 463.527C60.3999 457.706 58.7638 451.808 56.5566 446.133C53.0761 437.177 48.2373 428.955 41.3612 422.138C33.9371 414.788 24.4988 412.132 14.4662 412.101C4.33334 412.07 -5.49085 419.521 -8.55464 428.106C-10.7386 434.22 -8.9791 438.158 -2.82838 441.609C-0.520893 442.906 2.53518 442.952 5.28256 443.346C7.00353 443.593 7.81384 442.381 7.97591 440.791C8.13797 439.254 8.40807 437.633 6.27808 437.069C5.47548 436.853 4.69603 436.475 3.9706 436.066C0.59812 434.143 -0.26623 430.499 1.8406 427.241C4.76548 422.725 11.6957 421.76 16.4341 425.249C19.8143 427.743 21.4504 431.248 21.8363 435.317C22.2453 439.602 21.4427 443.732 19.4207 447.53C17.3371 451.429 14.1498 454.247 9.77406 455.035C-0.482292 456.888 -9.87431 455.251 -17.6302 447.569C-24.4292 440.845 -26.0267 432.738 -24.0897 423.736C-19.5673 402.752 1.7017 389.087 23.4569 393.209C41.6467 396.653 55.0594 406.465 63.5022 423.134C68.2175 432.445 70.6716 442.242 71.59 452.541C72.0222 457.521 72.6241 462.446 73.1798 467.611Z" fill="#D1D1D1" fill-opacity="0.02"/>
<path d="M325.637 322.66C324.264 322.375 323.43 322.313 322.689 322.027C316.878 319.734 313.629 315.365 312.742 309.265C311.005 297.391 316.716 287.162 327.706 282.344C332.583 280.206 337.692 278.955 343.032 279.202C351.251 279.58 358.243 282.923 363.221 289.424C370.274 298.642 374.303 309.227 375.113 320.846C375.669 328.798 372.96 335.893 368.384 342.309C358.737 355.827 345.216 362.984 329.187 365.733C318.939 367.485 308.844 366.327 299.221 362.452C282.744 355.827 273.36 343.799 272.218 325.764C271.431 313.326 273.97 301.553 279.843 290.652C283.061 284.691 287.151 279.202 290.855 273.504C295.756 265.992 300.988 258.681 305.487 250.938C311.36 240.839 313.992 229.621 314.98 218.041C315.126 216.304 314.81 214.428 314.301 212.745C313.598 210.413 313.791 208.383 315.358 206.916C316.901 205.464 319.541 204.939 321.385 206.313C323.06 207.564 324.881 209.216 325.552 211.085C326.764 214.458 327.729 218.11 327.814 221.669C328.061 232.177 325.792 242.283 321.732 251.98C317.272 262.634 311.623 272.624 305.063 282.12C300.347 288.945 296.149 296.071 293.047 303.792C289.536 312.524 288.27 321.479 290.431 330.782C292.53 339.838 298.163 345.698 306.699 348.871C312.973 351.203 319.463 351.388 325.985 350.091C332.838 348.725 339.374 346.432 345.502 343.05C350.757 340.155 355.025 336.164 358.289 331.114C361.291 326.474 362.256 321.448 361.145 316.021C360.018 310.532 358.019 305.39 354.971 300.696C350.256 293.446 343.626 291.478 335.67 294.844C326.478 298.735 321.84 306.78 323.577 315.975C323.824 317.264 324.41 318.491 324.812 319.758C325.066 320.53 325.259 321.317 325.637 322.66Z" fill="#D1D1D1" fill-opacity="0.02"/>
<path d="M42.8193 285.764C50.8377 285.741 61.8426 287.393 72.2764 291.678C76.5133 293.415 80.8041 295.538 84.3309 298.387C93.885 306.1 101.996 315.179 108.008 326.003C109.898 329.415 111.264 332.967 111.388 336.95C111.411 337.707 112.113 338.51 112.661 339.158C114.56 341.382 116.744 343.389 118.395 345.775C119.831 347.844 120.047 350.376 119.036 352.831C118.11 355.093 116.775 355.796 114.39 355.263C113.163 354.985 111.905 354.707 110.778 354.175C97.5739 347.968 83.7444 347.195 69.6448 349.658C60.8085 351.195 52.0801 353.31 43.2746 355.016C33.8981 356.831 24.5755 357.047 15.1218 354.877C-0.922583 351.195 -19.4983 332.218 -21.1729 315.735C-21.4199 313.303 -21.5742 310.824 -21.389 308.4C-21.142 305.065 -19.3439 302.795 -16.1257 301.452C-13.2317 300.24 -10.4844 298.657 -7.75244 297.09C6.91823 288.659 22.9626 286.019 42.8193 285.764ZM-6.3093 307.397C-5.9543 308.462 -5.81536 308.848 -5.6996 309.249C-3.18375 317.997 2.51162 324.605 8.73952 330.874C11.6258 333.777 15.006 335.8 18.9187 336.95C23.881 338.41 28.9667 339.259 34.091 338.502C40.8746 337.491 47.6427 336.302 54.3259 334.758C66.6736 331.894 79.0214 329.446 91.7936 330.967C92.0174 330.99 92.2644 330.82 92.5962 330.712C88.4289 326.034 84.2383 321.602 80.3488 316.916C73.0945 308.176 63.6639 303.637 52.6049 302.216C39.6475 300.549 26.6746 301.243 13.8098 302.988C7.11888 303.899 0.57457 305.852 -6.3093 307.397Z" fill="#D1D1D1" fill-opacity="0.02"/>
<path d="M239.967 311.62C238.3 311.62 236.625 311.712 234.966 311.604C228.043 311.164 221.129 310.74 214.222 310.145C212.686 310.014 211.86 310.624 211.05 311.651C199.003 327.045 185.004 340.664 171.344 354.538C148.995 377.228 127.533 400.714 106.356 424.485C104.358 426.732 102.266 428.932 99.9972 430.901C98.2145 432.445 96.1772 433.757 94.1012 434.877C91.5699 436.243 88.9151 436.251 86.6462 434.244C84.4468 432.306 83.9451 429.681 85.0487 427.133C86.461 423.883 88.0354 420.609 90.0959 417.745C98.1451 406.573 107.537 396.537 116.968 386.523C137.457 364.76 159.799 344.887 180.844 323.702C186.516 317.989 191.888 311.967 197.413 306.1C199.721 303.652 201.936 301.104 204.413 298.85C207.014 296.48 210.209 295.831 213.396 297.522C220.72 301.39 228.699 302.324 236.749 303.035C239.187 303.251 241.657 303.228 244.096 303.444C247.229 303.714 248.348 304.849 248.834 307.968C248.888 308.308 248.934 308.694 249.12 308.956C251.466 312.307 250.733 315.681 248.965 318.877C247.584 321.378 246.04 323.864 244.173 326.011C236.594 334.742 228.777 343.258 221.206 352.005C213.226 361.224 205.439 370.612 197.568 379.922C197.027 380.563 196.534 381.258 195.962 381.868C194.249 383.721 192.281 384.956 189.634 384.03C187.304 383.219 185.907 380.972 185.899 378.023C185.884 374.209 186.864 370.581 188.909 367.439C191.039 364.165 193.323 360.892 196.055 358.135C202.576 351.573 209.499 345.42 216.074 338.919C222.896 332.172 229.556 325.262 236.17 318.306C237.821 316.569 238.987 314.368 240.376 312.384C240.245 312.122 240.106 311.867 239.967 311.62Z" fill="#D1D1D1" fill-opacity="0.02"/>
<path d="M-99.7511 221.553C-94.2023 220.241 -89.0317 219.245 -84 217.794C-58.772 210.536 -33.0887 205.348 -7.28187 200.701C4.37132 198.601 15.9628 196.176 27.562 193.791C41.0442 191.019 54.6962 189.02 67.916 185.036C69.5675 184.534 71.3271 184.364 73.1175 183.615C72.2454 183.391 71.3811 183.16 70.509 182.951C67.1674 182.156 63.7949 181.477 60.4919 180.542C57.0808 179.57 55.1901 177.192 55.3058 174.466C55.437 171.571 57.6905 168.761 61.0553 168.391C63.8258 168.089 66.8742 168.19 69.4981 169.047C73.8661 170.483 77.9948 172.644 82.2085 174.544C85.8434 176.188 87.6956 179.647 90.0031 182.573C91.4539 184.41 90.4584 187.236 87.9271 188.286C85.3649 189.344 82.6252 190.1 79.8856 190.556C68.1398 192.525 56.4094 194.54 45.0804 198.361C43.2977 198.963 41.4146 199.257 39.5702 199.697C27.315 202.638 15.1525 206.066 2.78159 208.421C-29.0833 214.489 -60.2769 223.082 -91.2774 232.47C-95.2133 233.659 -99.3189 234.462 -103.401 234.956C-109.722 235.72 -113.195 231.752 -112.307 225.514C-111.898 222.619 -111.921 219.662 -111.836 216.728C-111.79 215.192 -112.022 213.648 -111.999 212.104C-111.898 205.48 -109.413 201.604 -103.039 199.705C-93.1064 196.748 -83.1434 193.698 -72.995 191.691C-56.6883 188.471 -40.4124 185.237 -24.615 179.971C-23.2953 179.531 -21.9062 179.191 -20.5248 179.022C-17.6848 178.674 -15.223 180.319 -14.5207 182.874C-13.8416 185.345 -15.0223 187.946 -17.5768 189.12C-18.9582 189.753 -20.494 190.085 -21.9834 190.486C-39.7179 195.242 -57.5063 199.805 -75.1636 204.831C-82.0861 206.8 -88.6844 209.872 -95.4834 212.304C-97.9684 213.192 -99.3189 214.659 -99.3807 217.33C-99.3807 218.589 -99.5813 219.824 -99.7511 221.553Z" fill="#D1D1D1" fill-opacity="0.02"/>
<path d="M190.815 571.822C177.711 571.744 170.248 562.156 173.219 549.193C174.292 544.499 176.33 539.867 178.73 535.659C184.356 525.762 192.412 517.979 201.527 511.239C202.738 510.344 203.726 509.132 204.745 507.997C205.872 506.754 206.79 505.302 208.017 504.167C216.336 496.486 226.253 492.347 237.505 492.085C250.462 491.784 258.542 501.458 256.559 514.266C255.587 520.573 253.017 526.256 249.328 531.351C238.207 546.73 224.123 558.728 207.207 567.321C201.92 570.007 196.287 571.721 190.815 571.822ZM192.258 557.215C195.453 556.219 198.787 555.547 201.812 554.173C217.586 547 229.016 535.397 236.17 519.616C237.003 517.779 237.605 515.802 238.053 513.833C238.732 510.861 238.192 510.197 235.298 510.931C232.265 511.695 229.309 512.853 226.392 514.011C221.708 515.872 217.077 517.864 212.439 519.824C211.806 520.095 211.119 520.388 210.641 520.859C203.194 528.07 196.48 535.868 191.88 545.248C190.661 547.742 189.765 550.451 189.094 553.154C188.361 556.126 189.102 556.821 192.258 557.215Z" fill="#D1D1D1" fill-opacity="0.02"/>
<path d="M101.24 547.38C97.5278 548.098 94.0627 548.978 90.5436 549.371C87.858 549.673 85.0643 549.649 82.3864 549.286C72.6857 547.982 67.7929 539.937 71.3583 530.811C75.5951 519.964 83.3511 512.174 94.001 507.696C105.793 502.732 118.203 501.675 130.712 504.338C133.938 505.025 136.439 504.871 139.379 503.466C145.043 500.771 151.032 498.972 157.453 499.497C160.169 499.721 162.492 500.756 163.997 503.149C166.127 506.531 164.746 510.383 160.941 511.58C159.344 512.082 157.661 512.329 156.018 512.645C149.566 513.896 143.438 515.996 137.704 519.254C136.13 520.15 134.463 520.991 132.734 521.462C128.289 522.674 125.079 519.887 125.418 515.317C125.441 514.977 125.418 514.629 125.418 513.927C122.146 513.927 118.866 513.688 115.64 513.973C103.493 515.046 93.0286 519.323 86.2142 530.14C85.2804 531.614 84.5704 533.228 83.7446 534.772C83.0578 536.061 83.5594 536.949 84.8791 536.972C88.2053 537.026 91.6395 537.335 94.8422 536.671C98.2918 535.961 101.541 534.255 104.867 532.973C105.778 532.618 106.65 532.139 107.583 531.846C110.323 530.981 113.032 531.861 114.491 534.023C115.957 536.208 115.818 539.072 113.943 541.234C111.488 544.075 111.411 547.333 112.044 550.738C112.337 552.344 113.341 552.877 114.807 552.081C116.651 551.078 118.449 549.989 120.248 548.9C121.629 548.067 122.918 547.071 124.346 546.345C127.911 544.531 131.229 545.766 132.827 549.425C133.305 550.514 133.668 551.657 134.123 552.753C134.911 554.66 136.377 555.169 138.237 554.59C141.169 553.679 142.983 551.742 143.5 548.646C143.994 545.696 142.829 543.45 140.282 542.168C136.531 540.284 132.688 538.578 128.806 536.98C126.144 535.884 124.955 534.826 124.94 532.865C124.924 530.896 126.213 528.959 128.721 528.387C131.183 527.831 133.892 527.469 136.331 527.909C141.455 528.835 145.954 531.336 149.674 535.042C154.953 540.3 156.265 548.638 152.992 555.509C149.921 561.971 142.373 566.194 135.181 565.43C131.268 565.021 128.158 563.168 125.843 560.002C125.434 559.447 125.056 558.868 124.593 558.204C123.08 558.922 121.637 559.609 120.201 560.296C108.803 565.777 102.521 558.18 101.456 549.51C101.379 548.839 101.317 548.144 101.24 547.38Z" fill="#D1D1D1" fill-opacity="0.02"/>
<path d="M222.873 256.612C227.759 259.044 232.381 261.097 237.644 261.321C239.867 261.414 242.113 261.676 244.289 262.124C246.404 262.564 247.013 263.853 245.763 265.598C244.698 267.081 243.294 268.656 241.681 269.35C231.525 273.72 221.708 272.469 212.687 266.386C204.221 260.673 201.134 252.273 202.121 242.259C202.253 240.939 202.407 239.596 202.739 238.314C203.673 234.732 207.269 233.512 209.823 236.16C211.367 237.758 212.362 239.966 213.304 242.035C214.215 244.058 214.739 246.251 215.527 248.66C216.414 248.173 217.078 247.864 217.695 247.463C227.141 241.356 230.961 227.907 226.215 217.654C224.571 214.103 221.808 212.327 217.95 212.165C213.782 211.987 209.885 213.084 206.165 214.829C197.545 218.874 189.998 224.394 183.824 231.675C178.383 238.09 173.166 244.699 167.702 251.099C164.16 255.253 160.556 259.391 156.612 263.151C152.661 266.918 147.907 269.528 142.405 270.47C138.801 271.087 135.405 270.47 132.372 268.385C129.47 266.393 128.035 262.996 128.776 260.009C129.208 258.256 130.165 256.92 132.079 256.619C133.916 256.326 135.243 257.16 135.999 258.781C136.879 260.673 138.446 261.252 140.159 260.541C142.59 259.538 145.214 258.534 147.12 256.828C150.701 253.616 153.996 250.034 157.106 246.359C163.272 239.086 169.153 231.567 175.296 224.278C182.635 215.57 191.719 209.054 201.844 203.958C207.037 201.341 212.501 199.72 218.405 199.812C228.615 199.967 236.417 205.448 239.319 215.261C242.56 226.224 241.102 236.809 235.36 246.691C232.752 251.184 230.421 252.836 222.873 256.612Z" fill="#D1D1D1" fill-opacity="0.02"/>
<path d="M270.257 245.494C258.805 245.571 252.878 239.951 252.384 229.636C252.091 223.468 253.24 217.492 254.753 211.555C255.772 207.548 256.752 203.526 257.732 199.511C258.782 195.219 258.82 190.934 257.94 186.587C256.628 180.11 260.433 176.566 266.97 177.06C271.801 177.423 276.763 176.944 281.602 176.304C294.173 174.644 306.737 172.829 319.247 170.76C323.638 170.035 327.906 168.46 332.173 167.101C335.453 166.058 337.884 163.904 339.351 160.724C340.184 158.917 341.311 157.435 343.634 157.697C345.447 157.906 347.107 159.519 347.593 161.843C348.658 166.915 346.983 171.355 343.186 174.512C340.176 177.014 336.619 179.26 332.93 180.449C326.223 182.627 319.301 184.31 312.348 185.529C299.853 187.714 287.282 189.428 274.733 191.243C273.074 191.482 272.526 191.899 272.256 193.705C271.461 198.955 270.273 204.151 269.184 209.362C267.988 215.114 266.236 220.812 265.635 226.618C264.878 233.859 266.453 234.215 272.58 233.605C277.812 233.087 282.474 231.126 286.703 228.069C288.91 226.471 290.608 224.456 291.449 221.808C292.522 218.449 291.812 216.156 288.964 214.072C287.837 213.246 286.572 212.605 285.437 211.787C284.079 210.798 282.636 209.864 281.524 208.637C278.739 205.549 280.081 201.156 284.164 200.36C286.078 199.99 288.254 200.152 290.153 200.669C299.614 203.232 305.078 212.837 302.871 222.773C301.644 228.301 298.919 232.941 294.428 236.453C286.988 242.267 278.538 245.255 270.257 245.494Z" fill="#D1D1D1" fill-opacity="0.02"/>
<path d="M276.717 510.877C276.663 508.198 278.044 505.535 280.282 503.388C287.12 496.849 294.011 490.379 300.934 483.933C304.005 481.069 307.247 478.382 310.303 475.502C313.444 472.538 317.58 472.113 320.953 474.908C324.024 477.455 326.849 480.297 329.789 483.006C334.743 487.562 339.683 492.132 344.668 496.648C346.806 498.586 347.701 500.895 347.438 503.774C347.122 507.28 346.011 510.414 344.066 513.371C337.09 523.971 330.206 534.633 323.306 545.287C322.743 546.16 322.295 547.125 321.917 548.098C320.258 552.429 315.921 554.135 311.815 551.958C310.773 551.41 309.77 550.692 308.937 549.865C299.838 540.825 290.708 531.807 281.725 522.651C278.021 518.868 276.609 515.201 276.717 510.877ZM315.589 485.353C310.658 490.109 305.834 494.494 301.335 499.204C298.248 502.431 295.624 506.114 292.777 509.573C292.059 510.445 291.912 511.132 292.8 512.097C299.112 518.953 305.363 525.863 311.615 532.78C312.502 533.761 313.266 534.849 314.277 536.123C315.08 534.942 315.489 534.386 315.851 533.807C318.398 529.777 320.922 525.731 323.484 521.709C326.833 516.444 330.206 511.194 333.555 505.936C334.157 504.994 334.859 504.052 333.725 502.948C327.736 497.15 321.763 491.337 315.589 485.353Z" fill="#D1D1D1" fill-opacity="0.02"/>
<path d="M184.996 413.214C182.28 412.812 180.011 412.403 177.726 412.187C177.186 412.133 176.414 412.604 176.036 413.067C168.466 422.262 160.941 431.496 153.409 440.722C152.707 441.586 152.02 442.459 151.186 443.493C151.927 443.825 152.468 444.111 153.039 444.327C157.823 446.141 162.616 447.94 167.401 449.747C167.925 449.947 168.45 450.156 168.944 450.418C171.39 451.746 172.563 454.147 171.961 456.525C171.321 459.042 169.091 460.826 166.297 460.555C163.735 460.308 161.234 459.467 158.68 459.073C153.008 458.193 147.32 457.413 141.64 456.61C140.737 456.479 139.819 456.464 138.916 456.348C130.697 455.29 126.514 447.832 130.164 440.374C131.376 437.896 133.19 435.657 134.972 433.518C143.23 423.605 151.588 413.777 159.884 403.895C161.281 402.235 162.492 400.413 163.874 398.738C167.138 394.77 171.298 393.936 175.92 396.074C180.875 398.367 185.976 400.359 190.861 402.791C193.385 404.049 195.754 405.771 197.876 407.632C199.821 409.346 199.921 411.917 199.381 414.31C198.887 416.479 198.347 418.757 197.267 420.664C193.856 426.694 190.182 432.577 186.609 438.521C186.57 438.583 186.532 438.637 186.486 438.691C183.291 442.721 178.938 443.81 175.45 441.463C171.962 439.116 171.197 434.561 173.891 430.214C176.993 425.211 180.373 420.378 183.622 415.468C184.031 414.843 184.402 414.179 184.996 413.214Z" fill="#D1D1D1" fill-opacity="0.02"/>
<path d="M372.868 197.095C375.731 196.238 378.301 195.319 380.94 194.717C384.49 193.906 387.909 194.493 391.096 196.292C393.589 197.705 396.081 199.133 398.798 200.685C399.4 198.871 399.909 197.157 400.542 195.497C401.314 193.474 402.078 191.428 403.058 189.498C403.93 187.792 405.489 186.95 407.449 187.359C409.378 187.761 410.675 189.096 410.721 190.996C410.791 193.775 410.505 196.578 410.243 199.357C409.795 204.097 409.046 208.822 408.784 213.57C408.529 218.133 409.448 219.175 413.847 220.441C415.861 221.021 417.96 221.329 419.974 221.916C423.239 222.873 423.879 225.22 421.672 227.799C419.758 230.038 417.173 230.81 414.371 231.034C403.76 231.891 396.537 225.336 396.784 214.721C396.853 211.756 395.989 209.957 393.426 208.699C392.115 208.058 390.88 207.216 389.699 206.344C385.617 203.341 381.542 203.827 377.575 206.429C376.078 207.409 374.697 208.676 373.523 210.042C369.927 214.234 364.841 213.686 362.951 208.475C359.424 198.747 359.956 189.143 365.343 180.148C368.839 174.32 373.562 169.463 378.887 165.294C385.833 159.867 391.937 153.613 397.849 147.128C408.414 135.54 411.632 122.122 407.696 106.966C407.541 106.357 407.186 105.693 407.318 105.137C407.549 104.125 407.819 102.72 408.537 102.326C409.378 101.863 411.076 101.886 411.763 102.458C413.052 103.531 414.14 105.044 414.873 106.58C417.767 112.641 417.744 119.095 416.802 125.55C415.297 135.779 411.655 145.121 405.249 153.389C399.485 160.832 393.481 167.981 386.62 174.482C382.645 178.249 379.396 182.835 376.109 187.267C373.986 190.116 373.03 193.536 372.868 197.095Z" fill="#D1D1D1" fill-opacity="0.02"/>
<path d="M295.879 103.152C297.507 102.025 298.665 101.269 299.768 100.45C305.773 96.0265 312.649 94.3125 319.949 94.3588C322.072 94.3743 324.31 95.2158 326.254 96.1731C327.798 96.9298 328.508 98.6591 328.068 100.52C327.644 102.319 326.293 103.222 324.611 103.484C322.674 103.785 320.706 103.909 318.753 103.979C313.181 104.172 307.918 105.492 303.141 108.395C299.267 110.742 295.431 113.174 291.681 115.714C288.648 117.767 285.306 116.787 284.967 113.204C284.681 110.217 284.913 107.013 285.7 104.125C287.413 97.8639 287.483 91.6876 286.132 85.4031C285.306 81.5661 283.176 78.8408 279.657 77.0573C279.503 77.2581 279.302 77.397 279.279 77.5514C278.006 88.9005 276.725 100.242 275.528 111.599C275.343 113.397 275.459 115.25 275.629 117.057C276.308 124.461 279.132 128.684 288.347 130.328C294.173 131.371 300.208 131.317 306.151 131.564C310.264 131.741 314.215 132.405 317.974 134.142C321.802 135.91 324.047 138.983 325.336 142.874C325.444 143.206 325.537 143.546 325.599 143.893C326.023 146.063 325.29 148.595 323.916 149.189C322.018 150.008 320.675 148.688 319.44 147.614C314.894 143.646 309.67 141.747 303.627 141.924C299.421 142.048 295.208 142.11 291.009 141.94C288.015 141.816 284.951 141.585 282.073 140.836C270.636 137.856 264.315 130.143 263.404 118.261C262.563 107.321 263.937 96.5901 266.383 85.9204C267.394 81.4966 267.749 76.9261 268.451 72.4328C268.637 71.267 268.822 70.0472 269.308 68.9972C270.45 66.5035 273.221 65.4998 275.683 66.4881C277.489 67.2138 279.294 67.9549 281.123 68.6343C289.79 71.8692 294.413 78.2694 295.871 87.2406C296.728 92.3593 297.322 97.4779 295.879 103.152Z" fill="#D1D1D1" fill-opacity="0.02"/>
<path d="M361.916 520.852C358.405 533.313 360.303 544.446 368.137 554.166C377.035 565.206 388.819 572.186 402.317 576.061C408.614 577.868 415.212 578.632 421.672 579.883C423.177 580.176 424.736 580.369 426.148 580.925C428 581.651 429.011 583.172 428.88 585.233C428.756 587.294 427.545 588.63 425.638 589.186C424.45 589.533 423.146 589.703 421.911 589.641C406.121 588.815 390.964 585.449 376.834 578.123C367.048 573.042 359.331 565.739 354.099 556.027C347.508 543.797 346.914 531.12 352.223 518.305C355.241 511.016 358.552 509.588 366.192 511.742C376.109 514.537 384.358 520.096 391.358 527.523C395.595 532.024 399.5 536.81 402.178 542.454C404.377 547.086 405.836 551.981 404.856 557.107C404.447 559.238 403.027 561.269 401.722 563.106C400.735 564.496 399.014 564.828 397.324 564.272C395.618 563.716 394.73 562.427 394.491 560.682C394.399 559.987 394.306 559.277 394.36 558.59C394.808 552.931 392.886 547.928 389.946 543.303C383.224 532.726 373.292 526.133 361.916 520.852Z" fill="#D1D1D1" fill-opacity="0.02"/>
<path d="M232.781 167.912C231.153 168.831 229.409 169.834 227.634 170.799C219.546 175.169 211.034 177.964 201.727 177.601C199.435 177.508 197.104 177.207 194.874 176.652C183.437 173.795 177.988 163.99 181.631 152.749C183.514 146.943 186.431 141.724 191.054 137.555C201.426 128.221 213.457 122.547 227.341 120.964C229.401 120.732 231.554 120.864 233.622 121.118C236.663 121.497 238.369 123.334 238.353 125.82C238.338 128.306 236.601 130.09 233.538 130.445C227.503 131.14 221.691 132.514 216.158 135.092C207.221 139.261 200.091 145.569 194.418 153.513C189.726 160.099 192.489 165.966 200.585 166.561C210.362 167.287 219.245 164.222 227.564 159.327C228.027 159.057 228.336 157.929 228.189 157.327C227.865 155.976 227.163 154.725 226.708 153.398C225.419 149.669 226.762 146.079 229.941 144.635C233.159 143.168 236.779 144.411 238.7 147.87C239.82 149.885 240.591 152.085 241.51 154.2C242.513 156.517 243.346 158.918 244.543 161.126C245.708 163.28 246.086 165.318 245.469 167.75C244.396 171.988 240.367 173.81 236.609 171.386C235.228 170.521 234.147 169.178 232.781 167.912Z" fill="#D1D1D1" fill-opacity="0.02"/>
<path d="M25.656 254.45C25.656 251.647 25.5403 248.845 25.6792 246.05C25.9416 240.793 28.9359 237.944 34.0448 236.801C39.007 235.697 43.8304 233.975 48.6923 232.462C50.1586 232.007 51.5246 231.235 52.9986 230.787C56.6335 229.683 59.9442 230.756 61.9893 233.96C63.2163 235.882 64.4202 238.005 64.891 240.198C65.8711 244.769 66.6891 249.424 66.967 254.079C67.3065 259.731 64.3662 262.749 58.9486 264.193C52.7362 265.845 46.6395 267.961 40.4965 269.883C39.6939 270.138 38.9299 270.501 38.135 270.771C30.9887 273.226 25.3628 269.32 25.2162 261.8C25.1698 259.352 25.2084 256.897 25.2084 254.442C25.3628 254.45 25.5094 254.45 25.656 254.45ZM49.6492 245.232C47.4344 246.266 45.6054 247.116 43.7764 247.973C40.836 249.355 40.2881 250.729 41.384 254.226C44.1854 253.446 47.0176 252.705 49.7959 251.825C50.1817 251.702 50.6294 250.899 50.5831 250.466C50.4056 248.814 50.0197 247.193 49.6492 245.232Z" fill="#D1D1D1" fill-opacity="0.02"/>
<path d="M66.512 381.182C72.6781 381.39 78.4893 383.166 84.4239 381.298C85.9288 380.827 87.5803 380.441 89.1315 380.549C92.3342 380.78 93.5612 383.876 91.5007 386.347C90.8138 387.173 89.826 387.922 88.8228 388.285C86.2606 389.203 83.6599 390.091 80.9974 390.593C77.2236 391.311 73.3881 391.882 69.5603 392.129C63.1626 392.538 57.5984 390.107 52.7519 386.138C50.0586 383.93 49.8656 381.143 51.2702 377.985C53.2921 373.454 56.5797 370.057 60.6776 367.501C72.6936 359.989 85.5892 357.163 99.4496 361.132C102.328 361.958 105.068 363.625 107.545 365.37C110.007 367.1 110.509 369.655 109.474 371.639C108.409 373.677 106.395 374.218 103.208 373.508C90.5746 370.721 78.9292 373.623 67.847 379.723C67.5461 379.892 67.2682 380.116 66.9981 380.34C66.9055 380.425 66.8592 380.572 66.512 381.182Z" fill="#D1D1D1" fill-opacity="0.02"/>
<path d="M116.242 225.978C116.242 228.989 116.358 232.015 116.196 235.018C116.103 236.748 115.787 238.531 115.2 240.152C113.333 245.302 108.008 247.417 103.431 244.468C97.1264 240.399 90.3583 237.458 83.3896 234.848C81.9618 234.316 80.5572 233.567 79.3456 232.656C75.186 229.521 75.0625 223.994 79.145 220.759C80.9432 219.338 83.0191 218.242 85.0333 217.115C91.0838 213.718 97.1727 210.398 103.231 207.016C108.965 203.82 113.711 205.796 115.478 212.181C115.741 213.123 115.98 214.096 116.042 215.069C116.281 218.705 116.435 222.349 116.62 225.985C116.497 225.978 116.374 225.978 116.242 225.978ZM100.707 227.97C100.507 225.653 100.36 223.893 100.167 221.677C98.3844 222.928 96.9567 223.932 95.2125 225.159C97.1187 226.132 98.6776 226.935 100.707 227.97Z" fill="#D1D1D1" fill-opacity="0.02"/>
<path d="M286.363 28.6734C282.442 28.7429 279.641 26.9208 278.792 23.8095C277.951 20.7445 279.332 17.4401 282.705 15.8034C285.514 14.4446 288.531 13.3329 291.58 12.6998C299.729 11.009 307.917 9.41088 316.159 8.22966C319.841 7.70467 323.676 8.22194 327.442 8.35318C328.26 8.38406 329.086 8.68516 329.873 8.97082C332.381 9.88183 334.357 11.3564 334.743 14.2053C335.129 17.0696 333.724 19.2699 331.363 20.4434C328.137 22.0492 324.757 23.6242 321.261 24.3654C316.283 25.4231 311.143 25.7396 306.073 26.3418C299.467 27.1447 292.861 27.9091 286.363 28.6734Z" fill="#D1D1D1" fill-opacity="0.02"/>
<path d="M371.725 65.0913C371.578 65.539 371.409 66.535 370.938 67.3611C367.882 72.7191 364.741 78.0307 361.677 83.381C361.237 84.1453 360.882 85.01 360.759 85.8747C360.373 88.5382 358.737 90.1287 356.066 89.8739C354.639 89.7349 353.18 89.2562 351.884 88.6232C347.284 86.3842 342.7 84.099 338.216 81.6362C336.68 80.7946 335.168 79.5825 334.141 78.1774C332.837 76.3863 333.277 74.3017 334.435 72.4334C338.533 65.8633 343.117 59.6483 348.997 54.5606C352.547 51.4878 355.881 51.1173 359.277 53.7113C360.89 54.9466 362.456 56.2514 364.131 57.394C365.443 58.2895 366.84 59.1079 368.291 59.7487C370.49 60.706 371.748 62.3351 371.725 65.0913ZM344.73 73.3521C347.809 74.9811 350.502 76.4094 353.265 77.8686C355.418 73.6378 357.502 69.5537 359.64 65.3538C357.888 63.9718 356.205 62.6439 354.214 61.0766C351.019 65.1993 347.963 69.1599 344.73 73.3521Z" fill="black"/>
<path d="M107.707 115.536C107.322 117.266 107.152 118.818 106.627 120.238C104.813 125.11 99.7431 126.816 95.2825 124.114C92.6586 122.523 90.9221 120.146 89.8186 117.366C88.5298 114.116 87.6423 110.703 86.2686 107.484C84.7097 103.832 83.0196 100.211 81.0208 96.7989C78.8522 93.1008 78.5203 89.7965 80.6503 87.0248C82.8266 84.1914 86.7702 83.1337 90.544 84.8091C92.6122 85.7278 94.7037 87.0017 96.224 88.6384C103.301 96.243 105.817 105.824 107.707 115.536Z" fill="#D1D1D1" fill-opacity="0.02"/>
<path d="M393.48 254.142C393.341 259.407 391.597 263.924 387.638 267.444C381.356 273.034 372.358 271.397 368.383 263.978C366.215 259.925 365.898 255.393 366.361 251.092C366.94 245.688 370.382 241.751 375.406 239.535C380.569 237.257 386.264 238.809 389.768 243.233C392.315 246.429 393.349 250.158 393.48 254.142ZM383.185 254.366C382.691 252.984 382.467 251.772 381.834 250.838C381.526 250.382 380.268 250.089 379.751 250.343C377.636 251.401 376.278 257.114 377.52 259.137C378.632 260.951 380.183 261.121 381.271 259.276C382.166 257.77 382.583 255.972 383.185 254.366Z" fill="#D1D1D1" fill-opacity="0.02"/>
<path d="M398.712 115.683C398.589 116.741 398.573 117.668 398.357 118.54C397.246 123.149 393.032 124.446 389.613 121.188C388.101 119.744 386.681 118.177 385.369 116.54C382.961 113.537 379.92 112.07 376.069 112.124C374.534 112.148 372.975 112.07 371.47 111.785C368.946 111.306 367.086 109.924 366.546 107.253C366.06 104.836 367.117 102.343 369.564 101.069C381.502 94.8846 395.309 101.555 398.179 112.31C398.496 113.445 398.558 114.649 398.712 115.683Z" fill="#D1D1D1" fill-opacity="0.02"/>
<path d="M353.218 423.435C350.888 422.493 348.395 421.875 346.327 420.578C341.92 417.822 339.204 413.691 338.046 408.611C336.95 403.809 337.159 398.999 338.301 394.228C338.525 393.286 338.903 392.344 339.389 391.511C340.616 389.411 342.437 388.222 344.945 388.469C347.369 388.708 349.012 390.152 349.653 392.398C350.224 394.398 350.556 396.513 350.633 398.598C350.841 404.087 352.261 409.113 355.788 413.413C356.575 414.379 357.463 415.305 358.451 416.069C360.642 417.768 360.843 419.968 358.512 421.489C357.069 422.423 355.202 422.732 353.218 423.435Z" fill="#D1D1D1" fill-opacity="0.02"/>
<path d="M379.257 130.97C379.265 136.884 373.492 142.303 367.172 142.311C361.376 142.311 356.553 137.671 356.529 132.066C356.506 125.403 362.001 119.598 368.267 119.644C374.156 119.675 379.249 124.932 379.257 130.97Z" fill="#D1D1D1" fill-opacity="0.02"/>
<path d="M0.620663 246.383C3.14423 246.599 5.2356 247.417 6.43179 249.71C7.67428 252.08 7.2884 254.482 5.5983 256.373C4.18603 257.956 2.45735 259.438 0.582037 260.38C-4.7352 263.036 -10.1991 265.398 -15.6166 267.861C-17.1138 268.54 -18.6109 268.61 -19.9769 267.545C-21.4586 266.394 -21.9911 264.757 -21.4818 263.044C-21.0573 261.608 -20.4091 260.102 -19.4367 258.99C-14.9993 253.91 -9.5894 250.089 -3.41553 247.386C-2.16533 246.846 -0.729872 246.707 0.620663 246.383Z" fill="#D1D1D1" fill-opacity="0.02"/>
<path d="M82.0463 165.364C80.1401 165.016 76.6519 164.584 73.2949 163.673C71.4736 163.179 69.6677 162.113 68.2169 160.886C64.8135 157.998 65.1917 153.266 69.0118 150.973C70.5089 150.077 72.3919 149.537 74.1438 149.413C78.4886 149.112 82.5943 150.316 86.4761 152.254C86.8466 152.44 87.2092 152.671 87.5488 152.911C90.6049 155.003 91.9168 158.106 90.983 160.994C90.0647 163.835 87.379 165.441 82.0463 165.364Z" fill="#D1D1D1" fill-opacity="0.02"/>
<path d="M284.488 50.6156C284.002 50.6156 283.508 50.6465 283.022 50.6079C280.205 50.4072 278.183 48.7164 277.82 46.269C277.458 43.8371 278.854 41.4824 281.532 40.6254C283.655 39.946 285.885 39.5986 288.084 39.2048C292.082 38.4868 296.087 37.8229 300.093 37.1821C301.057 37.0277 302.045 36.9427 303.017 36.9968C305.541 37.1512 307.501 38.6876 308.188 40.9419C308.859 43.1423 308.126 45.6823 306.035 47.0565C304.731 47.9135 303.149 48.616 301.621 48.8168C295.933 49.5657 290.207 50.0829 284.496 50.6851C284.488 50.662 284.488 50.6388 284.488 50.6156Z" fill="#D1D1D1" fill-opacity="0.02"/>
<path d="M173.181 190.687C161.041 190.579 153.416 181.129 156.025 170.491C156.202 169.75 156.457 169.001 156.835 168.344C157.746 166.754 159.143 165.92 161.01 166.09C162.909 166.26 164.128 167.379 164.583 169.155C164.985 170.707 165.131 172.32 165.363 173.911C166.119 179.091 168.164 181.145 173.366 181.747C175.172 181.956 177.016 181.832 178.799 182.118C181.739 182.589 182.596 184.851 180.705 187.159C178.567 189.8 175.581 190.664 173.181 190.687Z" fill="#D1D1D1" fill-opacity="0.02"/>
<path d="M242.274 27.7481C242.298 22.0735 247.221 18.3214 252.731 19.7188C258.08 21.0699 260.919 25.818 261.367 30.705C261.776 35.1288 258.033 38.796 253.573 38.8423C247.769 38.8964 242.251 33.4766 242.274 27.7481Z" fill="#D1D1D1" fill-opacity="0.02"/>
<path d="M36.7147 54.5677C39.8094 54.4751 41.6075 55.61 42.1092 58.6673C42.8577 63.2146 43.3826 67.8237 43.699 72.4174C43.9073 75.4129 41.9085 77.6982 39.3772 78.0378C36.8074 78.3853 34.4227 76.7949 33.8207 73.699C33.1185 70.1398 32.9101 66.4803 32.5088 62.8672C32.3931 61.8249 32.4085 60.7672 32.3004 59.725C31.8914 56.0037 33.0104 54.6758 36.7147 54.5677Z" fill="#D1D1D1" fill-opacity="0.02"/>
<path d="M147.281 191.714C147.551 193.991 147.736 196.284 148.13 198.538C148.469 200.461 149.673 201.627 151.734 201.735C152.012 201.75 152.297 201.812 152.552 201.905C153.563 202.275 154.566 202.661 155.569 203.039C154.867 204.19 154.396 205.633 153.408 206.429C150.213 208.984 145.074 207.988 142.735 204.306C139.216 198.762 138.938 192.694 140.567 186.495C141.038 184.688 142.473 183.723 144.41 183.931C146.355 184.148 147.404 185.46 147.651 187.274C147.844 188.718 147.69 190.208 147.69 191.675C147.559 191.69 147.42 191.698 147.281 191.714Z" fill="#D1D1D1" fill-opacity="0.02"/>
<path d="M186.115 113.282C186.717 111.761 187.404 109.391 188.562 107.276C189.989 104.651 191.672 102.134 193.501 99.7638C195.214 97.5403 197.691 97.1388 199.628 98.3664C201.55 99.5785 202.098 101.918 200.801 104.504C199.019 108.056 197.089 111.545 195.145 115.012C194.643 115.915 193.933 116.733 193.2 117.467C191.857 118.818 190.198 119.335 188.407 118.517C186.586 117.691 186.138 116 186.115 113.282Z" fill="#D1D1D1" fill-opacity="0.02"/>
<path d="M143.068 21.6325C142.581 24.2884 142.033 27.446 141.424 30.5882C141.293 31.2676 141.007 31.9239 140.698 32.5492C139.834 34.2941 138.537 35.5525 136.454 35.3749C134.385 35.1974 133.182 33.7845 132.703 31.9007C131.306 26.3961 132.24 21.0612 134.293 15.904C135.018 14.0742 136.647 13.1555 138.7 13.3485C140.76 13.5415 142.041 14.8077 142.52 16.7146C142.867 18.1197 142.859 19.6175 143.068 21.6325Z" fill="#D1D1D1" fill-opacity="0.02"/>
<path d="M348.38 240.923C348.179 245.973 346.914 250.034 343.781 253.384C343.348 253.84 342.893 254.295 342.376 254.643C341.01 255.569 339.497 256.418 337.923 255.314C336.395 254.241 336.372 252.535 336.843 250.921C337.306 249.316 338.155 247.81 338.571 246.189C339.196 243.764 339.76 241.309 340.03 238.823C340.315 236.198 341.157 234.716 343.086 234.407C345.085 234.091 346.898 235.264 347.678 237.573C348.079 238.823 348.218 240.159 348.38 240.923Z" fill="#D1D1D1" fill-opacity="0.02"/>
<path d="M323.506 114.58C323.545 116.464 322.333 118.208 320.203 118.656C315.689 119.606 311.143 120.455 306.575 121.096C305.633 121.227 304.128 120.494 303.611 119.683C303.094 118.88 303.202 117.39 303.549 116.379C303.866 115.475 304.769 114.657 305.61 114.086C309.422 111.507 313.721 110.287 318.282 110.187C321.284 110.125 323.452 112.109 323.506 114.58Z" fill="#D1D1D1" fill-opacity="0.02"/>
<path d="M76.1888 65.9558C72.608 66.0021 69.166 62.7518 69.1197 59.2853C69.0734 56.035 71.7437 53.4873 75.2396 53.4409C78.9208 53.3946 82.1621 56.5446 82.1775 60.1732C82.1929 63.2999 79.4842 65.9172 76.1888 65.9558Z" fill="#D1D1D1" fill-opacity="0.02"/>
<path d="M329.766 42.7944C329.812 46.2069 326.988 49.0557 323.515 49.0943C320.181 49.1406 317.742 47.1642 317.673 44.3617C317.565 40.2698 320.289 37.0273 323.839 36.9964C327.096 36.9655 329.72 39.5287 329.766 42.7944Z" fill="#F1DDC4"/>
<path d="M-5.91496 181.26C-5.89953 177.941 -3.59973 175.416 -0.582254 175.408C2.5124 175.401 4.86617 177.917 4.80443 181.168C4.74269 184.418 2.35802 186.935 -0.667181 186.919C-3.65379 186.904 -5.9304 184.449 -5.91496 181.26Z" fill="#D1D1D1" fill-opacity="0.02"/>
<path d="M289.573 433.194C288.886 434.143 288.362 435.595 287.459 435.896C286.525 436.197 285.136 435.541 284.117 434.985C283.446 434.622 283.168 433.603 282.558 433.055C281.038 431.688 279.494 430.314 277.812 429.171C276.732 428.438 275.512 427.951 275.728 426.4C275.952 424.786 277.079 424.037 278.607 423.806C283.052 423.134 289.141 428.376 289.573 433.194Z" fill="#D1D1D1" fill-opacity="0.02"/>
<path d="M255.34 157.358C255.41 154.385 257.061 152.409 259.415 152.463C261.977 152.525 264.848 155.551 264.879 158.23C264.902 160.793 263.05 162.855 260.55 163.032C257.787 163.233 255.595 161.287 255.348 158.408C255.317 158.06 255.34 157.705 255.34 157.358Z" fill="#D1D1D1" fill-opacity="0.02"/>
<path d="M157.915 520.876C157.444 521.432 156.781 522.868 155.693 523.354C153.64 524.281 151.371 524.891 149.133 525.215C147.134 525.501 146.054 523.509 147.134 521.594C148.608 518.985 150.869 517.255 153.902 516.861C156.179 516.576 157.931 518.089 157.915 520.876Z" fill="#D1D1D1" fill-opacity="0.02"/>
<path d="M359.609 396.946C360.504 397.464 361.337 397.687 361.731 398.236C362.788 399.687 363.768 401.231 364.571 402.837C365.281 404.258 364.216 405.701 362.487 405.856C360.589 406.025 359.115 405.03 358.397 403.501C357.741 402.096 357.509 400.374 357.548 398.799C357.563 398.197 358.829 397.61 359.609 396.946Z" fill="#D1D1D1" fill-opacity="0.02"/>
<path d="M335.198 39.4745C334.157 40.1771 333.532 40.9337 333.061 40.841C332.42 40.7175 331.911 39.9532 331.34 39.4668C331.849 38.9418 332.335 38.0385 332.883 37.9922C333.47 37.9459 334.11 38.7256 335.198 39.4745Z" fill="#D1D1D1" fill-opacity="0.02"/>
<path d="M22.4996 328.173C17.2132 327.238 12.8298 325.007 9.92805 320.46C8.57752 318.344 8.9711 316.005 10.5995 314.747C12.2818 313.45 14.4813 313.697 16.1868 315.696C18.749 318.692 22.3221 319.757 25.764 321.108C27.1686 321.656 28.9899 321.888 28.9127 323.926C28.8355 325.872 27.3538 326.829 25.7023 327.416C24.6682 327.779 23.5491 327.933 22.4996 328.173Z" fill="#D1D1D1" fill-opacity="0.02"/>
<path d="M136.662 322.305C136.585 325.779 135.906 328.605 133.691 330.836C132.009 332.534 130.357 332.751 128.76 331.067C126.9 329.114 125.202 326.937 123.79 324.636C121.529 320.938 119.568 317.047 117.477 313.241C117.238 312.809 116.975 312.392 116.744 311.967C114.753 308.315 114.923 305.32 117.246 303.073C119.568 300.826 123.497 300.394 126.568 302.61C128.675 304.123 130.627 306.115 132.047 308.284C134.895 312.623 136.385 317.518 136.662 322.305Z" fill="#D1D1D1" fill-opacity="0.02"/>
<path d="M125.078 283.633C116.203 283.633 110.848 278.159 112.005 270.64C112.283 268.856 113.101 266.957 114.228 265.552C117.245 261.777 122.724 262.363 125.179 266.532C125.595 267.25 126.097 268.061 126.12 268.841C126.236 273.357 129.647 274.623 132.973 275.959C134.941 276.747 135.257 277.411 133.992 279.117C131.623 282.298 128.304 283.525 125.078 283.633Z" fill="#D1D1D1" fill-opacity="0.02"/>
<path d="M164.576 291.971C165.803 292.527 166.861 292.921 167.825 293.469C170.318 294.89 171.329 297.507 170.395 299.892C169.5 302.178 166.992 303.583 164.345 302.819C161.335 301.954 158.271 301.004 155.539 299.522C151.194 297.167 150.731 292.604 154.011 288.906C156.319 286.297 158.534 283.595 160.733 280.885C162.508 278.708 165.117 278.082 167.247 279.433C169.33 280.754 170.056 283.525 168.69 285.942C167.509 287.995 166.019 289.871 164.576 291.971Z" fill="#D1D1D1" fill-opacity="0.02"/>
<path d="M145.267 235.28C145.282 240.214 142.002 243.541 137.164 243.503C132.001 243.456 128.096 239.573 128.088 234.462C128.08 229.374 131.584 225.305 135.983 225.282C140.906 225.259 145.244 229.938 145.267 235.28Z" fill="#D1D1D1" fill-opacity="0.02"/>
<path d="M253.218 292.095C249.915 291.74 247.576 289.841 245.562 287.957C244.582 287.038 244.312 284.645 244.675 283.155C245.539 279.58 248.14 277.102 251.389 275.519C254.8 273.867 259.955 276.268 262.116 280.283C263.96 283.718 262.965 287.54 259.345 289.671C257.47 290.775 255.271 291.307 253.218 292.095ZM251.381 284.035C252.315 284.815 252.994 285.672 253.256 285.563C254.507 285.031 255.633 284.228 256.814 283.525C255.996 282.753 255.039 281.248 254.399 281.371C253.388 281.557 252.608 282.861 251.381 284.035Z" fill="#D1D1D1" fill-opacity="0.02"/>
<path d="M248.117 351.736C253.264 351.79 257.3 355.179 257.223 359.379C257.146 363.672 252.963 367.292 248.186 367.2C243.509 367.107 239.404 363.486 239.466 359.51C239.543 355.388 243.648 351.689 248.117 351.736Z" fill="#D1D1D1" fill-opacity="0.02"/>
<path d="M292.274 378.727C288.246 378.511 285.051 377.26 282.419 374.743C280.451 372.859 280.15 370.466 281.555 368.736C282.975 366.999 285.236 366.976 287.59 368.466C289.164 369.47 290.885 370.242 292.56 371.083C293.494 371.554 294.713 371.717 295.353 372.427C296.156 373.322 297.067 374.728 296.889 375.731C296.712 376.743 295.361 377.684 294.335 378.364C293.702 378.796 292.714 378.665 292.274 378.727Z" fill="#D1D1D1" fill-opacity="0.02"/>
<path d="M94.2164 262.804C97.4114 262.781 100.167 265.437 100.221 268.586C100.275 271.806 97.5349 274.323 94.0081 274.3C90.5121 274.276 87.7493 271.906 87.6798 268.88C87.6104 265.738 90.7436 262.827 94.2164 262.804Z" fill="#D1D1D1" fill-opacity="0.02"/>
<path d="M181.724 278.43C181.716 276.793 182.441 275.751 184.155 275.627C185.806 275.511 186.956 276.847 186.971 278.816C186.987 280.499 186.308 281.703 184.525 281.904C182.92 282.081 181.755 280.56 181.724 278.43Z" fill="#D1D1D1" fill-opacity="0.02"/>
</g>
<defs>
<clipPath id="clip0_452_21128">
<rect width="993.169" height="690.562" fill="white" transform="translate(-544)"/>
</clipPath>
</defs>
</svg>
