<svg width="1303" height="792" viewBox="0 0 1303 792" fill="none" xmlns="http://www.w3.org/2000/svg">
<g clip-path="url(#clip0_267_7383)">
<path d="M762.655 -39.5622C764.175 -30.8274 765.561 -22.0686 767.346 -13.3821C767.672 -11.7775 769.336 -10.2091 770.771 -9.12332C774.86 -6.0348 779.358 -3.47712 783.265 -0.207626C786.364 2.38625 787.86 6.16245 787.884 10.3368C787.908 15.7176 785.689 19.9281 780.962 22.5461C776.258 25.14 771.338 24.7539 767.419 21.3638C763.499 17.9736 760.412 13.6183 756.794 9.8542C755.455 8.46678 753.719 6.80187 751.994 6.54852C742.901 5.25761 733.76 3.834 724.607 3.46C686.848 1.93986 649.885 7.64639 613.368 16.7189C600.717 19.8557 588.091 23.1373 575.633 26.9497C539.382 38.049 505.783 54.5654 475.598 77.6207C468.157 83.3152 461.283 89.9024 454.915 96.7913C451.153 100.869 448.355 106.105 446.1 111.245C443.266 117.687 444.882 122.501 450.345 127.025C458.449 133.757 468.085 135.796 478.142 134.24C485.426 133.106 492.723 131.055 499.56 128.292C515.323 121.922 529.456 112.741 542.252 101.521C548.921 95.6693 555.566 89.7818 562.283 83.9787C563.766 82.6999 565.358 81.4452 567.119 80.6369C574.246 77.3794 582.182 82.1932 581.892 90.011C581.747 93.9199 580.324 97.9495 578.757 101.605C570.074 121.91 562.934 142.733 558.074 164.268C556.181 172.665 555.083 181.315 554.456 189.905C553.938 196.903 555.71 197.796 562.343 195.479C570.291 192.692 576.743 187.577 582.616 181.786C592.263 172.291 591.612 176.924 587.21 163.749C584.678 156.185 586.39 150.261 592.263 145.206C597.075 141.068 602.466 138.45 608.966 138.583C620.748 138.812 628.611 148.705 625.452 160.082C624.161 164.739 621.906 169.372 619.096 173.305C608.231 188.506 594.929 201.331 579.263 211.549C572.522 215.953 565.129 219.065 556.953 219.777C545.93 220.73 537.247 215.675 532.58 205.601C528.407 196.601 528.238 187.131 529.565 177.551C532.001 159.949 537.874 143.3 543.928 126.723C544.266 125.794 544.591 124.865 544.869 123.924C544.917 123.756 544.76 123.526 544.616 123.056C543.482 123.84 542.421 124.564 541.359 125.3C525.115 136.435 508.268 146.413 488.984 151.407C475.839 154.81 462.694 154.918 449.911 149.851C445.678 148.174 441.541 145.942 437.827 143.3C425.188 134.276 420.545 121.077 424.308 105.997C426.611 96.7672 431.29 88.7804 437.296 81.5176C448.596 67.8846 462.212 56.8456 476.973 47.2784C514.02 23.2941 553.889 5.98149 597.123 -3.46505C622.28 -8.96648 647.412 -14.5162 673.112 -16.917C696.857 -19.1369 720.591 -19.2575 744.276 -16.1449C745.229 -16.0242 746.194 -16.0001 747.4 -15.9277C746.785 -23.9506 746.182 -31.7685 745.579 -39.5742C751.259 -39.5622 756.963 -39.5622 762.655 -39.5622Z" fill="#D1D1D1" fill-opacity="0.02"/>
<path d="M1026.98 -39.5622C1025.42 -24.1075 1018.66 -10.8847 1009.52 1.32458C1001.56 11.9293 993.201 22.2566 985.784 33.2353C979.73 42.1872 974.496 51.7302 969.479 61.3216C965.415 69.0791 964.016 77.5001 966.561 86.1986C967.14 88.1893 967.767 90.2041 968.659 92.062C971.855 98.7458 976.136 100.99 983.529 100.025C991.971 98.9267 999.677 95.983 1006.27 90.5057C1012 85.7523 1017.63 80.8661 1023.17 75.8955C1023.78 75.3406 1023.82 73.7239 1023.58 72.7346C1021.66 64.8203 1021.75 56.8697 1023.02 48.8951C1023.93 43.2368 1026.73 40.2207 1031.08 39.9673C1035.48 39.714 1039.43 42.5612 1040.73 47.7851C1041.84 52.2249 1042.19 56.8456 1042.84 61.406C1044.67 74.2186 1052.61 83.3514 1064.14 85.6075C1066.46 86.0659 1069.03 86.3193 1071.3 85.8126C1082.74 83.2066 1091.17 76.4867 1096.67 66.1594C1098.39 62.9623 1097.96 59.5601 1096.7 56.2665C1093.63 48.3522 1088.58 41.9941 1081.41 37.4699C1078.45 35.612 1075.21 34.2125 1072.14 32.4994C1068.85 30.6656 1065.82 30.2915 1062.93 33.3318C1061.37 34.9605 1059.93 33.8506 1058.68 32.6562C1054.46 28.6266 1054.48 21.7137 1058.9 16.9361C1064.56 10.8435 1071.79 8.81666 1079.6 10.8194C1084.46 12.0741 1089.46 14.2216 1093.44 17.2377C1105.08 26.0931 1112.88 37.9646 1117.51 51.7785C1120.15 59.6687 1119.71 67.6916 1115.96 75.1596C1108.05 90.8797 1095.7 102.015 1078.85 106.974C1061.9 111.956 1047.38 106.298 1035.19 94.0165C1034.42 93.2443 1033.71 92.4119 1032.96 91.6156C1032.89 91.5432 1032.76 91.5312 1032.27 91.3381C1031.78 92.3033 1031.37 93.4012 1030.72 94.306C1027.7 98.4442 1025.22 103.198 1021.46 106.503C1009 117.446 994.021 122.006 977.644 120.715C965.126 119.726 956.045 112.572 950.208 101.653C942.285 86.826 941.211 71.3713 947.217 55.5909C950.907 45.891 956.153 36.9874 962.557 28.88C971.192 17.9736 980.2 7.36892 989.112 -3.32027C992.055 -6.85518 995.263 -10.1729 998.205 -13.7078C1004.56 -21.3085 1009.12 -29.8381 1011.25 -39.5742C1016.46 -39.5622 1021.72 -39.5622 1026.98 -39.5622Z" fill="#D1D1D1" fill-opacity="0.02"/>
<path d="M-125 305.073C-121.623 305.278 -118.186 305.182 -114.87 305.761C-106.838 307.16 -101.52 312.65 -101.315 320.793C-101.17 326.403 -101.918 332.206 -103.341 337.635C-106.416 349.386 -110.227 360.944 -113.616 372.623C-114.448 375.506 -114.822 378.522 -115.581 382.383C-112.94 381.562 -111.095 381.285 -109.552 380.44C-104.076 377.461 -98.6857 374.324 -93.295 371.199C-89.7012 369.112 -86.3125 366.602 -82.5619 364.865C-74.8799 361.294 -68.4038 365.106 -67.4511 373.552C-67.1496 376.266 -67.5837 379.089 -67.0893 381.743C-65.9316 387.945 -64.7979 394.194 -62.9166 400.19C-61.4574 404.835 -57.6345 406.862 -52.5694 406.427C-42.2583 405.535 -32.4297 403.025 -23.6864 397.391C-11.0237 389.211 -5.46418 377.436 -6.82693 362.392C-7.55051 354.369 -11.277 348.252 -18.3681 344.392C-21.8654 342.497 -25.5556 340.953 -29.8851 338.914C-29.8851 341.134 -29.8248 342.304 -29.8971 343.475C-30.5122 353.09 -31.0669 362.718 -31.8267 372.333C-32.0197 374.698 -32.5865 377.135 -33.5151 379.306C-34.914 382.6 -37.5912 384.434 -41.3298 384.18C-45.02 383.927 -47.5767 381.864 -48.5656 378.45C-49.2409 376.097 -49.3253 373.491 -49.2289 371.006C-48.6982 356.685 -47.9746 342.365 -47.4681 328.032C-47.2872 322.965 -44.5376 318.718 -39.5329 317.729C-36.6144 317.15 -33.3342 317.065 -30.476 317.765C-19.5379 320.456 -9.76949 325.547 -1.76185 333.582C8.48891 343.873 10.6597 356.697 8.83864 370.403C5.98048 391.938 -6.16364 406.596 -25.6883 415.416C-34.4437 419.361 -43.7055 421.568 -53.2447 422.606C-62.9407 423.656 -70.6107 420.193 -76.3029 412.291C-81.163 405.547 -83.7076 397.934 -84.7326 389.754C-84.8653 388.705 -85.0221 387.655 -85.215 386.195C-97.6848 393.723 -109.069 403.628 -125 400.443C-125 379.837 -125 359.231 -125 338.625C-123.203 333.787 -121.418 328.949 -119.392 323.496C-122.021 323.496 -123.517 323.496 -125 323.496C-125 317.355 -125 311.214 -125 305.073Z" fill="#D1D1D1" fill-opacity="0.02"/>
<path d="M880.358 -39.5625C876.595 -32.8908 872.591 -26.3398 869.154 -19.5112C866.803 -14.8423 864.994 -9.8596 863.378 -4.87694C862.123 -1.01629 863.016 0.515903 866.839 1.46901C879.634 4.65404 892.044 3.44759 903.85 -2.51229C904.803 -2.99488 905.478 -4.47881 905.816 -5.62495C906.805 -9.09953 907.408 -12.6827 908.421 -16.1452C910.013 -21.5743 913.655 -24.3129 918.37 -23.9027C922.808 -23.5287 926.51 -20.1748 926.667 -14.794C926.848 -8.27914 926.233 -1.67984 925.425 4.81088C924.243 14.2574 922.591 23.6557 921.12 33.066C920.854 34.7913 920.565 36.5286 920.131 38.2297C918.816 43.345 916.067 46.144 912.014 46.5904C907.878 47.0489 903.09 44.6721 901.559 40.16C900.196 36.1425 900.099 31.6666 899.665 27.3595C899.496 25.6825 899.931 23.9452 900.075 22.2683C892.984 23.3058 886.219 24.7656 879.393 25.1396C872.989 25.4895 866.405 25.3447 860.122 24.2227C842.599 21.098 833.578 5.96908 838.559 -11.1505C841.188 -20.1868 845.819 -28.258 851.089 -35.9914C851.885 -37.1617 852.62 -38.3681 853.392 -39.5625C862.377 -39.5625 871.373 -39.5625 880.358 -39.5625Z" fill="#D1D1D1" fill-opacity="0.02"/>
<path d="M1315.64 -39.5622C1314.78 -37.5232 1314.35 -35.1586 1313.02 -33.4937C1303.56 -21.586 1297.94 -7.61525 1291.63 5.98149C1291.41 6.452 1291.42 7.01904 1291.22 8.21342C1297.78 7.26033 1304.05 6.53646 1310.25 5.40239C1315.52 4.43723 1320.69 2.92916 1325.93 1.79509C1328.03 1.33664 1329.08 0.383545 1329.42 -1.83633C1329.82 -4.2975 1330.55 -6.75867 1331.47 -9.08712C1333.28 -13.6113 1337 -15.6864 1341.01 -14.7092C1344.84 -13.7802 1347.2 -10.3418 1346.94 -5.61253C1346.65 -0.581619 1345.95 4.42516 1345.72 9.45608C1345.58 12.3878 1345.84 15.3677 1346.24 18.2753C1346.73 21.9067 1348.93 24.1507 1352.6 24.8625C1353.88 25.1159 1355.17 25.4657 1356.38 25.9724C1359.74 27.396 1361.53 30.4122 1361.13 33.8023C1360.76 36.9753 1358.37 39.4244 1354.92 40.1724C1346.45 42.0183 1335.68 36.5168 1331.46 27.9028C1329.94 24.8022 1329.09 21.3879 1327.98 18.2511C1319.37 20.1453 1310.76 22.1238 1302.1 23.8973C1297.92 24.7539 1293.68 25.4175 1289.43 25.8156C1286.75 26.0689 1283.94 25.9604 1281.27 25.5019C1275.04 24.4282 1271.27 19.7471 1271.5 13.4253C1271.59 11.0486 1271.9 8.53917 1272.78 6.35549C1279.33 -9.9437 1286.72 -25.7965 1297.89 -39.5742C1303.8 -39.5622 1309.72 -39.5622 1315.64 -39.5622Z" fill="#D1D1D1" fill-opacity="0.02"/>
<path d="M597.618 -39.5622C579.143 -26.8703 561.198 -13.2735 540.949 -3.45298C534.136 -0.147297 526.659 1.93987 519.314 3.97878C514.852 5.22142 510.475 3.96671 507.797 -0.292076C505.096 -4.56292 506.025 -9.0268 509.003 -12.5255C513.164 -17.4117 517.795 -21.9479 522.595 -26.2067C525.899 -29.1505 529.987 -28.873 532.447 -26.3997C534.835 -23.9989 534.751 -20.657 532.23 -16.8205C532.061 -16.5551 531.905 -16.2776 531.651 -15.8433C532.037 -15.795 532.339 -15.6502 532.544 -15.7347C548.426 -22.334 563.851 -29.8381 578.479 -38.9227C578.745 -39.0916 578.962 -39.3571 579.203 -39.5742C585.341 -39.5622 591.48 -39.5622 597.618 -39.5622Z" fill="#D1D1D1" fill-opacity="0.02"/>
<path d="M1058.54 -39.5625C1061.82 -31.4913 1061.72 -23.2995 1058.91 -15.1921C1054.95 -3.71875 1047.07 4.29211 1036.07 9.25063C1034.52 9.95038 1032.73 10.3968 1031.03 10.5053C1024.62 10.8793 1020.25 5.4865 1022 -0.702614C1022.52 -2.54849 1023.54 -4.33404 1024.65 -5.91449C1026.04 -7.86895 1027.59 -9.76308 1029.38 -11.3556C1036.72 -17.9066 1041.37 -25.7365 1041.72 -35.8104C1041.76 -37.0651 1042.39 -38.3078 1042.75 -39.5625C1048.02 -39.5625 1053.28 -39.5625 1058.54 -39.5625Z" fill="#D1D1D1" fill-opacity="0.02"/>
<path d="M454.939 -39.5625C456.362 -24.4215 457.677 -9.2805 459.256 5.83637C459.896 11.9772 456.941 17.1167 451.586 18.1663C446.135 19.2401 440.914 15.4759 439.913 9.22651C437.332 -6.92792 436.765 -23.2271 437.187 -39.5625C443.096 -39.5625 449.018 -39.5625 454.939 -39.5625Z" fill="#D1D1D1" fill-opacity="0.02"/>
<path d="M1346.95 600.8C1349 598.375 1350.77 596.867 1351.78 594.948C1353.74 591.293 1355.26 587.408 1356.97 583.62C1360.31 576.236 1367.87 573.075 1374.58 576.393C1379.87 579.011 1382.2 583.656 1382.09 589.29C1381.94 597.168 1381.52 605.059 1380.85 612.913C1378.82 636.306 1375.57 659.518 1369.67 682.296C1368.59 686.422 1367.35 690.536 1365.81 694.517C1359.57 710.647 1347.43 717.922 1330.17 716.016C1315.09 714.351 1302.1 707.848 1290.41 698.498C1279.65 689.896 1270.51 679.714 1261.81 669.097C1252 657.153 1242.18 645.221 1232.07 633.555C1223.63 623.819 1213.84 615.531 1202.85 608.75C1189.19 600.341 1174.55 594.743 1158.42 593.911C1132.36 592.584 1108.65 608.135 1098.99 632.373C1088.38 659.011 1108.47 685.794 1132.04 688.014C1138.45 688.618 1144.5 687.327 1149.78 683.418C1155.16 679.436 1155.79 674.514 1151 669.797C1147.95 666.781 1144.13 664.561 1139.74 661.303C1139.91 665.912 1137.81 665.816 1135.46 665.019C1132.98 664.187 1130.37 663.559 1128.12 662.293C1119.44 657.37 1119.54 646.561 1128.27 641.638C1133.08 638.924 1138.25 638.755 1143.6 639.708C1160.09 642.652 1173.98 658.71 1173.75 674.804C1173.63 683.309 1169.97 690.282 1163.76 695.868C1151.8 706.606 1137.48 710.237 1121.91 708.066C1078.86 702.045 1054.89 659.12 1072.38 619.283C1083.56 593.814 1103.97 579.265 1130.46 572.75C1155.75 566.536 1179.61 571.242 1202.36 583.029C1217.12 590.665 1229.94 600.945 1241.1 613.166C1252.85 626.027 1264.16 639.286 1275.49 652.52C1283.57 661.943 1292.09 670.907 1301.94 678.507C1309.6 684.407 1318 688.738 1327.57 690.62C1328 690.705 1328.42 690.801 1328.86 690.874C1337.35 692.152 1339.93 691.043 1341.56 682.742C1345.21 664.042 1348.19 645.221 1351.43 626.437C1351.51 626.039 1351.35 625.604 1351.31 625.279C1348.14 625.279 1345.08 625.641 1342.12 625.218C1329.16 623.348 1321.54 615.241 1317.71 603.249C1314.7 593.766 1315.59 584.163 1317.99 574.68C1321.69 559.961 1328.51 546.63 1336.2 533.661C1339.77 527.652 1342.98 521.403 1346.07 515.117C1347.43 512.355 1347.38 509.387 1344.6 507.167C1338.4 511.245 1334.43 509.387 1333.28 502.003C1332.14 494.668 1337.26 489.142 1344.78 489.613C1354.21 490.204 1362.79 498.396 1365.04 508.856C1366.32 514.816 1365.74 520.703 1363.84 526.374C1361.27 534.059 1358.34 541.623 1355.46 549.2C1350.93 561.095 1346.69 573.087 1345.16 585.816C1344.78 589.037 1345.05 592.367 1345.3 595.636C1345.36 596.999 1346.13 598.375 1346.95 600.8Z" fill="#F1DDC4"/>
<path d="M713.077 874.061C706.698 875.521 700.668 877.101 694.578 878.272C672.122 882.579 649.522 885.124 626.609 883.387C616.515 882.627 606.566 880.95 597.147 877.114C585.823 872.493 577.779 864.808 575.584 852.224C574.439 845.649 575.741 839.351 578.31 833.295C583.351 821.436 591.503 811.929 600.922 803.363C601.79 802.567 602.658 801.77 604.311 800.262C600.62 800.709 597.895 801.228 595.169 801.324C587.089 801.602 578.925 802.555 570.954 801.71C559.051 800.455 553.419 790.14 557.772 778.993C561.173 770.27 566.54 762.645 573.414 756.48C580.722 749.941 588.344 743.426 596.797 738.564C610.148 730.879 624.04 723.966 638.186 717.849C657.88 709.32 678.02 701.828 697.978 693.913C700.016 693.105 702.079 692.333 704.177 691.73C713.427 689.051 720.916 693.962 720.952 703.541C721 715.28 715.911 725.136 707.554 733.244C706.396 734.366 704.491 735.066 702.851 735.271C698.738 735.777 696.736 732.689 698.123 728.804C699.908 723.785 701.391 718.67 703.068 713.386C702.151 713.265 701.813 713.108 701.584 713.205C671.326 725.438 640.634 736.682 612.596 753.79C601.573 760.51 591.226 767.966 583.218 778.269C582.434 779.27 581.735 780.332 580.758 781.683C584.159 781.683 587.065 781.876 589.948 781.647C609.376 780.09 628.804 778.438 648.232 776.821C653.743 776.363 658.025 778.92 659.448 783.444C660.919 788.113 658.869 792.782 653.852 795.473C647.279 798.984 640.586 802.265 633.966 805.679C622.412 811.639 612.379 819.541 604.455 829.881C601.489 833.754 598.968 838.097 596.954 842.549C594.144 848.774 595.724 854.094 602.068 856.809C608.93 859.741 616.286 862.226 623.654 863.155C653.466 866.943 682.626 862.672 711.377 854.673C713.222 854.155 714.211 853.274 714.175 851.283C714.15 850.089 714.416 848.895 714.512 847.688C714.621 846.277 714.693 844.865 714.802 843.043C713.005 842.898 711.304 842.862 709.628 842.621C702.067 841.523 694.324 841.053 687.016 839.014C681.794 837.566 676.657 834.646 672.376 831.256C662.27 823.269 660.835 811.157 668.71 800.95C678.803 787.86 692.286 779.451 708.084 774.939C724.172 770.354 740.079 770.354 755.479 778.015C779.056 789.742 785.749 815.476 770.53 836.939C761.738 849.341 750.33 858.787 736.557 865.242C734.182 866.352 733.253 867.595 733.096 870.333C731.118 904.572 728.924 938.799 726.873 973.027C726.524 978.806 726.608 984.621 726.5 990.424C726.488 990.858 726.548 991.304 726.56 991.739C726.68 996.842 724.763 1000.22 721.181 1001.21C717.624 1002.19 713.33 1000.15 711.039 996.154C708.109 991.039 707.421 985.32 707.554 979.614C707.795 969.323 708.386 959.032 708.965 948.753C710.303 924.793 711.726 900.832 713.101 876.872C713.113 876.028 713.077 875.171 713.077 874.061ZM733.977 845.408C743.371 839.472 750.921 832.909 756.191 824.054C761.304 815.44 759.109 805.788 750.836 800.106C749.039 798.875 747.073 797.874 745.084 796.957C728.104 789.115 702.199 794.254 686.172 812.025C684.508 813.871 684.64 815.536 686.763 816.513C690.61 818.275 694.481 820.35 698.569 821.122C705.853 822.497 713.318 822.895 720.687 823.909C728.453 824.971 733.241 830.074 733.94 837.904C734.145 840.148 733.977 842.428 733.977 845.408Z" fill="#D1D1D1" fill-opacity="0.02"/>
<path d="M913.414 206.289C914.933 202.476 916.356 198.58 918.008 194.779C925.099 178.504 932.203 162.229 939.438 146.026C940.536 143.565 942.043 141.14 943.888 139.198C947.748 135.108 952.608 133.757 957.998 135.723C963.244 137.642 966.259 141.683 966.476 147.161C966.621 150.804 966.066 154.628 965.005 158.139C963.172 164.208 960.881 170.156 958.493 176.043C951.908 192.294 945.227 208.509 938.45 224.675C936.846 228.5 935.193 232.433 932.794 235.763C925.895 245.366 913.076 243.749 908.119 233.06C906.479 229.537 904.043 226.388 901.957 223.083C901.897 222.986 901.812 222.914 901.752 222.829C882.468 197.373 858.011 178.468 829.876 163.496C787.414 140.899 745.506 117.289 703.345 94.1127C702.598 93.7025 701.802 93.3889 700.343 92.7133C693.734 125.022 685.34 156.667 684.4 190.376C686.148 189.555 687.306 189.109 688.379 188.494C696.303 183.861 703.261 178.07 709.158 171.024C711.836 167.827 714.368 164.509 717.214 161.481C719.445 159.104 721.845 156.74 724.546 154.954C733.386 149.103 743.07 151.986 747.424 161.674C748.63 164.353 749.353 167.26 750.149 170.107C751.295 174.221 752.175 178.42 753.405 182.498C754.286 185.417 755.371 188.325 756.722 191.063C762.293 202.416 770.06 204.757 781.275 198.749C783.651 197.482 784.592 195.744 783.41 193.416C781.782 190.219 780.142 186.913 777.899 184.15C774.1 179.493 769.794 175.235 765.73 170.783C764.175 169.082 762.595 167.405 761.22 165.571C759.037 162.639 758.41 159.37 760.05 155.98C761.751 152.457 764.862 150.804 768.576 150.852C771.037 150.888 773.654 151.359 775.897 152.336C792.334 159.503 802.211 172.074 805.009 189.724C806.733 200.582 802.525 209.305 793.106 215.205C785.725 219.837 777.609 222.335 768.926 222.89C757.988 223.589 749.064 219.451 741.828 211.344C735.629 204.407 731.927 196.167 729.189 187.396C728.84 186.286 728.454 185.2 727.899 183.559C726.681 184.874 725.813 185.791 724.969 186.744C715.61 197.277 704.744 205.842 691.973 211.851C688.826 213.335 685.473 214.553 682.072 215.277C673.425 217.111 665.804 213.021 663.042 204.636C661.559 200.136 660.931 195.214 660.751 190.46C660.075 172.291 662.33 154.315 665.671 136.532C669.53 115.974 674.137 95.5484 678.346 75.0508C681.771 58.4258 693.854 55.3856 706.131 62.383C727.356 74.4717 748.594 86.5845 769.324 99.5177C797.122 116.854 824.341 135.096 851.969 152.71C870.795 164.714 887.075 179.566 902.246 195.805C905.659 199.448 909.542 202.669 913.414 206.289Z" fill="#D1D1D1" fill-opacity="0.02"/>
<path d="M106.184 206.445C109.766 195.889 113.336 185.332 116.918 174.776C117.448 173.219 117.822 171.591 118.546 170.143C120.113 166.994 123.201 165.402 126.36 165.872C129.616 166.355 132.511 168.623 132.668 172.085C132.861 176.392 132.668 180.892 131.642 185.055C129.58 193.452 126.927 201.704 124.37 209.98C120.005 224.12 115.76 238.296 111.02 252.303C108.826 258.805 105.823 265.079 102.711 271.208C99.7687 276.999 94.7277 280.63 88.6376 282.91C82.463 285.227 76.807 284.406 72.2243 279.822C68.932 276.528 65.9653 272.74 63.5654 268.759C60.2973 263.329 57.5597 257.563 54.8583 251.808C46.8989 234.893 34.9478 221.236 20.8017 209.304C16.7376 205.866 12.2635 203.731 6.82453 203.55C4.71408 203.477 2.43479 202.826 0.577598 201.812C-5.99494 198.217 -6.22408 188.807 0.408762 185.477C4.20757 183.571 6.24566 180.712 7.9099 177.249C13.7106 165.16 16.7617 152.275 18.5707 139.089C20.0299 128.424 20.5123 117.71 19.029 106.973C18.1848 100.856 16.0261 95.3428 12.1067 90.5291C11.2143 89.4312 10.346 88.2851 9.62238 87.0665C7.40339 83.3145 7.58429 79.2125 9.99623 76.305C12.3358 73.4939 16.219 72.4564 20.1987 73.9403C22.9484 74.9779 25.6618 76.2567 28.1823 77.7648C38.7827 84.0745 48.9009 82.9043 58.633 75.943C67.2437 69.7901 73.5026 61.7431 77.1085 51.7657C82.0289 38.181 77.41 24.5963 65.3382 16.6941C51.9037 7.91106 31.9328 9.25023 19.6078 19.7705C12.3961 25.9234 13.0232 35.1166 21.0912 40.1113C22.8398 41.1971 24.8176 41.9693 26.7713 42.6208C30.0515 43.7066 33.3921 44.5631 37.2874 45.6972C37.2874 44.72 37.4924 43.4894 37.2512 42.3553C36.3708 38.1086 37.625 34.3807 40.5314 31.5093C41.7856 30.2667 44.3543 29.4342 46.0065 29.8203C47.4899 30.1701 49.0335 32.2573 49.6003 33.9102C50.2395 35.7802 50.1189 38.0483 49.8294 40.0751C48.7803 47.4345 46.3201 54.3234 42.3404 60.6211C41.2429 62.3584 39.8922 63.9991 38.4089 65.4348C36.1417 67.6306 33.38 68.5595 30.2565 67.4013C27.0245 66.1949 25.4688 63.6372 25.1553 60.3556C24.9503 58.1961 25.1191 56.0003 25.1191 53.503C24.2267 53.3823 23.286 53.2617 22.3574 53.1169C12.8303 51.6088 5.44973 46.9881 1.63886 37.8914C-2.12377 28.9034 -1.02634 20.2893 4.9191 12.4594C6.10095 10.9031 7.45163 9.41913 8.8988 8.09203C28.532 -9.7273 61.7083 -9.40156 80.7505 8.88829C91.7369 19.4448 95.6925 32.5831 93.9439 47.519C91.4957 68.4389 71.6937 91.265 51.3972 96.1149C45.9703 97.4179 40.1937 97.2852 34.2242 97.8522C34.4051 99.2758 34.7669 101.17 34.8875 103.076C36.6964 131.175 33.995 158.67 23.9131 185.175C23.2619 186.901 23.3825 187.685 24.9865 188.891C29.6053 192.366 34.3568 195.804 38.3727 199.93C50.9631 212.888 61.4309 227.438 70.0415 243.351C73.37 249.504 77.1688 255.403 81.0882 261.206C83.2228 264.367 84.5855 264.307 86.1412 260.76C89.5903 252.966 92.7499 245.028 95.6443 237.005C98.5266 229.03 98.3698 228.897 91.8213 223.529C78.9174 212.936 73.7438 199.122 74.9377 182.75C75.6131 173.485 78.3386 164.666 81.9083 156.148C83.5966 152.119 85.4056 148.077 87.6607 144.337C102.494 119.689 118.244 95.7168 138.83 75.3519C154.459 59.8972 168.931 43.4894 180.713 24.8617C181.244 24.0293 181.775 23.1968 182.269 22.3523C182.426 22.0869 182.45 21.737 182.583 21.2786C182.088 21.0614 181.618 20.796 181.123 20.6512C175.118 19.0346 171.91 14.8482 171.005 8.97274C169.727 0.648209 170.957 -7.35058 174.599 -15.0236C178.941 -24.1806 186.852 -28.5239 195.981 -30.9126C203.072 -32.7706 209.343 -29.0547 212.274 -21.9366C214.975 -15.3976 214.782 -8.66562 213.275 -1.89741C210.971 8.40571 206.135 17.6351 200.733 26.5629C188.106 47.4345 174.056 67.2566 156.896 84.714C138.372 103.559 124.298 125.625 110.912 148.173C104.773 158.513 100.215 169.528 98.2853 181.496C97.405 186.985 97.2362 192.499 99.3345 197.71C100.637 200.944 102.772 203.839 104.532 206.892C105.099 206.699 105.642 206.566 106.184 206.445Z" fill="#D1D1D1" fill-opacity="0.02"/>
<path d="M839.452 691.162C870.312 690.679 898.93 701.622 928.211 709.234C945.01 713.602 961.954 715.761 979.296 714.205C997.868 712.54 1014.93 697.628 1019.01 679.411C1019.33 677.975 1019.13 676.383 1019.02 674.875C1018.68 670.447 1022.08 667.793 1026.23 669.349C1029.9 670.724 1032.13 673.692 1032.17 677.324C1032.21 681.715 1031.91 686.384 1030.45 690.474C1021.57 715.544 999.001 731.88 972.434 733.303C956.177 734.172 940.343 731.771 924.533 728.441C902.741 723.869 880.744 720.442 858.518 719.236C836.268 718.03 815.079 722.156 796.097 734.558C793.396 736.319 791.14 738.817 788.825 741.121C786.763 743.172 787.149 744.933 789.838 746.2C790.694 746.61 791.418 747.31 792.19 747.853C790.212 751.352 785.569 753.33 781.119 752.691C773.051 751.533 767.214 745.368 766.551 737.224C765.863 728.743 769.3 721.806 774.992 715.894C782.108 708.499 790.767 703.323 800.354 699.872C806.625 697.616 813.161 696.12 819.589 694.311C820.94 693.937 822.327 693.695 824.172 693.285C823.521 690.257 823.147 687.446 822.315 684.78C819.481 675.683 816.924 666.466 813.475 657.598C808.036 643.603 800.475 630.755 789.729 620.102C778.128 608.616 763.379 604.466 747.701 604.418C731.867 604.369 716.515 616.012 711.727 629.428C708.314 638.983 711.064 645.136 720.676 650.528C724.281 652.555 729.057 652.628 733.35 653.243C736.04 653.629 737.306 651.735 737.559 649.25C737.812 646.849 738.234 644.315 734.906 643.434C733.652 643.097 732.434 642.505 731.3 641.866C726.03 638.862 724.679 633.168 727.972 628.076C732.542 621.019 743.372 619.51 750.777 624.964C756.059 628.86 758.615 634.338 759.218 640.696C759.858 647.392 758.603 653.846 755.444 659.782C752.188 665.874 747.207 670.278 740.369 671.509C724.342 674.404 709.665 671.846 697.545 659.842C686.92 649.334 684.424 636.666 687.451 622.599C694.518 589.808 727.755 568.453 761.751 574.896C790.176 580.277 811.135 595.611 824.329 621.658C831.697 636.208 835.532 651.518 836.967 667.612C837.643 675.393 838.583 683.091 839.452 691.162Z" fill="#D1D1D1" fill-opacity="0.02"/>
<path d="M314.745 193.357C323.379 201.416 329.023 211.212 334.993 220.791C340.263 229.237 339.358 235.45 331.23 241.229C302.564 261.594 273.79 281.802 245.003 302.01C238.189 306.787 231.315 311.505 224.248 315.92C218.966 319.214 213.539 322.387 207.835 324.836C200.008 328.202 192.929 323.123 193.991 314.654C194.57 310.057 196.692 305.436 198.971 301.31C210.44 280.583 225.056 262.1 240.445 244.233C246.45 237.26 252.842 230.624 259.053 223.832C259.559 223.277 260.042 222.71 260.717 221.938C259.788 221.455 259.065 221.045 258.317 220.683C249.055 216.171 239.685 211.9 230.568 207.11C216.193 199.558 215.264 187.626 228.156 177.673C237.442 170.506 247.861 165.427 258.896 161.579C277.721 155.028 296.571 148.513 315.396 141.974C316.686 141.527 317.94 140.924 320.015 140.056C318.085 139.199 316.939 138.68 315.794 138.173C300.273 131.248 287.502 121.09 278.855 106.263C273.826 97.6487 271.679 88.3831 274.031 78.454C275.225 73.411 277.697 69.0678 281.894 65.8827C285.078 63.4698 288.635 62.6253 292.386 64.3385C296.185 66.0758 298.078 69.4297 297.752 73.3869C296.522 88.2504 304.397 98.0468 315.516 106.058C328.034 115.07 341.951 120.607 357.339 122.248C362.429 122.791 367.313 122.236 372.149 120.233C374.356 119.317 377.105 118.979 379.469 119.329C383.533 119.92 386.994 121.971 388.224 126.29C389.454 130.609 387.718 134.156 384.462 136.798C378.589 141.552 372.414 145.943 366.517 150.66C356.001 159.069 345.545 167.551 335.15 176.104C328.396 181.63 321.787 187.373 314.745 193.357ZM319.641 230.286C313.587 223.602 308.051 217.438 302.444 211.333C299.26 207.87 295.678 204.746 292.748 201.09C287.405 194.418 288.623 188.181 295.328 182.957C305.953 174.681 316.385 166.139 326.877 157.706C327.697 157.054 328.408 156.258 329.168 155.534C300.9 165.982 273.199 177.48 246.306 191.619C254.651 196.373 262.972 200.451 271.39 204.335C275.165 206.073 279.229 207.195 282.943 209.041C289.914 212.503 291.807 220.068 287.514 226.546C286.489 228.09 285.271 229.55 283.908 230.793C265.999 247.189 251.491 266.42 237.611 286.181C237.116 286.881 236.73 287.665 235.946 289.004C263.937 269.363 291.264 250.193 319.641 230.286Z" fill="#D1D1D1" fill-opacity="0.02"/>
<path d="M87.4561 426.551C87.0581 428.88 86.6722 430.69 86.4551 432.511C83.6573 455.579 88.6621 476.04 106.221 492.436C113.264 499.011 120.078 505.852 126.891 512.668C136.069 521.849 132.981 533.443 120.415 536.689C108.199 539.849 95.7894 539.21 83.5367 537.099C75.4808 535.711 67.6058 533.238 59.6826 531.115C57.8254 530.62 56.5953 530.391 56.0044 532.707C52.29 547.366 48.4912 562.024 48.0812 577.262C47.8762 584.669 48.2017 584.79 55.5099 584.5C69.4148 583.957 83.3317 583.801 97.2003 582.896C104.472 582.413 111.636 580.459 118.896 579.566C124.938 578.818 131.148 577.744 137.094 578.408C147.501 579.566 153.567 586.008 154.327 596.444C155.063 606.361 154.653 616.363 154.906 626.316C155.195 637.584 155.714 648.853 156.016 660.121C156.112 663.608 156.208 667.167 155.63 670.569C154.954 674.562 152.687 677.735 148.333 678.495C144.101 679.231 140.965 677.047 139.084 673.609C137.432 670.581 136.226 667.203 135.442 663.837C132.692 652.038 131.727 640.046 132.017 627.933C132.222 619.282 132.234 610.62 132.427 601.97C132.487 599.34 131.884 598.326 128.869 598.761C104.714 602.259 80.5338 605.589 56.3541 608.931C53.5442 609.317 50.6861 609.583 47.84 609.583C35.2376 609.595 26.0722 602.838 22.3457 590.798C19.7167 582.341 19.8494 573.691 21.0433 565.064C23.0211 550.768 26.7717 536.93 32.5603 523.719C34.2245 519.931 36.3109 516.251 38.6866 512.873C43.7638 505.659 50.0951 503.728 58.549 506.346C65.7607 508.59 72.888 511.136 80.1841 513.03C84.7909 514.224 89.651 514.454 94.4025 515.117C94.5593 514.84 94.7161 514.562 94.8728 514.285C94.1492 513.464 93.4257 512.644 92.7141 511.811C87.0943 505.248 80.8715 499.095 75.9873 492.026C61.2021 470.623 59.6344 446.772 64.5306 422.039C65.5436 416.9 67.0028 411.784 68.9083 406.91C73.2136 395.92 83.8623 392.988 92.3162 401.168C112.408 420.579 137.359 431.1 162.612 441.258C165.76 442.525 168.98 443.671 171.934 445.312C175.878 447.495 177.566 451.211 176.698 454.565C175.842 457.859 172.477 460.441 168.003 460.224C163.565 460.006 158.982 459.5 154.773 458.16C131.824 450.873 109.767 441.572 89.7595 427.915C89.2168 427.565 88.65 427.263 87.4561 426.551Z" fill="#D1D1D1" fill-opacity="0.02"/>
<path d="M1233.96 464.651C1231.81 464.205 1230.51 464.108 1229.35 463.662C1220.27 460.079 1215.2 453.25 1213.81 443.719C1211.1 425.164 1220.02 409.179 1237.19 401.65C1244.81 398.308 1252.8 396.354 1261.14 396.74C1273.99 397.331 1284.91 402.555 1292.69 412.713C1303.71 427.118 1310.01 443.659 1311.27 461.816C1312.14 474.243 1307.91 485.33 1300.76 495.356C1285.68 516.481 1264.56 527.664 1239.51 531.959C1223.49 534.698 1207.72 532.888 1192.68 526.832C1166.93 516.481 1152.27 497.684 1150.48 469.501C1149.25 450.065 1153.22 431.667 1162.4 414.632C1167.43 405.318 1173.82 396.74 1179.61 387.836C1187.27 376.098 1195.44 364.672 1202.47 352.572C1211.65 336.791 1215.76 319.262 1217.31 301.165C1217.53 298.45 1217.04 295.518 1216.24 292.888C1215.15 289.245 1215.45 286.072 1217.9 283.78C1220.31 281.512 1224.43 280.691 1227.32 282.839C1229.93 284.793 1232.78 287.375 1233.83 290.295C1235.72 295.567 1237.23 301.273 1237.36 306.835C1237.75 323.255 1234.2 339.047 1227.86 354.2C1220.89 370.849 1212.06 386.461 1201.81 401.3C1194.44 411.965 1187.88 423.101 1183.03 435.166C1177.54 448.811 1175.57 462.805 1178.94 477.343C1182.22 491.495 1191.03 500.652 1204.37 505.61C1214.17 509.254 1224.31 509.543 1234.5 507.517C1245.21 505.381 1255.43 501.798 1265 496.514C1273.21 491.99 1279.88 485.752 1284.98 477.862C1289.68 470.611 1291.18 462.757 1289.45 454.276C1287.69 445.698 1284.56 437.663 1279.8 430.328C1272.43 418.999 1262.07 415.923 1249.64 421.183C1235.27 427.263 1228.03 439.834 1230.74 454.203C1231.13 456.218 1232.04 458.136 1232.67 460.115C1233.07 461.321 1233.37 462.552 1233.96 464.651Z" fill="#D1D1D1" fill-opacity="0.02"/>
<path d="M629.889 551.021C631.976 553.543 634.122 555.521 635.521 557.934C639.115 564.159 643.179 570.288 645.579 576.984C649.209 587.106 645.881 595.937 636.45 601.125C630.118 604.612 623.064 607.278 616.009 608.835C597.835 612.84 579.444 615.88 561.209 619.608C553.057 621.273 545.122 623.988 536.981 625.628C532.001 626.63 526.719 627.257 521.714 626.738C510.739 625.592 503.576 616.604 504.649 605.637C505.156 600.45 506.229 595.177 507.966 590.267C515.624 568.575 523.619 547.004 531.458 525.36C536.342 511.86 541.166 498.347 545.99 484.823C546.46 483.508 546.774 482.145 547.341 480.166C543.506 480.48 540.165 480.6 536.861 481.047C529.263 482.072 521.714 483.472 514.092 484.268C509.787 484.714 505.349 484.521 501.031 484.099C498.969 483.894 496.871 482.736 495.05 481.602C492.433 479.973 491.166 477.415 491.721 474.279C492.288 471.094 494.519 469.501 497.522 468.753C516.251 464.084 535.112 460.248 554.408 458.788C566.045 457.907 573.004 463.927 572.569 475.678C572.352 481.517 571.339 487.513 569.579 493.087C564.224 510.002 558.291 526.735 552.659 543.565C546.955 560.6 541.335 577.672 535.715 594.731C535.317 595.925 535.148 597.192 534.726 599.074C539.08 598.35 542.806 597.602 546.557 597.12C567.191 594.441 587.849 591.932 608.471 589.133C613.319 588.47 618.119 587.155 622.774 585.634C626.766 584.343 626.898 583.414 625.029 579.542C622.075 573.449 617.504 568.672 611.932 565.088C605.215 560.769 598.124 557.041 591.202 553.06C588.922 551.757 586.498 550.647 584.376 549.127C578.551 544.929 576.839 537.991 580.022 532.321C583.122 526.808 589.815 524.636 596.363 527.242C598.787 528.207 601.175 529.462 603.261 531.018C610.027 536.061 617.866 537.171 625.114 534.191C636.197 529.643 646.664 523.586 657.349 518.073C659.713 516.854 659.375 514.996 657.446 513.73C654.165 511.582 650.849 509.423 647.291 507.794C642.419 505.562 637.33 503.801 632.313 501.894C628.527 500.459 625.898 498.07 625.68 493.799C625.463 489.359 627.682 486.222 631.493 484.292C636.824 481.59 642.383 482.06 647.81 483.906C657.615 487.248 665.67 493.196 671.929 501.424C680.866 513.163 679.382 525.263 666.828 532.949C656.24 539.427 644.626 544.241 633.447 549.754C632.482 550.249 631.409 550.49 629.889 551.021Z" fill="#D1D1D1" fill-opacity="0.02"/>
<path d="M792.007 406.995C804.537 406.958 821.735 409.54 838.039 416.236C844.66 418.95 851.365 422.268 856.877 426.72C871.807 438.773 884.481 452.96 893.876 469.875C896.83 475.207 898.965 480.757 899.158 486.982C899.194 488.165 900.292 489.419 901.148 490.433C904.114 493.907 907.527 497.044 910.108 500.772C912.351 504.006 912.689 507.963 911.109 511.799C909.662 515.334 907.576 516.432 903.849 515.6C901.932 515.165 899.966 514.731 898.205 513.898C877.571 504.199 855.96 502.992 833.927 506.841C820.119 509.242 806.479 512.547 792.719 515.213C778.066 518.049 763.498 518.386 748.725 514.996C723.653 509.242 694.625 479.587 692.008 453.829C691.622 450.029 691.381 446.156 691.671 442.368C692.057 437.156 694.867 433.609 699.895 431.51C704.418 429.616 708.711 427.142 712.98 424.693C735.906 411.519 760.978 407.393 792.007 406.995ZM715.235 440.799C715.79 442.464 716.007 443.067 716.188 443.695C720.12 457.364 729.02 467.691 738.752 477.488C743.262 482.024 748.544 485.185 754.659 486.982C762.413 489.263 770.36 490.59 778.368 489.407C788.968 487.827 799.545 485.969 809.988 483.556C829.284 479.08 848.579 475.256 868.538 477.632C868.888 477.669 869.274 477.403 869.793 477.234C863.28 469.923 856.732 462.998 850.654 455.675C839.318 442.018 824.581 434.924 807.299 432.704C787.051 430.098 766.779 431.184 746.675 433.911C736.219 435.334 725.993 438.386 715.235 440.799Z" fill="#D1D1D1" fill-opacity="0.02"/>
<path d="M405.603 811.53C405.132 812.592 404.638 813.666 404.192 814.751C398.102 829.784 392.253 844.913 385.825 859.788C382.279 868.004 377.902 875.883 373.608 883.749C370.606 889.238 365.673 891.434 360.499 890.239C355.217 889.021 351.057 884.267 351.177 878.175C351.274 873.096 352.034 867.884 353.457 862.998C355.507 855.964 358.1 849.051 361.006 842.331C374.706 810.77 388.574 779.294 402.443 747.805C403.625 745.103 404.988 742.437 406.616 739.988C410.318 734.426 416.505 732.387 422.052 734.631C427.636 736.899 430.446 742.581 429.264 749.265C429.24 749.374 429.228 749.482 429.204 749.591C426.683 761.016 424.126 772.429 421.715 783.866C421.425 785.242 421.51 787.027 422.137 788.234C430.313 803.881 440.274 818.226 453.576 830.025C462.645 838.072 466.963 838.229 476.767 831.135C483.303 826.406 487.934 820.06 491.818 813.111C500.079 798.356 505.795 782.539 509.244 766.119C514.454 741.278 518.614 716.208 523.245 691.235C523.86 687.905 524.343 684.527 525.271 681.281C526.32 677.59 528.925 675.273 532.845 674.984C536.897 674.682 540.177 676.613 541.455 680.292C542.794 684.153 543.964 688.424 543.686 692.417C542.806 705.398 541.709 718.404 539.839 731.277C536.33 755.37 531.181 779.137 522.715 802.06C518.723 812.881 514.02 823.366 507.592 832.993C501.61 841.945 494.326 849.57 484.883 854.963C470.146 863.372 456.567 862.527 443.35 851.886C429.963 841.1 418.76 828.203 408.521 814.426C407.87 813.545 407.195 812.688 406.495 811.844C406.363 811.723 406.085 811.711 405.603 811.53Z" fill="#D1D1D1" fill-opacity="0.02"/>
<path d="M1100.09 447.398C1097.48 447.398 1094.86 447.543 1092.27 447.374C1081.45 446.686 1070.65 446.023 1059.85 445.094C1057.45 444.889 1056.16 445.842 1054.9 447.446C1036.07 471.503 1014.2 492.785 992.85 514.465C957.925 549.922 924.387 586.623 891.295 623.77C888.172 627.28 884.904 630.719 881.358 633.795C878.573 636.208 875.389 638.259 872.145 640.008C868.189 642.144 864.041 642.156 860.495 639.019C857.058 635.991 856.274 631.889 857.999 627.908C860.206 622.828 862.666 617.713 865.886 613.237C878.464 595.78 893.141 580.096 907.878 564.448C939.896 530.438 974.809 499.384 1007.7 466.279C1016.56 457.351 1024.95 447.941 1033.59 438.772C1037.19 434.947 1040.66 430.966 1044.53 427.443C1048.59 423.739 1053.58 422.726 1058.56 425.368C1070.01 431.412 1082.48 432.872 1095.06 433.982C1098.87 434.32 1102.73 434.284 1106.54 434.622C1111.43 435.044 1113.18 436.817 1113.94 441.691C1114.03 442.222 1114.1 442.826 1114.39 443.236C1118.05 448.472 1116.91 453.744 1114.15 458.739C1111.99 462.648 1109.58 466.532 1106.66 469.886C1094.82 483.531 1082.6 496.838 1070.77 510.508C1058.3 524.913 1046.13 539.583 1033.83 554.133C1032.99 555.134 1032.21 556.22 1031.32 557.173C1028.64 560.069 1025.57 561.999 1021.43 560.551C1017.79 559.285 1015.61 555.774 1015.59 551.165C1015.57 545.205 1017.1 539.535 1020.3 534.625C1023.63 529.509 1027.2 524.394 1031.47 520.087C1041.66 509.832 1052.47 500.217 1062.75 490.058C1073.41 479.514 1083.82 468.716 1094.15 457.846C1096.73 455.131 1098.55 451.693 1100.72 448.592C1100.52 448.182 1100.3 447.784 1100.09 447.398Z" fill="#D1D1D1" fill-opacity="0.02"/>
<path d="M569.217 306.654C577.888 304.603 585.968 303.047 593.831 300.779C633.254 289.438 673.389 281.331 713.717 274.068C731.927 270.786 750.041 266.998 768.166 263.27C789.235 258.939 810.568 255.814 831.226 249.589C833.807 248.805 836.557 248.539 839.355 247.369C837.992 247.019 836.641 246.657 835.279 246.332C830.057 245.089 824.787 244.027 819.625 242.567C814.295 241.047 811.34 237.331 811.521 233.073C811.726 228.548 815.247 224.157 820.505 223.578C824.835 223.107 829.598 223.264 833.699 224.603C840.525 226.847 846.976 230.225 853.561 233.193C859.241 235.763 862.136 241.168 865.741 245.74C868.009 248.612 866.453 253.027 862.497 254.668C858.493 256.321 854.212 257.503 849.931 258.215C831.576 261.292 813.245 264.44 795.542 270.412C792.756 271.353 789.813 271.812 786.931 272.5C767.78 277.096 748.774 282.453 729.443 286.132C679.648 295.615 630.903 309.043 582.459 323.714C576.308 325.571 569.893 326.826 563.513 327.598C553.636 328.793 548.209 322.592 549.596 312.843C550.235 308.319 550.199 303.698 550.332 299.114C550.404 296.713 550.042 294.3 550.079 291.887C550.235 281.536 554.119 275.48 564.08 272.512C579.601 267.891 595.17 263.125 611.028 259.989C636.51 254.958 661.944 249.903 686.631 241.675C688.693 240.987 690.864 240.456 693.022 240.191C697.46 239.648 701.307 242.218 702.405 246.211C703.466 250.072 701.621 254.137 697.629 255.971C695.47 256.96 693.07 257.479 690.743 258.107C663.03 265.538 635.232 272.668 607.639 280.522C596.822 283.599 586.511 288.401 575.886 292.201C572.003 293.588 569.893 295.881 569.796 300.055C569.796 302.021 569.483 303.952 569.217 306.654Z" fill="#D1D1D1" fill-opacity="0.02"/>
<path d="M92.1593 714.688C99.986 715.135 107.523 716.341 114.699 719.333C116.906 720.262 119.113 721.324 121.103 722.651C129.315 728.116 129.713 736.61 121.911 742.642C102.531 757.626 89.0961 777.122 78.9418 799.08C69.1132 820.35 62.9989 842.693 60.8041 866.002C59.8152 876.426 59.6946 886.946 59.6101 897.418C59.5498 904.584 57.1138 909.41 51.711 911.051C45.5968 912.909 39.0242 910.436 35.4907 904.717C32.1622 899.348 31.1492 893.28 30.896 887.103C30.5704 879.249 31.8608 871.624 34.3812 864.168C34.6948 863.227 34.4415 861.405 33.7662 860.911C9.35733 842.814 2.57978 817.828 8.58551 789.682C16.4605 752.764 38.9519 727.984 75.6857 717.246C80.9679 715.714 86.648 715.509 92.1593 714.688ZM41.2432 838.543C41.7256 838.109 41.9547 838 42.015 837.819C42.413 836.685 42.7989 835.551 43.1245 834.393C49.4438 811.977 58.778 790.924 71.5131 771.416C80.8835 757.059 91.9422 744.307 106.655 735.09C106.957 734.897 107.125 734.474 107.728 733.642C104.581 733.268 101.916 732.725 99.2263 732.653C86.2621 732.279 74.9018 736.972 64.8682 744.693C46.5736 758.772 35.756 777.472 32.4878 800.311C30.7754 812.291 32.2708 823.933 38.4574 834.646C39.2533 836.009 40.2905 837.228 41.2432 838.543Z" fill="#D1D1D1" fill-opacity="0.02"/>
<path d="M1023.28 854.01C1002.8 853.889 991.138 838.905 995.781 818.649C997.457 811.313 1000.64 804.075 1004.39 797.499C1013.18 782.033 1025.77 769.872 1040.02 759.339C1041.91 757.94 1043.45 756.046 1045.04 754.272C1046.81 752.33 1048.24 750.062 1050.16 748.288C1063.16 736.284 1078.66 729.817 1096.24 729.407C1116.49 728.937 1129.11 744.054 1126.01 764.069C1124.49 773.925 1120.48 782.805 1114.71 790.767C1097.34 814.8 1075.33 833.548 1048.89 846.976C1040.63 851.175 1031.83 853.853 1023.28 854.01ZM1025.53 831.184C1030.53 829.627 1035.73 828.578 1040.46 826.43C1065.11 815.222 1082.97 797.089 1094.15 772.429C1095.45 769.558 1096.4 766.469 1097.09 763.393C1098.16 758.748 1097.31 757.711 1092.79 758.857C1088.05 760.051 1083.43 761.861 1078.87 763.671C1071.55 766.578 1064.32 769.691 1057.07 772.755C1056.08 773.177 1055.01 773.636 1054.26 774.372C1042.62 785.64 1032.13 797.825 1024.94 812.484C1023.04 816.38 1021.64 820.615 1020.59 824.838C1019.44 829.483 1020.6 830.568 1025.53 831.184Z" fill="#D1D1D1" fill-opacity="0.02"/>
<path d="M883.3 815.813C877.499 816.935 872.085 818.311 866.585 818.926C862.389 819.397 858.023 819.36 853.838 818.793C838.679 816.754 831.033 804.183 836.605 789.923C843.226 772.972 855.346 760.799 871.988 753.802C890.415 746.044 909.807 744.391 929.356 748.554C934.397 749.627 938.304 749.386 942.899 747.19C951.751 742.98 961.109 740.169 971.143 740.989C975.388 741.339 979.018 742.956 981.37 746.696C984.698 751.98 982.539 758 976.594 759.87C974.098 760.654 971.469 761.04 968.9 761.535C958.818 763.489 949.243 766.771 940.282 771.862C937.822 773.262 935.217 774.577 932.516 775.313C925.569 777.207 920.553 772.852 921.083 765.709C921.119 765.178 921.083 764.636 921.083 763.538C915.97 763.538 910.845 763.164 905.804 763.61C886.822 765.287 870.469 771.971 859.82 788.873C858.361 791.178 857.251 793.699 855.961 796.112C854.888 798.127 855.671 799.514 857.734 799.55C862.931 799.635 868.298 800.117 873.303 799.08C878.693 797.97 883.77 795.304 888.968 793.301C890.391 792.746 891.754 791.998 893.213 791.54C897.494 790.188 901.727 791.564 904.007 794.942C906.298 798.356 906.081 802.832 903.15 806.21C899.315 810.65 899.195 815.741 900.184 821.061C900.642 823.571 902.21 824.403 904.501 823.161C907.383 821.592 910.193 819.891 913.003 818.19C915.162 816.887 917.176 815.331 919.407 814.197C924.979 811.362 930.164 813.292 932.661 819.011C933.408 820.712 933.975 822.497 934.687 824.21C935.917 827.19 938.208 827.987 941.114 827.082C945.697 825.658 948.531 822.63 949.339 817.792C950.111 813.183 948.29 809.673 944.31 807.67C938.449 804.726 932.443 802.06 926.377 799.562C922.217 797.849 920.36 796.196 920.336 793.132C920.311 790.056 922.325 787.027 926.245 786.135C930.092 785.266 934.325 784.699 938.136 785.387C946.143 786.834 953.174 790.743 958.987 796.534C967.236 804.75 969.286 817.78 964.173 828.517C959.373 838.615 947.578 845.215 936.339 844.02C930.224 843.381 925.364 840.485 921.746 835.539C921.107 834.67 920.516 833.765 919.793 832.728C917.429 833.85 915.174 834.924 912.931 835.997C895.119 844.563 885.302 832.692 883.638 819.143C883.517 818.094 883.421 817.008 883.3 815.813Z" fill="#D1D1D1" fill-opacity="0.02"/>
<path d="M419.954 464.35C421.136 463.903 421.763 463.734 422.342 463.445C460.101 443.936 486.898 414.656 501.14 374.384C505.192 362.911 506.784 350.979 504.999 338.77C504.022 332.146 501.478 326.162 498.005 320.48C494.797 315.244 494.978 311.251 498.294 308.645C501.611 306.039 506.061 306.871 510.257 311.154C518.156 319.213 521.425 329.323 522.691 340.218C524.259 353.633 522.486 366.784 518.144 379.427C501.49 427.939 471.256 465.098 425.309 488.78C415.118 494.028 406.906 491.531 402.431 480.951C399.272 473.47 397.728 465.279 395.835 457.304C394.52 451.766 394.4 445.915 392.747 440.51C389.696 430.581 398.85 422.172 405.41 419.023C416.131 413.884 426.78 408.467 436.946 402.314C442.675 398.839 447.692 393.965 452.443 389.151C455.349 386.196 457.605 382.359 459.365 378.559C461.838 373.226 466.227 370.548 471.027 372.37C475.742 374.155 478.359 379.765 475.513 384.651C472.028 390.635 467.831 396.39 463.043 401.373C449.79 415.175 434.173 425.876 416.927 434.116C413.924 435.552 413.309 437.361 414.093 440.365C416.095 448.207 417.94 456.073 419.954 464.35Z" fill="#D1D1D1" fill-opacity="0.02"/>
<path d="M127.699 811.398C126.927 824.765 129.581 839.605 135.502 853.925C138.806 861.924 141.64 870.116 144.776 878.175C148.816 888.562 151.216 899.348 152.506 910.363C154.677 928.822 145.741 943.13 127.989 948.825C121.368 950.948 114.229 951.358 107.427 952.975C92.3161 956.582 77.1209 959.936 62.2512 964.364C47.1042 968.888 34.8877 978.938 22.2733 988.01C13.8797 994.043 6.24594 1000.94 -0.133644 1009.14C-4.45102 1014.67 -4.07718 1018.14 1.34969 1022.53C1.94062 1023.01 2.67627 1023.37 3.1466 1023.95C3.97872 1024.98 4.66611 1026.12 5.40176 1027.22C4.19579 1027.85 3.03806 1028.81 1.75973 1029.07C-5.45198 1030.5 -12.1451 1029.51 -17.0414 1023.49C-22.2391 1017.1 -23.1074 1009.75 -20.3216 1002.11C-17.8735 995.406 -13.6767 989.688 -8.45485 984.958C13.3009 965.257 37.8303 950.321 66.5445 943.167C80.8835 939.596 95.4034 936.748 109.863 933.684C116.436 932.284 122.863 930.752 128.254 926.3C132.825 922.524 135.02 918.012 133.464 912.125C130.919 902.509 128.652 892.785 125.565 883.339C122.128 872.83 117.738 862.636 114.084 852.2C107.535 833.452 107.029 814.438 112.275 795.291C112.854 793.192 113.65 791.105 114.699 789.211C116.387 786.135 119.426 784.771 122.405 785.507C125.709 786.315 127.518 788.68 127.639 791.889C127.856 797.68 127.699 803.495 127.699 811.398Z" fill="#D1D1D1" fill-opacity="0.02"/>
<path d="M1073.37 361.439C1081.01 365.239 1088.23 368.448 1096.46 368.798C1099.93 368.943 1103.44 369.353 1106.84 370.053C1110.14 370.74 1111.1 372.755 1109.14 375.482C1107.48 377.798 1105.28 380.259 1102.76 381.345C1086.89 388.174 1071.55 386.219 1057.45 376.712C1044.23 367.785 1039.4 354.658 1040.95 339.011C1041.15 336.948 1041.39 334.848 1041.91 332.846C1043.37 327.248 1048.99 325.341 1052.98 329.48C1055.39 331.977 1056.95 335.427 1058.42 338.661C1059.84 341.822 1060.66 345.248 1061.89 349.012C1063.28 348.252 1064.32 347.769 1065.28 347.142C1080.04 337.599 1086.01 316.583 1078.6 300.561C1076.03 295.011 1071.71 292.236 1065.68 291.983C1059.17 291.705 1053.08 293.419 1047.26 296.145C1033.79 302.467 1022 311.093 1012.35 322.47C1003.85 332.496 995.697 342.823 987.159 352.824C981.623 359.315 975.992 365.782 969.829 371.657C963.654 377.545 956.226 381.623 947.627 383.094C941.995 384.06 936.689 383.094 931.949 379.837C927.415 376.724 925.172 371.416 926.33 366.747C927.005 364.008 928.5 361.921 931.491 361.451C934.361 360.992 936.436 362.295 937.617 364.829C938.992 367.785 941.44 368.689 944.118 367.579C947.917 366.011 952.017 364.443 954.996 361.776C960.591 356.758 965.741 351.16 970.601 345.417C980.236 334.052 989.426 322.301 999.026 310.912C1010.49 297.303 1024.69 287.121 1040.51 279.158C1048.63 275.068 1057.17 272.535 1066.39 272.68C1082.35 272.921 1094.54 281.487 1099.07 296.821C1104.14 313.953 1101.86 330.493 1092.89 345.936C1088.81 352.957 1085.17 355.539 1073.37 361.439Z" fill="#D1D1D1" fill-opacity="0.02"/>
<path d="M1147.42 344.066C1129.52 344.186 1120.26 335.403 1119.49 319.285C1119.03 309.645 1120.83 300.307 1123.19 291.03C1124.78 284.768 1126.32 278.483 1127.85 272.209C1129.49 265.501 1129.55 258.805 1128.17 252.013C1126.12 241.891 1132.07 236.353 1142.28 237.125C1149.83 237.692 1157.59 236.944 1165.15 235.943C1184.79 233.349 1204.43 230.514 1223.98 227.281C1230.84 226.147 1237.51 223.686 1244.18 221.562C1249.3 219.933 1253.1 216.567 1255.39 211.597C1256.69 208.774 1258.45 206.457 1262.08 206.868C1264.92 207.193 1267.51 209.715 1268.27 213.346C1269.93 221.273 1267.32 228.21 1261.38 233.144C1256.68 237.053 1251.12 240.564 1245.36 242.422C1234.88 245.824 1224.06 248.454 1213.19 250.36C1193.67 253.775 1174.02 256.453 1154.41 259.288C1151.82 259.662 1150.97 260.313 1150.54 263.137C1149.3 271.34 1147.44 279.46 1145.74 287.603C1143.87 296.592 1141.14 305.495 1140.2 314.568C1139.01 325.884 1141.47 326.439 1151.05 325.486C1159.23 324.678 1166.51 321.613 1173.12 316.836C1176.57 314.339 1179.22 311.19 1180.54 307.052C1182.21 301.803 1181.1 298.22 1176.65 294.963C1174.89 293.672 1172.91 292.671 1171.14 291.392C1169.02 289.848 1166.76 288.388 1165.03 286.469C1160.67 281.644 1162.77 274.779 1169.15 273.536C1172.14 272.957 1175.54 273.211 1178.51 274.019C1193.3 278.024 1201.83 293.033 1198.38 308.56C1196.47 317.198 1192.21 324.449 1185.19 329.938C1173.57 339.023 1160.36 343.692 1147.42 344.066Z" fill="#D1D1D1" fill-opacity="0.02"/>
<path d="M331.605 24.693C335.368 25.1152 339.13 25.9477 342.881 25.8633C348.778 25.7305 354.675 25.0911 360.548 24.4758C368.99 23.5951 375.177 30.2789 372.729 37.783C371.462 41.6557 368.339 43.4413 364.95 45.2751C360.199 47.869 355.592 50.8369 351.286 54.1063C349.345 55.5782 348.259 58.1962 346.788 60.2954C346.945 60.6453 347.102 61.0073 347.258 61.3571C349.9 61.5622 352.661 62.3464 355.182 61.8759C362.683 60.4523 370.112 58.6667 377.504 56.7605C382.473 55.4817 387.321 53.7203 392.253 52.2363C393.399 51.8985 394.617 51.7658 395.811 51.6693C398.597 51.428 401.105 52.0916 402.673 54.5889C404.301 57.1828 404.265 60.1989 402.335 62.2982C398.97 65.9417 395.461 69.7782 391.264 72.2635C383.1 77.0893 373.886 79.6108 364.528 80.9017C358.522 81.7341 352.239 82.2047 346.257 81.4325C329.808 79.3092 322.379 65.9055 328.614 50.6438C328.904 49.9441 329.145 49.2443 329.531 48.2188C328.433 47.9293 327.517 47.7604 326.636 47.4467C321.909 45.7818 316.868 44.6839 312.526 42.2952C302.119 36.5766 298.959 25.248 304.881 14.969C307.353 10.674 310.693 6.6927 314.323 3.31462C318.05 -0.1479 322.367 -3.21229 326.89 -5.56488C350.466 -17.8466 375.49 -26.0987 401.527 -31.202C405.712 -32.0224 410.234 -31.4554 414.552 -31.0452C416.373 -30.8763 418.266 -29.694 419.773 -28.5116C422.62 -26.2918 423.524 -23.1791 422.595 -19.6683C421.751 -16.5074 418.881 -14.6012 415.275 -13.9497C410.138 -13.0208 404.892 -12.2366 399.983 -10.5475C379.627 -3.53804 360.174 5.4983 341.615 16.4288C338.503 18.2626 335.597 20.4221 332.618 22.461C332.196 22.7506 331.894 23.2211 331.533 23.6072C331.557 23.9571 331.581 24.319 331.605 24.693Z" fill="#D1D1D1" fill-opacity="0.02"/>
<path d="M182.776 821.532C177.349 820.881 171.259 819.204 165.82 815.729C161.756 813.135 160.839 809.033 161.237 804.485C161.804 797.994 164.361 792.203 167.508 786.63C176.915 769.908 188.54 754.815 201.577 740.821C219.063 722.048 238.383 705.363 260.778 692.659C266.989 689.136 273.839 686.434 280.713 684.443C288.805 682.102 292.399 684.564 297.572 691.272C300.744 695.398 301.142 699.343 299.972 703.843C298.766 708.488 297.729 713.265 295.824 717.645C277.867 758.941 249.092 790.599 210.115 812.991C201.999 817.684 193.316 821.026 182.776 821.532ZM180.436 803.411C180.798 803.749 181.148 804.087 181.51 804.413C185.043 803.375 188.661 802.567 192.098 801.276C202.65 797.295 212.069 791.238 220.872 784.337C240.819 768.702 257.896 750.231 273.175 730.095C279.302 722.012 283.559 712.843 286.176 702.998C286.803 700.658 287.02 698.197 287.575 694.843C284.101 695.928 281.267 696.278 279.024 697.617C271.439 702.166 263.672 706.557 256.678 711.914C237.551 726.572 220.933 743.921 205.665 762.452C198.176 771.537 191.796 781.55 185.357 791.443C183.041 794.99 182.04 799.394 180.436 803.411Z" fill="#D1D1D1" fill-opacity="0.02"/>
<path d="M1157.51 758.773C1157.43 754.586 1159.59 750.424 1163.09 747.07C1173.77 736.851 1184.54 726.741 1195.36 716.667C1200.16 712.191 1205.22 707.993 1210 703.493C1214.91 698.86 1221.37 698.196 1226.64 702.564C1231.44 706.545 1235.85 710.985 1240.45 715.22C1248.19 722.338 1255.91 729.48 1263.7 736.538C1267.04 739.566 1268.44 743.173 1268.03 747.673C1267.53 753.15 1265.8 758.049 1262.76 762.669C1251.86 779.234 1241.1 795.895 1230.32 812.544C1229.44 813.908 1228.74 815.416 1228.15 816.936C1225.55 823.704 1218.78 826.37 1212.36 822.968C1210.73 822.111 1209.17 820.989 1207.86 819.698C1193.64 805.571 1179.38 791.48 1165.34 777.171C1159.55 771.259 1157.34 765.529 1157.51 758.773ZM1218.26 718.887C1210.55 726.319 1203.02 733.172 1195.98 740.531C1191.16 745.574 1187.06 751.329 1182.61 756.734C1181.49 758.097 1181.26 759.171 1182.65 760.679C1192.51 771.392 1202.28 782.19 1212.05 793C1213.43 794.532 1214.63 796.233 1216.21 798.224C1217.46 796.378 1218.1 795.509 1218.67 794.604C1222.65 788.307 1226.59 781.985 1230.6 775.699C1235.83 767.471 1241.1 759.267 1246.33 751.051C1247.27 749.579 1248.37 748.108 1246.6 746.382C1237.24 737.322 1227.91 728.237 1218.26 718.887Z" fill="#D1D1D1" fill-opacity="0.02"/>
<path d="M1014.18 606.156C1009.94 605.529 1006.39 604.889 1002.82 604.551C1001.98 604.467 1000.77 605.203 1000.18 605.927C988.352 620.296 976.594 634.725 964.824 649.142C963.726 650.493 962.653 651.856 961.35 653.473C962.508 653.992 963.352 654.438 964.245 654.776C971.722 657.611 979.211 660.422 986.688 663.245C987.508 663.559 988.328 663.885 989.1 664.295C992.923 666.37 994.756 670.122 993.815 673.838C992.814 677.771 989.329 680.558 984.963 680.136C980.959 679.75 977.052 678.435 973.06 677.819C964.196 676.444 955.308 675.226 946.433 673.971C945.022 673.766 943.586 673.742 942.175 673.561C929.332 671.908 922.796 660.253 928.5 648.599C930.393 644.726 933.227 641.228 936.013 637.886C948.917 622.395 961.978 607.037 974.942 591.594C977.124 589 979.018 586.153 981.177 583.535C986.278 577.334 992.778 576.031 1000 579.373C1007.74 582.956 1015.72 586.069 1023.35 589.869C1027.29 591.835 1031 594.526 1034.31 597.433C1037.35 600.112 1037.51 604.129 1036.66 607.869C1035.89 611.259 1035.05 614.818 1033.36 617.798C1028.03 627.221 1022.29 636.414 1016.7 645.704C1016.64 645.8 1016.58 645.885 1016.51 645.969C1011.52 652.267 1004.72 653.968 999.266 650.3C993.815 646.633 992.621 639.514 996.83 632.722C1001.68 624.904 1006.96 617.352 1012.04 609.679C1012.68 608.702 1013.26 607.664 1014.18 606.156Z" fill="#D1D1D1" fill-opacity="0.02"/>
<path d="M489.322 236.606C488.273 259.988 479.831 279.616 461.259 294.154C450.96 302.213 439.226 306.424 425.96 304.276C409.257 301.574 396.691 288.593 393.134 270.411C389.287 250.794 394.677 233.361 406.098 217.424C412.091 209.051 418.869 201.595 428.131 196.661C455.241 182.256 484.064 196.83 488.417 227.244C488.876 230.393 489.044 233.578 489.322 236.606ZM412.803 256.706C412.815 265.296 413.937 271.618 417.603 277.228C421.691 283.477 427.504 286.276 434.981 285.516C440.842 284.925 445.955 282.512 450.49 278.905C460.499 270.966 466.662 260.615 469.291 248.14C471.075 239.659 470.75 231.346 466.843 223.432C462.079 213.768 453.782 209.883 443.423 212.851C439.805 213.889 436.271 215.674 433.099 217.737C418.302 227.341 413.925 242.241 412.803 256.706Z" fill="#D1D1D1" fill-opacity="0.02"/>
<path d="M1307.77 268.433C1312.24 267.094 1316.26 265.658 1320.38 264.717C1325.93 263.451 1331.27 264.368 1336.25 267.179C1340.15 269.386 1344.04 271.618 1348.29 274.043C1349.23 271.208 1350.02 268.53 1351.01 265.936C1352.22 262.775 1353.41 259.578 1354.94 256.562C1356.31 253.896 1358.74 252.581 1361.81 253.22C1364.82 253.847 1366.85 255.934 1366.92 258.902C1367.03 263.246 1366.58 267.625 1366.17 271.968C1365.47 279.376 1364.3 286.759 1363.89 294.179C1363.49 301.309 1364.93 302.938 1371.8 304.917C1374.95 305.821 1378.23 306.304 1381.38 307.221C1386.48 308.717 1387.48 312.384 1384.03 316.414C1381.04 319.913 1377 321.119 1372.62 321.469C1356.04 322.808 1344.75 312.565 1345.14 295.977C1345.25 291.344 1343.9 288.533 1339.89 286.566C1337.84 285.565 1335.91 284.25 1334.07 282.887C1327.69 278.194 1321.32 278.954 1315.12 283.019C1312.78 284.552 1310.62 286.53 1308.79 288.666C1303.17 295.217 1295.22 294.36 1292.27 286.216C1286.76 271.015 1287.59 256.007 1296.01 241.952C1301.47 232.843 1308.85 225.254 1317.17 218.739C1328.03 210.258 1337.57 200.486 1346.8 190.352C1363.31 172.243 1368.34 151.275 1362.19 127.592C1361.95 126.639 1361.4 125.601 1361.6 124.733C1361.96 123.152 1362.38 120.956 1363.51 120.341C1364.82 119.617 1367.47 119.653 1368.55 120.546C1370.56 122.223 1372.26 124.588 1373.41 126.989C1377.93 136.459 1377.89 146.545 1376.42 156.631C1374.07 172.617 1368.38 187.215 1358.37 200.136C1349.36 211.766 1339.98 222.938 1329.26 233.096C1323.05 238.984 1317.97 246.15 1312.83 253.075C1309.51 257.527 1308.02 262.872 1307.77 268.433Z" fill="#D1D1D1" fill-opacity="0.02"/>
<path d="M1187.46 121.632C1190 119.87 1191.81 118.688 1193.54 117.409C1202.92 110.496 1213.66 107.818 1225.07 107.89C1228.39 107.914 1231.89 109.229 1234.93 110.725C1237.34 111.908 1238.45 114.61 1237.76 117.518C1237.1 120.329 1234.99 121.74 1232.36 122.15C1229.33 122.621 1226.25 122.814 1223.2 122.923C1214.5 123.224 1206.27 125.287 1198.81 129.824C1192.75 133.491 1186.76 137.291 1180.9 141.261C1176.16 144.47 1170.94 142.938 1170.41 137.34C1169.96 132.671 1170.32 127.664 1171.55 123.152C1174.23 113.367 1174.34 103.716 1172.23 93.8953C1170.94 87.8992 1167.61 83.6404 1162.11 80.8535C1161.87 81.1672 1161.55 81.3844 1161.52 81.6257C1159.53 99.3605 1157.53 117.083 1155.66 134.83C1155.37 137.641 1155.55 140.537 1155.81 143.36C1156.87 154.93 1161.29 161.529 1175.69 164.099C1184.79 165.728 1194.22 165.643 1203.51 166.029C1209.94 166.307 1216.11 167.344 1221.99 170.059C1227.97 172.822 1231.48 177.623 1233.49 183.704C1233.66 184.223 1233.8 184.753 1233.9 185.296C1234.56 188.686 1233.42 192.644 1231.27 193.573C1228.3 194.851 1226.21 192.788 1224.28 191.111C1217.17 184.91 1209.01 181.942 1199.57 182.22C1192.99 182.413 1186.41 182.509 1179.85 182.244C1175.17 182.051 1170.38 181.689 1165.88 180.519C1148.01 175.862 1138.13 163.809 1136.71 145.242C1135.4 128.147 1137.54 111.377 1141.37 94.7036C1142.95 87.7906 1143.5 80.6484 1144.6 73.6269C1144.89 71.8051 1145.18 69.8989 1145.94 68.2582C1147.72 64.3613 1152.05 62.7929 1155.9 64.3372C1158.72 65.4712 1161.54 66.6294 1164.4 67.6911C1177.94 72.7462 1185.17 82.7477 1187.45 96.7667C1188.78 104.765 1189.71 112.764 1187.46 121.632Z" fill="#D1D1D1" fill-opacity="0.02"/>
<path d="M1290.65 774.36C1285.17 793.833 1288.13 811.23 1300.37 826.419C1314.28 843.671 1332.69 854.578 1353.79 860.634C1363.63 863.457 1373.94 864.652 1384.03 866.606C1386.38 867.064 1388.82 867.366 1391.03 868.235C1393.92 869.369 1395.5 871.746 1395.3 874.967C1395.1 878.188 1393.21 880.275 1390.23 881.144C1388.37 881.687 1386.33 881.952 1384.41 881.856C1359.73 880.565 1336.05 875.305 1313.96 863.855C1298.67 855.917 1286.61 844.504 1278.44 829.327C1268.14 810.216 1267.21 790.406 1275.51 770.379C1280.22 758.99 1285.4 756.758 1297.33 760.124C1312.83 764.492 1325.72 773.178 1336.66 784.784C1343.28 791.818 1349.38 799.298 1353.57 808.117C1357.01 815.356 1359.29 823.005 1357.75 831.016C1357.11 834.345 1354.9 837.518 1352.86 840.39C1351.31 842.561 1348.62 843.08 1345.98 842.211C1343.32 841.343 1341.93 839.328 1341.56 836.601C1341.41 835.516 1341.27 834.406 1341.35 833.332C1342.05 824.489 1339.05 816.671 1334.45 809.444C1323.95 792.916 1308.43 782.613 1290.65 774.36Z" fill="#D1D1D1" fill-opacity="0.02"/>
<path d="M601.248 411.109C600.765 406.271 600.114 401.445 599.861 396.583C599.728 394.11 599.909 391.492 600.596 389.127C604.094 377.026 610.461 366.723 620.41 358.845C644.421 339.843 675.801 349.917 683.193 379.608C689.03 403.062 683.362 424.259 666.286 441.632C656.228 451.863 643.818 457.183 629.262 453.371C613.235 449.172 604.89 437.578 601.621 421.93C600.886 418.42 600.777 414.776 600.391 411.193C600.681 411.169 600.958 411.133 601.248 411.109ZM663.813 399.901C663.789 393.76 662.463 387.631 658.796 382.178C653.731 374.65 646.315 373.021 638.56 377.774C632.47 381.502 628.551 387.1 625.379 393.35C623.462 397.126 621.17 400.697 619.144 404.425C618.65 405.342 618.336 406.464 618.3 407.513C618.095 414.306 619.325 420.808 622.581 426.841C627.924 436.758 637.113 439.34 646.604 433.319C649.414 431.534 652.031 429.181 654.141 426.587C660.352 418.975 663.5 410.107 663.813 399.901Z" fill="#D1D1D1" fill-opacity="0.02"/>
<path d="M462.645 519.171C464.394 519.171 466.154 519.255 467.903 519.159C474.861 518.761 478.516 522.995 481.024 528.629C483.303 533.733 481.603 538.245 478.455 542.419C478.395 542.504 478.335 542.6 478.25 542.673C465.346 555.051 456.097 570.349 445.026 584.175C440.865 589.374 436.162 594.2 431.278 598.736C421.135 608.183 407.846 604.684 405.132 591.112C401.828 574.619 399.669 557.826 398.101 541.068C397.052 529.836 403.842 523.237 415.13 522.452C430.964 521.354 446.811 520.377 462.657 519.352C462.657 519.304 462.657 519.231 462.645 519.171ZM447.16 543.276C447.004 543.083 446.835 542.89 446.678 542.697C442.541 543.662 438.405 544.627 434.269 545.592C426.562 547.39 426.55 547.39 427.515 555.352C427.925 558.743 428.395 562.109 428.938 566.283C430.349 564.775 431.133 564.039 431.784 563.194C436.922 556.559 442.035 549.911 447.16 543.276Z" fill="#D1D1D1" fill-opacity="0.02"/>
<path d="M-20.599 707.052C-15.7631 704.096 -11.1925 701.346 -6.68213 698.51C1.9285 693.118 1.91644 693.093 -0.314606 683.044C-0.809052 680.8 -1.38792 678.556 -1.67735 676.287C-2.37682 670.907 0.3125 666.322 4.93137 664.73C9.52612 663.137 14.7118 664.995 17.2564 669.712C18.8483 672.656 20.1145 675.95 20.6934 679.231C22.2491 688.062 23.5516 696.954 24.5163 705.87C24.8781 709.163 24.3475 712.662 23.6119 715.932C22.7074 719.973 20.0301 722.676 15.7128 723.243C11.8778 723.749 8.25984 721.578 6.17352 717.572C5.42581 716.149 4.84695 714.641 3.91835 712.566C-2.7386 717.536 -9.11819 722.29 -15.4737 727.067C-16.5229 727.851 -17.4394 728.817 -18.4645 729.637C-25.5194 735.343 -34.13 734.463 -39.3639 726.947C-42.8492 721.94 -45.6712 716.438 -48.457 710.985C-52.0387 703.964 -55.1139 696.689 -58.7198 689.679C-60.8664 685.505 -63.3869 681.499 -66.1124 677.675C-72.5764 668.614 -69.8026 659.747 -59.5278 655.524C-49.2047 651.29 -39.1589 646.392 -28.9685 641.843C-25.5676 640.335 -22.1547 638.803 -18.6212 637.681C-13.8818 636.185 -9.54029 638.079 -7.77957 641.988C-5.93443 646.078 -7.53837 650.506 -11.9643 653.16C-19.8513 657.877 -27.8349 662.449 -35.6978 667.215C-39.5087 669.531 -39.2675 669.592 -37.1811 673.73C-32.2608 683.514 -27.5213 693.383 -22.6854 703.216C-22.1186 704.386 -21.4553 705.484 -20.599 707.052Z" fill="#D1D1D1" fill-opacity="0.02"/>
<path d="M454.734 643.942C443.253 654.486 432.713 664.524 421.762 674.103C412.549 682.174 402.937 689.811 393.326 697.4C390.805 699.39 387.718 700.922 384.655 701.9C379.421 703.565 374.585 702.298 371.076 697.87C367.578 693.454 367.494 688.52 370.159 683.694C371.305 681.631 373.005 679.822 374.73 678.169C376.297 676.673 378.106 675.309 380.036 674.332C403.275 662.485 421.871 644.545 441.359 627.763C446.907 622.985 452.696 618.449 458.689 614.251C462.995 611.235 467.927 611.403 470.821 614.54C474.379 618.377 477.72 622.539 477.925 628.209C477.997 630.067 478.105 631.925 478.117 633.795C478.238 647.923 478.359 662.05 478.455 676.178C478.515 684.816 473.921 690.728 466.902 691.114C459.787 691.5 453.926 685.975 453.685 677.324C453.407 667.492 454.131 657.635 454.432 647.79C454.468 646.837 454.577 645.884 454.734 643.942Z" fill="#D1D1D1" fill-opacity="0.02"/>
<path d="M1088.86 222.83C1086.31 224.265 1083.59 225.834 1080.81 227.342C1068.17 234.17 1054.87 238.538 1040.33 237.971C1036.75 237.826 1033.11 237.355 1029.62 236.487C1011.75 232.023 1003.23 216.701 1008.93 199.135C1011.87 190.062 1016.43 181.907 1023.65 175.392C1039.86 160.806 1058.66 151.938 1080.36 149.465C1083.58 149.103 1086.94 149.308 1090.17 149.707C1094.92 150.298 1097.59 153.169 1097.56 157.054C1097.54 160.939 1094.83 163.726 1090.04 164.28C1080.61 165.366 1071.53 167.514 1062.88 171.543C1048.92 178.058 1037.77 187.915 1028.91 200.329C1021.58 210.62 1025.89 219.789 1038.54 220.718C1053.82 221.852 1067.7 217.063 1080.7 209.414C1081.43 208.992 1081.91 207.23 1081.68 206.289C1081.18 204.178 1080.08 202.223 1079.37 200.148C1077.35 194.321 1079.45 188.711 1084.42 186.455C1089.45 184.163 1095.1 186.105 1098.11 191.51C1099.86 194.659 1101.06 198.097 1102.5 201.403C1104.06 205.022 1105.37 208.775 1107.24 212.225C1109.06 215.591 1109.65 218.776 1108.68 222.576C1107.01 229.2 1100.71 232.047 1094.84 228.259C1092.68 226.908 1090.99 224.808 1088.86 222.83Z" fill="#D1D1D1" fill-opacity="0.02"/>
<path d="M765.188 358.061C765.188 353.681 765.007 349.302 765.224 344.935C765.634 336.719 770.313 332.267 778.297 330.481C786.051 328.756 793.588 326.066 801.186 323.701C803.477 322.989 805.612 321.783 807.915 321.083C813.596 319.358 818.769 321.035 821.965 326.042C823.882 329.046 825.764 332.363 826.499 335.79C828.031 342.932 829.309 350.207 829.743 357.482C830.274 366.313 825.679 371.03 817.213 373.286C807.505 375.868 797.978 379.174 788.379 382.178C787.124 382.576 785.931 383.143 784.688 383.565C773.521 387.402 764.73 381.297 764.5 369.546C764.428 365.722 764.488 361.885 764.488 358.049C764.73 358.061 764.959 358.061 765.188 358.061ZM802.681 343.656C799.22 345.273 796.362 346.6 793.504 347.939C788.909 350.098 788.053 352.246 789.766 357.711C794.143 356.493 798.569 355.334 802.911 353.959C803.514 353.766 804.213 352.511 804.141 351.836C803.863 349.254 803.26 346.72 802.681 343.656Z" fill="#D1D1D1" fill-opacity="0.02"/>
<path d="M368.398 367.531C369.821 355.032 370.955 342.497 372.764 330.047C374.03 321.372 381.531 317.174 389.877 319.707C402.431 323.52 414.985 327.356 427.551 331.169C428.371 331.422 429.264 331.519 430.12 331.579C437.332 332.122 441.36 339.035 436.982 344.621C428.733 355.153 421.389 366.675 409.112 373.431C401.731 377.497 394.628 382.057 387.272 386.171C385.041 387.426 382.448 388.427 379.928 388.705C374.356 389.332 369.87 385.339 369.363 379.403C369.026 375.494 369.303 371.537 369.303 367.592C369.013 367.568 368.712 367.543 368.398 367.531ZM421.087 341.074C412.489 340.977 404.469 340.845 396.449 340.917C395.822 340.917 394.857 342.304 394.64 343.185C393.049 349.543 391.577 355.937 390.154 362.331C389.925 363.345 390.118 364.467 390.118 365.794C402.431 360.075 414.78 355.225 421.087 341.074Z" fill="#D1D1D1" fill-opacity="0.02"/>
<path d="M99.5279 45.2268C100.276 37.2642 101.047 29.3016 101.771 21.339C102.663 11.3254 103.291 1.2636 104.521 -8.71378C104.894 -11.6937 106.523 -14.7461 108.307 -17.2555C111.274 -21.4419 115.724 -22.3588 120.62 -20.8386C127.386 -18.7273 131.956 -14.2514 134.453 -7.77274C138.191 1.91508 143.606 10.6257 149.515 19.095C153.712 25.1152 152.579 30.9062 146.814 34.6703C136.744 41.2696 126.747 47.9896 116.725 54.6613C115.724 55.3248 114.759 56.0728 113.71 56.6519C107.089 60.3075 99.9379 56.3744 99.4555 48.8341C99.3832 47.6397 99.4435 46.4332 99.4435 45.2268C99.4676 45.2389 99.4917 45.2268 99.5279 45.2268Z" fill="#F1DDC4"/>
<path d="M829.032 556.1C838.667 556.426 847.748 559.201 857.022 556.281C859.374 555.545 861.955 554.942 864.379 555.111C869.383 555.473 871.301 560.311 868.081 564.171C867.008 565.462 865.464 566.633 863.896 567.2C859.892 568.635 855.828 570.023 851.668 570.807C845.77 571.929 839.777 572.822 833.795 573.208C823.798 573.847 815.103 570.047 807.529 563.846C803.32 560.395 803.019 556.04 805.214 551.105C808.373 544.024 813.511 538.715 819.914 534.722C838.691 522.983 858.843 518.567 880.502 524.769C885.001 526.059 889.282 528.665 893.153 531.392C897 534.094 897.784 538.088 896.168 541.188C894.504 544.373 891.356 545.218 886.375 544.108C866.634 539.753 848.436 544.289 831.118 553.82C830.648 554.085 830.213 554.435 829.791 554.785C829.647 554.918 829.574 555.147 829.032 556.1Z" fill="#D1D1D1" fill-opacity="0.02"/>
<path d="M179.291 378.595C159.609 378.414 145.27 366.132 140.676 347.167C137.576 334.378 138.614 321.662 141.604 309.079C146.054 290.355 154.05 273.332 167.135 258.975C168.883 257.045 170.873 255.259 173.02 253.787C175.203 252.291 177.663 252.436 179.665 254.342C181.582 256.152 181.775 258.492 180.605 260.688C179.122 263.487 177.337 266.129 175.601 268.783C166.52 282.766 159.115 297.473 156.112 314.05C153.941 326.006 154.014 337.865 159.079 349.194C163.927 360.04 174.371 365.722 185.948 363.032C192.026 361.62 197.706 358.52 203.543 356.119C205.255 355.419 206.787 354.213 208.536 353.682C211.273 352.849 213.818 353.525 215.506 355.986C217.183 358.435 216.917 360.969 215.289 363.357C214.807 364.069 214.18 364.745 213.492 365.252C202.747 373.19 190.916 378.173 179.291 378.595Z" fill="#D1D1D1" fill-opacity="0.02"/>
<path d="M906.744 313.567C906.744 318.272 906.925 323.001 906.671 327.694C906.527 330.397 906.032 333.184 905.116 335.717C902.197 343.764 893.876 347.07 886.725 342.461C876.872 336.103 866.295 331.507 855.406 327.429C853.174 326.596 850.98 325.426 849.086 324.002C842.586 319.104 842.393 310.466 848.773 305.411C851.583 303.191 854.827 301.478 857.974 299.717C867.429 294.408 876.944 289.22 886.411 283.936C895.371 278.941 902.788 282.03 905.55 292.007C905.96 293.479 906.334 294.999 906.43 296.519C906.804 302.202 907.045 307.896 907.335 313.579C907.142 313.567 906.949 313.567 906.744 313.567ZM882.468 316.679C882.154 313.06 881.925 310.309 881.623 306.847C878.838 308.801 876.607 310.37 873.881 312.288C876.86 313.808 879.296 315.063 882.468 316.679Z" fill="#D1D1D1" fill-opacity="0.02"/>
<path d="M290.216 534.855C292.229 533.371 294.424 531.79 296.583 530.162C304.241 524.419 312.622 520.353 322.222 519.123C322.982 519.026 323.742 518.881 324.501 518.893C327.661 518.978 330.881 519.328 332.171 522.742C333.401 525.987 330.989 528.038 328.927 529.993C322.029 536.544 315.034 542.998 308.172 549.585C301.745 555.775 294.569 560.613 285.717 562.531C267.266 566.524 249.454 549.549 252.577 530.934C252.903 529.015 253.47 527.073 254.278 525.3C257.329 518.543 262.285 513.995 269.955 513.549C277.601 513.114 282.895 517.265 286.308 523.647C288.081 526.952 288.841 530.789 290.216 534.855Z" fill="#D1D1D1" fill-opacity="0.02"/>
<path d="M1172.59 5.24481C1166.46 5.35339 1162.08 2.50616 1160.76 -2.35585C1159.44 -7.14548 1161.6 -12.3091 1166.87 -14.8668C1171.26 -16.9901 1175.98 -18.7274 1180.74 -19.7167C1193.48 -22.3589 1206.27 -24.8562 1219.15 -26.7021C1224.9 -27.5225 1230.9 -26.7142 1236.78 -26.5091C1238.06 -26.4608 1239.35 -25.9903 1240.58 -25.5439C1244.5 -24.1203 1247.59 -21.816 1248.19 -17.3641C1248.79 -12.8882 1246.6 -9.4498 1242.91 -7.61599C1237.87 -5.10657 1232.58 -2.6454 1227.12 -1.48721C1219.34 0.165636 1211.31 0.660282 1203.39 1.60132C1193.07 2.85603 1182.74 4.05042 1172.59 5.24481Z" fill="#D1D1D1" fill-opacity="0.02"/>
<path d="M221.415 110.002C213.914 122.851 206.835 135.06 209.006 150.213C209.597 154.315 208.27 155.329 204.182 154.327C199.852 153.266 196.886 150.406 195.065 146.437C191.989 139.705 191.374 132.72 193.533 125.614C197.452 112.753 204.085 101.376 212.66 91.0849C214.481 88.9013 216.278 86.7176 218.05 84.4856C220.595 81.3006 223.815 79.7684 227.867 80.6732C231.907 81.566 234.307 84.2805 235.223 88.2256C235.585 89.8061 235.766 91.5072 235.609 93.1118C235.03 98.8666 236.586 104.115 239.975 108.566C243.798 113.597 248.188 118.194 252.372 122.935C253.385 124.081 254.941 124.866 255.616 126.145C256.449 127.761 257.462 130.09 256.859 131.429C256.171 132.961 253.759 134.698 252.167 134.626C249.128 134.493 245.872 133.637 243.183 132.201C234.922 127.761 228.47 121.258 223.513 113.296C222.947 112.391 222.368 111.498 221.415 110.002Z" fill="#D1D1D1" fill-opacity="0.02"/>
<path d="M1305.98 62.1536C1305.75 62.8533 1305.49 64.4096 1304.75 65.7005C1299.98 74.0733 1295.07 82.3737 1290.28 90.7345C1289.59 91.9289 1289.04 93.2801 1288.84 94.6313C1288.24 98.7936 1285.68 101.279 1281.51 100.881C1279.28 100.664 1277 99.9156 1274.98 98.9263C1267.79 95.4276 1260.62 91.8565 1253.62 88.0079C1251.22 86.6928 1248.85 84.7987 1247.25 82.603C1245.21 79.804 1245.9 76.5466 1247.71 73.6269C1254.11 63.36 1261.28 53.6481 1270.46 45.6975C1276.01 40.8958 1281.22 40.3167 1286.53 44.3704C1289.05 46.3008 1291.5 48.3397 1294.11 50.1252C1296.16 51.5247 1298.35 52.8035 1300.61 53.8049C1304.05 55.3009 1306.02 57.8465 1305.98 62.1536ZM1263.8 75.0626C1268.61 77.6082 1272.82 79.8402 1277.13 82.1204C1280.5 75.509 1283.75 69.1269 1287.1 62.5638C1284.36 60.4042 1281.73 58.3291 1278.62 55.88C1273.62 62.3225 1268.85 68.5116 1263.8 75.0626Z" fill="black"/>
<path d="M363.708 602.041C362.574 608.592 361.838 615.264 360.198 621.682C357.497 632.239 348.742 635.303 339.697 629.211C337.249 627.558 335.078 625.507 332.618 623.878C327.697 620.633 322.789 617.375 317.652 614.492C313.768 612.32 310.741 609.751 310.549 605.045C310.356 600.485 312.852 597.3 316.627 595.261C325.382 590.52 334.101 585.682 343.122 581.495C348.85 578.829 358.727 580.422 361.248 589.325C361.754 591.111 362.357 592.896 362.622 594.718C362.972 597.095 363.044 599.508 363.225 601.909C363.394 601.957 363.551 601.993 363.708 602.041ZM335.717 604.249C338.201 606.131 340.312 607.724 342.724 609.546C342.724 605.781 342.724 602.813 342.724 599.242C340.203 601.052 338.153 602.512 335.717 604.249Z" fill="#D1D1D1" fill-opacity="0.02"/>
<path d="M595.23 681.631C596.46 683.525 597.473 684.937 598.329 686.445C601.212 691.548 600.428 697.303 596.412 700.862C592.396 704.421 586.499 704.674 581.88 701.067C574.934 695.638 570.809 688.351 569.422 679.713C568.337 672.944 572.98 664.584 579.564 662.086C592.239 657.26 605.083 652.869 617.926 648.502C620.001 647.79 622.509 647.79 624.716 648.128C628.949 648.791 631.904 651.373 633.025 655.583C634.171 659.903 632.965 663.739 629.504 666.502C627.574 668.034 625.198 669.084 622.895 670.061C613.838 673.922 604.733 677.674 595.23 681.631Z" fill="#D1D1D1" fill-opacity="0.02"/>
<path d="M893.407 140.983C892.804 143.686 892.538 146.111 891.718 148.331C888.884 155.943 880.961 158.61 873.99 154.387C869.89 151.902 867.177 148.186 865.452 143.843C863.438 138.763 862.051 133.431 859.905 128.4C857.469 122.693 854.828 117.035 851.704 111.703C848.315 105.924 847.797 100.76 851.125 96.4289C854.526 92.0012 860.689 90.3484 866.586 92.9664C869.818 94.4021 873.086 96.3927 875.462 98.9504C886.521 110.834 890.452 125.806 893.407 140.983Z" fill="#D1D1D1" fill-opacity="0.02"/>
<path d="M9.20013 453.431C11.0091 463.468 12.7939 473.253 14.5064 483.049C14.8682 485.088 15.2179 487.175 15.1938 489.226C15.1456 494.173 12.2151 498.118 7.88563 499.457C3.54413 500.796 -1.26769 499.3 -4.00525 495.307C-5.40418 493.268 -6.50161 490.891 -7.11666 488.502C-8.6 482.784 -9.75774 476.981 -10.9999 471.202C-12.3988 464.675 -13.6771 458.124 -15.1243 451.609C-17.1142 442.645 -12.7606 436.782 -3.61934 436.106C4.89482 435.479 13.3849 434.731 21.887 434.043C22.6467 433.983 23.4185 433.934 24.1783 433.983C27.0606 434.188 29.2675 435.503 30.0755 438.374C30.8835 441.233 29.9308 443.791 27.35 445.142C22.5141 447.676 17.5093 449.884 12.5527 452.188C11.4794 452.683 10.3337 453.02 9.20013 453.431Z" fill="#D1D1D1" fill-opacity="0.02"/>
<path d="M653.201 69.4771C652.899 73.193 652.839 76.933 652.248 80.6007C650.946 88.6839 644.506 93.1719 636.498 91.507C629.962 90.1558 623.474 88.5271 617.01 86.826C611.715 85.4265 607.639 82.4345 606.337 76.7883C605.034 71.1421 607.434 66.7385 611.547 63.095C613.428 61.4301 615.574 60.0306 617.335 58.2451C620.061 55.4823 622.919 52.7436 625.09 49.5706C629.865 42.5973 638.777 40.8842 645.458 46.0599C650.101 49.6551 652.164 54.6619 652.755 60.284C653.068 63.3122 652.815 66.4127 652.815 69.4771C652.947 69.4651 653.068 69.4771 653.201 69.4771Z" fill="#D1D1D1" fill-opacity="0.02"/>
<path d="M353.493 476.776C343.544 476.342 334.535 474.05 327.046 467.185C313.901 455.121 314.866 437.748 329.567 427.686C333.209 425.189 337.442 423.355 341.626 421.895C346.571 420.17 351.214 422.522 352.697 426.805C354.217 431.173 351.986 435.407 347.101 437.579C344.907 438.556 342.591 439.376 340.613 440.691C335.717 443.949 335.633 447.809 340.553 450.995C347.041 455.193 354.012 458.318 361.899 458.897C363.31 458.993 364.745 459.126 366.12 459.44C369.713 460.272 372.005 462.854 372.318 466.208C372.656 469.731 370.895 473.133 367.277 474.158C362.791 475.425 358.1 475.944 353.493 476.776Z" fill="#D1D1D1" fill-opacity="0.02"/>
<path d="M1339.98 357.578C1339.76 365.806 1337.03 372.864 1330.85 378.366C1321.03 387.1 1306.97 384.543 1300.76 372.949C1297.37 366.615 1296.88 359.533 1297.6 352.813C1298.5 344.368 1303.88 338.215 1311.73 334.752C1319.8 331.193 1328.7 333.618 1334.18 340.531C1338.16 345.526 1339.77 351.353 1339.98 357.578ZM1323.89 357.928C1323.12 355.769 1322.77 353.875 1321.78 352.415C1321.3 351.703 1319.33 351.245 1318.52 351.643C1315.22 353.296 1313.1 362.223 1315.04 365.384C1316.77 368.219 1319.2 368.485 1320.9 365.601C1322.3 363.249 1322.95 360.438 1323.89 357.928Z" fill="#D1D1D1" fill-opacity="0.02"/>
<path d="M156.354 531.44C156.993 528.182 157.523 523.007 159.043 518.132C163.035 505.296 167.4 492.58 171.754 479.852C172.453 477.825 173.647 475.882 174.95 474.157C177.374 470.948 181.088 469.898 184.609 471.105C188.083 472.287 190.663 475.484 190.495 479.357C190.362 482.253 189.602 485.172 188.818 487.995C184.308 504.113 179.677 520.208 175.155 536.326C174.6 538.316 174.431 540.416 174.057 542.467C173.49 545.591 172.031 548.089 168.787 548.957C165.627 549.802 162.914 548.704 160.755 546.388C157.318 542.708 156.498 538.111 156.354 531.44Z" fill="#D1D1D1" fill-opacity="0.02"/>
<path d="M63.3008 343.161C64.3259 331.108 67.9317 318.332 74.3475 306.412C77.0127 301.466 81.5954 299.548 86.1298 300.875C90.6643 302.202 93.8239 306.304 93.2812 311.769C92.6782 317.837 91.1346 323.809 89.9648 329.818C89.2533 333.473 88.397 337.092 87.7337 340.76C87.0222 344.705 87.1428 348.506 88.9156 352.306C91.3275 357.506 90.4231 362.235 86.9378 365.263C83.2958 368.436 77.9654 368.653 73.1656 365.613C65.4715 360.739 63.3611 353.15 63.3008 343.161Z" fill="#D1D1D1" fill-opacity="0.02"/>
<path d="M286.031 19.7824C285.862 23.8119 284.282 28.4085 281.569 32.6311C275.756 41.6795 262.756 46.252 253.663 34.4649C249.068 28.505 246.801 22.4969 249.852 15.3547C253.156 7.60926 258.836 2.33705 267.399 1.21505C277.842 -0.160307 286.067 7.77816 286.031 19.7824Z" fill="#D1D1D1" fill-opacity="0.02"/>
<path d="M1348.15 141.213C1347.96 142.866 1347.94 144.313 1347.6 145.677C1345.86 152.879 1339.28 154.906 1333.93 149.815C1331.57 147.559 1329.35 145.11 1327.3 142.552C1323.54 137.859 1318.79 135.567 1312.77 135.651C1310.37 135.687 1307.93 135.567 1305.58 135.12C1301.64 134.372 1298.73 132.213 1297.89 128.038C1297.13 124.262 1298.78 120.365 1302.6 118.375C1321.26 108.711 1342.83 119.135 1347.32 135.941C1347.82 137.714 1347.91 139.596 1348.15 141.213Z" fill="#D1D1D1" fill-opacity="0.02"/>
<path d="M1277.06 622.129C1273.42 620.657 1269.52 619.692 1266.29 617.665C1259.41 613.358 1255.16 606.904 1253.35 598.965C1251.64 591.461 1251.97 583.945 1253.75 576.489C1254.1 575.017 1254.69 573.545 1255.45 572.242C1257.37 568.961 1260.21 567.103 1264.13 567.489C1267.92 567.863 1270.49 570.119 1271.49 573.63C1272.38 576.754 1272.9 580.06 1273.02 583.317C1273.35 591.895 1275.57 599.749 1281.08 606.469C1282.31 607.977 1283.69 609.425 1285.24 610.62C1288.66 613.274 1288.98 616.712 1285.33 619.089C1283.08 620.549 1280.16 621.031 1277.06 622.129Z" fill="#D1D1D1" fill-opacity="0.02"/>
<path d="M374.525 749.723C373.79 752.221 373.295 754.826 372.294 757.215C367.41 768.894 361.163 779.824 353.349 789.777C351.648 791.949 349.333 793.916 346.897 795.182C341.675 797.873 336.32 795.062 335.766 789.235C335.476 786.218 335.826 782.611 337.261 780.053C344.038 767.929 351.178 755.997 358.462 744.174C360.669 740.602 364.721 739.686 368.327 740.952C371.921 742.207 374.103 745.452 374.525 749.723Z" fill="#D1D1D1" fill-opacity="0.02"/>
<path d="M100.263 650.373C99.3827 655.175 98.6109 660.93 97.224 666.54C95.4753 673.573 90.1208 675.648 83.5845 672.5C78.9656 670.28 74.2261 668.313 69.4625 666.419C65.4828 664.827 62.2147 662.655 61.684 658.01C61.1413 653.353 63.6498 650.156 67.4486 648.19C74.4191 644.57 81.4861 641.059 88.6857 637.923C93.4614 635.847 98.6953 639.612 99.8651 645.499C100.118 646.778 100.094 648.105 100.263 650.373Z" fill="#D1D1D1" fill-opacity="0.02"/>
<path d="M1317.75 165.1C1317.76 174.342 1308.74 182.811 1298.86 182.823C1289.81 182.823 1282.27 175.572 1282.23 166.814C1282.2 156.402 1290.78 147.329 1300.58 147.402C1309.78 147.45 1317.74 155.666 1317.75 165.1Z" fill="#D1D1D1" fill-opacity="0.02"/>
<path d="M153.072 747.009C152.24 754.259 151.481 760.75 150.757 767.253C150.624 768.447 150.685 769.666 150.504 770.848C149.877 775.167 147.067 777.954 143.304 778.087C139.373 778.232 135.923 775.541 135.477 771.162C134.235 758.747 135.007 746.418 138.818 734.474C140.747 728.429 147.175 726.161 152.373 729.768C156.28 732.483 159.645 736.03 163.058 739.396C163.986 740.313 164.517 741.869 164.746 743.22C165.482 747.54 161.924 750.387 157.788 748.915C156.473 748.444 155.207 747.877 153.072 747.009Z" fill="#D1D1D1" fill-opacity="0.02"/>
<path d="M726.065 345.453C730.009 345.791 733.277 347.07 735.146 350.653C737.088 354.357 736.485 358.109 733.844 361.065C731.637 363.538 728.936 365.854 726.005 367.326C717.696 371.476 709.158 375.168 700.692 379.017C698.352 380.078 696.013 380.187 693.878 378.522C691.563 376.724 690.73 374.167 691.526 371.488C692.19 369.244 693.203 366.892 694.722 365.154C701.657 357.216 710.11 351.244 719.758 347.022C721.712 346.177 723.955 345.96 726.065 345.453Z" fill="#D1D1D1" fill-opacity="0.02"/>
<path d="M-9.08194 292.43C4.53348 292.502 17.57 303.336 19.8372 316.112C20.187 318.091 20.1629 320.311 19.6563 322.253C18.1248 328.201 11.5402 330.192 7.00571 326.054C5.19676 324.401 3.68929 322.229 2.55568 320.033C-0.808983 313.531 -5.66904 309.199 -12.9772 307.522C-17.5961 306.461 -19.7789 303.433 -19.5136 299.717C-19.2362 295.953 -16.2333 293.19 -11.711 292.587C-10.6135 292.442 -9.51609 292.454 -9.08194 292.43Z" fill="#D1D1D1" fill-opacity="0.02"/>
<path d="M853.307 218.848C850.329 218.305 844.878 217.629 839.632 216.206C836.786 215.433 833.964 213.769 831.696 211.85C826.378 207.338 826.969 199.943 832.939 196.359C835.278 194.96 838.221 194.115 840.958 193.922C847.748 193.452 854.164 195.334 860.23 198.362C860.809 198.652 861.375 199.014 861.906 199.388C866.682 202.657 868.732 207.507 867.272 212.019C865.837 216.459 861.641 218.968 853.307 218.848Z" fill="#D1D1D1" fill-opacity="0.02"/>
<path d="M1169.66 39.5329C1168.9 39.5329 1168.13 39.5812 1167.37 39.5209C1162.97 39.2072 1159.81 36.5651 1159.24 32.7406C1158.67 28.9403 1160.85 25.2606 1165.04 23.9214C1168.36 22.8597 1171.84 22.3168 1175.28 21.7015C1181.53 20.5795 1187.78 19.542 1194.04 18.5406C1195.55 18.2993 1197.09 18.1666 1198.61 18.2511C1202.56 18.4924 1205.62 20.8932 1206.69 24.4161C1207.74 27.8545 1206.6 31.8237 1203.33 33.9712C1201.29 35.3104 1198.82 36.4082 1196.43 36.7219C1187.54 37.8922 1178.59 38.7005 1169.67 39.6415C1169.66 39.6053 1169.66 39.5691 1169.66 39.5329Z" fill="#D1D1D1" fill-opacity="0.02"/>
<path d="M995.721 258.42C976.751 258.251 964.836 243.484 968.912 226.859C969.189 225.701 969.587 224.53 970.178 223.505C971.601 221.02 973.784 219.717 976.703 219.982C979.669 220.248 981.575 221.997 982.286 224.772C982.913 227.197 983.143 229.718 983.504 232.204C984.686 240.299 987.882 243.508 996.01 244.449C998.832 244.775 1001.71 244.582 1004.5 245.028C1009.1 245.764 1010.43 249.299 1007.48 252.906C1004.14 257.032 999.471 258.384 995.721 258.42Z" fill="#D1D1D1" fill-opacity="0.02"/>
<path d="M210.127 410.216C212.998 410.24 215.542 411.845 216.941 414.837C218.099 417.286 218.943 419.916 219.643 422.546C221.162 428.349 223.658 433.585 227.445 438.278C231.292 443.056 231.654 447.206 228.808 450.427C225.902 453.733 220.752 454.022 215.904 450.885C214.011 449.655 212.166 448.135 210.767 446.373C204.254 438.254 201.71 428.759 202.035 418.516C202.204 413.437 205.364 410.288 210.127 410.216Z" fill="#D1D1D1" fill-opacity="0.02"/>
<path d="M393.387 175.742C387.936 174.994 384.028 172.122 383.232 167.719C382.424 163.183 384.86 158.526 389.913 157.5C399.416 155.57 409.064 154.267 418.7 153.121C422.089 152.723 425.116 154.448 426.635 157.862C427.829 160.54 427.214 163.05 425.417 165.209C424.669 166.114 423.693 167.116 422.631 167.417C412.911 170.277 403.143 172.991 393.387 175.742Z" fill="#D1D1D1" fill-opacity="0.02"/>
<path d="M1103.69 3.79799C1103.73 -5.06944 1111.42 -10.9328 1120.03 -8.74913C1128.39 -6.63783 1132.83 0.781861 1133.53 8.41871C1134.17 15.3317 1128.32 21.0624 1121.35 21.1347C1112.28 21.2192 1103.66 12.7499 1103.69 3.79799Z" fill="#D1D1D1" fill-opacity="0.02"/>
<path d="M63.0229 127.061C62.5646 134.324 61.6722 141.37 58.7417 147.981C56.3539 153.338 52.9168 157.778 46.899 159.43C44.2821 160.142 43.4982 159.382 44.3424 156.909C48.2618 145.508 48.7562 133.781 47.7071 121.898C47.4176 118.628 47.1041 115.347 47.1282 112.077C47.1523 108.036 49.4919 105.273 52.8686 104.778C56.2333 104.283 59.417 106.286 60.2853 110.267C61.4913 115.805 62.1305 121.451 63.0229 127.061Z" fill="#D1D1D1" fill-opacity="0.02"/>
<path d="M549.09 365.855C548.197 372.575 547.606 378.354 546.593 384.06C546.183 386.364 545.339 388.934 543.832 390.611C542.409 392.192 539.743 393.724 537.826 393.495C535.896 393.277 533.46 391.214 532.628 389.344C531.531 386.883 531.458 383.807 531.543 381.008C531.688 375.977 532.399 370.97 532.628 365.939C532.737 363.562 532.484 361.125 532.049 358.773C531.181 354.08 533.014 350.303 537.066 349C540.998 347.734 545.544 349.592 546.919 353.887C548.234 357.964 548.511 362.392 549.09 365.855Z" fill="#D1D1D1" fill-opacity="0.02"/>
<path d="M378.843 195.466C378.276 197.203 377.697 200.135 376.419 202.717C373.054 209.521 366.409 212.429 360.488 210.004C353.517 207.145 349.742 199.99 352.082 192.908C353.071 189.928 354.964 186.948 357.195 184.741C361.091 180.892 366.023 179.348 371.353 181.688C376.72 184.041 378.288 188.879 378.843 195.466Z" fill="#D1D1D1" fill-opacity="0.02"/>
<path d="M138.276 490.084C126.614 489.951 114.735 481.072 111.624 470.78C110.539 467.173 111.479 463.771 114.084 461.925C116.761 460.019 120.126 460.176 123.081 462.939C128.725 468.223 134.827 472.747 141.918 475.896C142.702 476.246 143.425 476.789 144.089 477.356C146.272 479.226 147.887 481.421 147.128 484.486C146.392 487.466 144.113 488.962 141.327 489.698C140.085 490.011 138.746 490.023 138.276 490.084Z" fill="#D1D1D1" fill-opacity="0.02"/>
<path d="M782.468 45.7093C787.304 45.5645 790.114 47.338 790.898 52.1156C792.068 59.2216 792.888 66.4241 793.382 73.6025C793.708 78.2836 790.584 81.8547 786.629 82.3855C782.613 82.9284 778.886 80.4431 777.946 75.6052C776.848 70.0435 776.523 64.3249 775.896 58.6787C775.715 57.05 775.739 55.3971 775.57 53.7684C774.931 47.9533 776.679 45.8782 782.468 45.7093Z" fill="#D1D1D1" fill-opacity="0.02"/>
<path d="M334.366 736.416C328.903 736.404 325.599 733.835 325.092 729.998C324.574 726.053 326.962 723.037 331.484 721.867C338.358 720.093 345.184 718.175 352.094 716.558C354.482 716.003 357.135 715.726 359.511 716.172C364.118 717.029 365.589 721.408 362.827 725.208C362.2 726.077 361.416 726.934 360.512 727.489C352.191 732.676 342.893 734.92 334.366 736.416Z" fill="#D1D1D1" fill-opacity="0.02"/>
<path d="M184.259 672.981C190.867 672.969 196.029 678.217 196.053 684.974C196.077 692.08 190.409 698.269 183.8 698.377C177.36 698.486 171.463 692.586 171.391 685.963C171.294 678.76 177.011 673.006 184.259 672.981Z" fill="#D1D1D1" fill-opacity="0.02"/>
<path d="M955.248 260.024C955.67 263.583 955.959 267.166 956.574 270.689C957.105 273.693 958.986 275.515 962.206 275.684C962.64 275.708 963.087 275.805 963.485 275.949C965.065 276.528 966.632 277.132 968.2 277.723C967.103 279.52 966.367 281.777 964.823 283.019C959.831 287.013 951.799 285.456 948.145 279.701C942.645 271.039 942.211 261.556 944.756 251.869C945.491 249.045 947.735 247.537 950.762 247.863C953.801 248.201 955.441 250.252 955.827 253.087C956.128 255.343 955.887 257.672 955.887 259.964C955.682 259.988 955.465 260 955.248 260.024Z" fill="#D1D1D1" fill-opacity="0.02"/>
<path d="M1015.93 137.46C1016.87 135.084 1017.95 131.38 1019.76 128.074C1021.99 123.972 1024.62 120.039 1027.47 116.335C1030.15 112.861 1034.02 112.233 1037.05 114.152C1040.05 116.046 1040.91 119.701 1038.88 123.743C1036.1 129.293 1033.08 134.746 1030.04 140.163C1029.26 141.574 1028.15 142.853 1027 143.999C1024.91 146.111 1022.31 146.919 1019.51 145.64C1016.67 144.349 1015.97 141.707 1015.93 137.46Z" fill="#D1D1D1" fill-opacity="0.02"/>
<path d="M948.663 -5.75843C947.903 -1.60823 947.047 3.32617 946.094 8.23643C945.889 9.29811 945.443 10.3236 944.961 11.3008C943.61 14.0274 941.584 15.9939 938.328 15.7165C935.096 15.439 933.215 13.2312 932.467 10.2874C930.284 1.68539 931.743 -6.65121 934.951 -14.7103C936.085 -17.5696 938.63 -19.0053 941.837 -18.7037C945.057 -18.4021 947.059 -16.4235 947.807 -13.4435C948.35 -11.2478 948.338 -8.90728 948.663 -5.75843Z" fill="#D1D1D1" fill-opacity="0.02"/>
<path d="M358.535 657.141C358.305 657.937 358.197 659.578 357.437 660.82C354.651 665.369 351.709 669.832 348.682 674.224C347.898 675.358 346.668 676.251 345.498 677.011C343.05 678.591 340.385 679.183 337.816 677.397C335.404 675.72 334.958 673.126 335.283 670.375C335.38 669.519 335.512 668.578 335.935 667.854C339.058 662.497 342.025 657.02 345.522 651.905C347.572 648.9 351.106 648.249 354.036 649.455C357.087 650.722 358.498 653.147 358.535 657.141Z" fill="#D1D1D1" fill-opacity="0.02"/>
<path d="M417.579 32.3661C415.444 31.0149 412.827 30.0618 411.271 28.2159C408.269 24.6448 405.652 20.6997 403.252 16.6701C401.033 12.9422 401.696 9.04536 404.373 6.80135C407.063 4.54528 411.247 4.27986 414.274 7.25981C418.194 11.1205 421.992 15.3551 424.754 20.0723C427.998 25.5979 424.018 31.7749 417.579 32.3661Z" fill="#D1D1D1" fill-opacity="0.02"/>
<path d="M151.771 209.052C151.746 202.477 157.113 196.59 163.215 196.517C169.161 196.445 174.081 201.765 174.057 208.244C174.033 214.506 168.437 220.297 162.443 220.26C156.848 220.224 151.807 214.928 151.771 209.052Z" fill="#D1D1D1" fill-opacity="0.02"/>
<path d="M311.429 495.861C313.986 496.537 318.653 497.647 323.235 499.047C324.731 499.505 326.142 500.603 327.336 501.689C330.363 504.451 329.989 506.635 326.238 508.409C324.876 509.048 323.38 509.567 321.885 509.784C315.939 510.641 309.982 511.449 304.012 512.1C300.937 512.438 298.405 511.208 296.873 508.409C295.39 505.718 295.944 502.328 298.139 499.867C300.479 497.261 304.676 495.729 311.429 495.861Z" fill="#D1D1D1" fill-opacity="0.02"/>
<path d="M1269.5 336.923C1269.19 344.813 1267.21 351.159 1262.31 356.395C1261.64 357.107 1260.93 357.819 1260.12 358.362C1257.98 359.81 1255.62 361.137 1253.16 359.411C1250.77 357.734 1250.74 355.068 1251.47 352.547C1252.19 350.037 1253.52 347.685 1254.17 345.151C1255.15 341.363 1256.03 337.526 1256.45 333.642C1256.9 329.54 1258.21 327.223 1261.23 326.741C1264.35 326.246 1267.18 328.08 1268.4 331.687C1269.03 333.642 1269.25 335.729 1269.5 336.923Z" fill="#D1D1D1" fill-opacity="0.02"/>
<path d="M1230.63 139.488C1230.69 142.432 1228.8 145.158 1225.47 145.858C1218.41 147.342 1211.31 148.669 1204.17 149.67C1202.7 149.876 1200.35 148.729 1199.54 147.463C1198.73 146.208 1198.9 143.88 1199.44 142.299C1199.94 140.887 1201.35 139.609 1202.66 138.716C1208.62 134.686 1215.34 132.78 1222.47 132.623C1227.16 132.527 1230.55 135.627 1230.63 139.488Z" fill="#D1D1D1" fill-opacity="0.02"/>
<path d="M705.925 402.168C703.743 402.035 701.536 402.035 699.377 401.734C695.759 401.227 693.419 398.778 693.166 395.533C692.925 392.492 694.71 389.175 698.062 388.62C703.718 387.703 709.519 387.172 715.235 387.341C719.046 387.449 721.35 390.574 721.519 393.831C721.675 397.101 719.71 400.081 715.995 401.07C712.763 401.927 709.338 402.084 706.01 402.554C705.962 402.433 705.949 402.301 705.925 402.168Z" fill="#D1D1D1" fill-opacity="0.02"/>
<path d="M19.6924 392.999C20.5124 390.08 20.9466 387.365 22.044 384.928C23.25 382.25 25.7222 380.899 28.7372 381.031C31.8968 381.176 34.2364 382.841 35.2253 385.773C37.4563 392.36 36.0212 398.646 32.4033 404.244C30.112 407.791 24.7333 407.067 22.6591 402.892C21.1395 399.864 20.6451 396.317 19.6924 392.999Z" fill="#D1D1D1" fill-opacity="0.02"/>
<path d="M457.641 781.574C457.641 784.084 457.521 786.605 457.677 789.102C457.81 791.286 456.773 792.432 454.843 791.865C452.335 791.141 449.404 790.393 447.704 788.632C443.953 784.759 442.229 779.74 442.422 774.251C442.603 769.268 445.943 765.733 450.2 765.782C454.614 765.83 457.641 769.22 457.701 774.36C457.726 776.76 457.496 779.161 457.376 781.562C457.46 781.574 457.557 781.574 457.641 781.574Z" fill="#D1D1D1" fill-opacity="0.02"/>
<path d="M844.154 63.5047C838.558 63.5771 833.18 58.4979 833.107 53.0809C833.035 48.0017 837.208 44.0204 842.671 43.9481C848.423 43.8757 853.488 48.798 853.512 54.4683C853.537 59.3545 849.304 63.4444 844.154 63.5047Z" fill="#D1D1D1" fill-opacity="0.02"/>
<path d="M3.18217 251.447C3.26659 257.383 -1.17139 261.883 -7.0927 261.871C-11.5066 261.859 -14.5577 259.024 -14.7386 254.608C-14.7988 253.088 -14.7024 251.531 -14.4371 250.035C-13.3999 244.365 -9.21521 240.758 -4.35515 241.204C0.324019 241.639 3.09775 245.391 3.18217 251.447Z" fill="#D1D1D1" fill-opacity="0.02"/>
<path d="M1240.41 27.3109C1240.48 32.6434 1236.07 37.0952 1230.64 37.1556C1225.43 37.228 1221.62 34.1394 1221.51 29.76C1221.35 23.3658 1225.6 18.2987 1231.15 18.2504C1236.24 18.2022 1240.34 22.2076 1240.41 27.3109Z" fill="#F1DDC4"/>
<path d="M508.002 244.859C508.436 242.048 508.689 238.755 509.509 235.618C510.51 231.769 514.985 230.696 517.421 233.724C520.616 237.681 522.908 242.109 522.799 247.441C522.703 252.171 520.122 255.5 516.203 255.802C512.331 256.104 509.437 253.51 508.533 248.877C508.291 247.695 508.207 246.5 508.002 244.859Z" fill="#D1D1D1" fill-opacity="0.02"/>
<path d="M676.706 559.623C676.718 564.412 672.786 568.128 667.709 568.116C662.258 568.104 659.364 564.05 659.291 556.317C659.255 552.565 661.812 550.212 665.876 550.248C672.437 550.321 676.694 554.013 676.706 559.623Z" fill="#D1D1D1" fill-opacity="0.02"/>
<path d="M715.852 243.689C715.876 238.501 719.47 234.556 724.185 234.544C729.021 234.532 732.699 238.465 732.603 243.544C732.506 248.623 728.78 252.556 724.052 252.532C719.385 252.508 715.828 248.672 715.852 243.689Z" fill="#D1D1D1" fill-opacity="0.02"/>
<path d="M478.938 585.815C483.725 585.815 487.488 589.592 487.452 594.381C487.416 599.099 483.484 602.923 478.769 602.839C474.126 602.742 470.496 599.074 470.448 594.405C470.399 589.616 474.162 585.815 478.938 585.815Z" fill="#D1D1D1" fill-opacity="0.02"/>
<path d="M1177.6 637.379C1176.53 638.863 1175.71 641.131 1174.3 641.602C1172.84 642.072 1170.67 641.047 1169.08 640.178C1168.03 639.611 1167.6 638.018 1166.64 637.162C1164.27 635.026 1161.86 632.879 1159.23 631.093C1157.54 629.947 1155.63 629.187 1155.97 626.762C1156.32 624.241 1158.08 623.07 1160.47 622.708C1167.41 621.659 1176.93 629.851 1177.6 637.379Z" fill="#D1D1D1" fill-opacity="0.02"/>
<path d="M467.385 344.476C468.06 344.935 469.507 345.671 470.665 346.72C473.33 349.133 475.815 351.715 478.431 354.176C480.397 356.022 481.241 358.158 479.927 360.631C478.576 363.177 476.068 364.359 473.547 363.237C467.843 360.703 463.875 356.131 461.693 350.364C460.571 347.372 463.369 344.368 467.385 344.476Z" fill="#D1D1D1" fill-opacity="0.02"/>
<path d="M1124.11 206.337C1124.22 201.692 1126.8 198.604 1130.48 198.688C1134.48 198.785 1138.97 203.514 1139.01 207.7C1139.05 211.706 1136.16 214.927 1132.25 215.205C1127.93 215.518 1124.51 212.478 1124.12 207.978C1124.07 207.435 1124.11 206.88 1124.11 206.337Z" fill="#D1D1D1" fill-opacity="0.02"/>
<path d="M971.866 774.397C971.131 775.265 970.094 777.509 968.393 778.269C965.185 779.717 961.64 780.67 958.142 781.177C955.019 781.623 953.331 778.511 955.019 775.519C957.322 771.441 960.856 768.738 965.595 768.123C969.153 767.677 971.89 770.041 971.866 774.397Z" fill="#D1D1D1" fill-opacity="0.02"/>
<path d="M353.156 290.632C353.107 294.722 350.056 297.955 346.282 297.907C342.495 297.859 339.54 294.565 339.588 290.463C339.625 286.53 342.543 283.466 346.294 283.418C350.165 283.369 353.192 286.554 353.156 290.632Z" fill="#D1D1D1" fill-opacity="0.02"/>
<path d="M1287.05 580.735C1288.45 581.544 1289.75 581.894 1290.36 582.75C1292.02 585.018 1293.55 587.431 1294.8 589.941C1295.91 592.16 1294.25 594.416 1291.54 594.658C1288.58 594.923 1286.27 593.367 1285.15 590.978C1284.13 588.782 1283.77 586.092 1283.83 583.631C1283.85 582.69 1285.83 581.773 1287.05 580.735Z" fill="#D1D1D1" fill-opacity="0.02"/>
<path d="M1248.9 22.1232C1247.27 23.221 1246.3 24.4034 1245.56 24.2586C1244.56 24.0656 1243.76 22.8712 1242.87 22.1111C1243.67 21.2907 1244.43 19.8792 1245.28 19.8068C1246.2 19.7344 1247.2 20.9529 1248.9 22.1232Z" fill="#D1D1D1" fill-opacity="0.02"/>
<path d="M760.255 473.265C751.995 471.805 745.145 468.319 740.61 461.213C738.5 457.907 739.115 454.252 741.659 452.285C744.288 450.258 747.725 450.644 750.391 453.769C754.394 458.45 759.978 460.115 765.357 462.226C767.552 463.083 770.398 463.445 770.277 466.63C770.156 469.67 767.841 471.166 765.26 472.083C763.644 472.65 761.896 472.891 760.255 473.265Z" fill="#D1D1D1" fill-opacity="0.02"/>
<path d="M425.635 250.867C426.829 247.043 427.745 243.11 429.301 239.43C430.712 236.088 433.847 234.882 436.826 235.811C439.793 236.74 441.674 239.503 440.999 243.062C440.143 247.55 438.864 251.965 437.502 256.333C436.766 258.673 435.343 260.797 432.364 260.531C429.518 260.29 427.866 258.408 427.01 255.874C426.503 254.342 426.358 252.689 426.057 251.085C425.912 251.024 425.767 250.952 425.635 250.867Z" fill="#D1D1D1" fill-opacity="0.02"/>
<path d="M938.654 464.096C938.534 469.525 937.473 473.941 934.012 477.427C931.382 480.081 928.802 480.419 926.305 477.789C923.399 474.737 920.746 471.335 918.539 467.739C915.005 461.961 911.942 455.88 908.674 449.932C908.3 449.257 907.89 448.605 907.528 447.941C904.417 442.235 904.682 437.554 908.312 434.043C911.942 430.532 918.081 429.857 922.88 433.319C926.173 435.684 929.224 438.797 931.443 442.187C935.893 448.967 938.22 456.616 938.654 464.096Z" fill="#D1D1D1" fill-opacity="0.02"/>
<path d="M920.553 403.664C906.684 403.664 898.314 395.11 900.123 383.36C900.558 380.573 901.836 377.605 903.597 375.409C908.312 369.509 916.874 370.426 920.709 376.941C921.361 378.063 922.144 379.33 922.181 380.549C922.362 387.606 927.692 389.585 932.89 391.672C935.965 392.903 936.459 393.94 934.482 396.606C930.779 401.577 925.593 403.495 920.553 403.664Z" fill="#D1D1D1" fill-opacity="0.02"/>
<path d="M982.274 416.695C984.192 417.563 985.844 418.178 987.351 419.035C991.247 421.255 992.827 425.345 991.367 429.073C989.968 432.644 986.049 434.84 981.913 433.645C977.209 432.294 972.422 430.81 968.152 428.494C961.363 424.814 960.639 417.684 965.764 411.905C969.37 407.827 972.832 403.605 976.269 399.37C979.042 395.968 983.118 394.99 986.447 397.102C989.703 399.165 990.837 403.496 988.702 407.272C986.857 410.481 984.529 413.413 982.274 416.695Z" fill="#D1D1D1" fill-opacity="0.02"/>
<path d="M952.101 328.104C952.125 335.813 947 341.013 939.438 340.953C931.37 340.881 925.268 334.812 925.256 326.825C925.244 318.875 930.719 312.517 937.593 312.481C945.287 312.444 952.065 319.756 952.101 328.104Z" fill="#D1D1D1" fill-opacity="0.02"/>
<path d="M1120.79 416.888C1115.63 416.333 1111.98 413.365 1108.83 410.421C1107.3 408.985 1106.88 405.245 1107.44 402.917C1108.79 397.331 1112.86 393.458 1117.93 390.985C1123.26 388.403 1131.32 392.155 1134.7 398.429C1137.58 403.798 1136.02 409.77 1130.37 413.099C1127.44 414.825 1124 415.657 1120.79 416.888ZM1117.92 404.292C1119.38 405.511 1120.44 406.85 1120.85 406.681C1122.81 405.849 1124.57 404.594 1126.41 403.496C1125.13 402.29 1123.64 399.937 1122.64 400.13C1121.06 400.42 1119.84 402.459 1117.92 404.292Z" fill="#D1D1D1" fill-opacity="0.02"/>
<path d="M1112.82 510.086C1120.86 510.17 1127.17 515.466 1127.05 522.03C1126.93 528.737 1120.39 534.396 1112.93 534.251C1105.62 534.106 1099.21 528.448 1099.3 522.235C1099.42 515.792 1105.84 510.013 1112.82 510.086Z" fill="#D1D1D1" fill-opacity="0.02"/>
<path d="M1181.83 552.264C1175.53 551.926 1170.54 549.971 1166.43 546.038C1163.35 543.095 1162.88 539.355 1165.07 536.652C1167.29 533.938 1170.83 533.901 1174.51 536.23C1176.97 537.798 1179.65 539.005 1182.27 540.32C1183.73 541.056 1185.64 541.309 1186.64 542.419C1187.89 543.818 1189.31 546.014 1189.04 547.583C1188.76 549.163 1186.65 550.635 1185.05 551.697C1184.06 552.372 1182.51 552.167 1181.83 552.264Z" fill="#D1D1D1" fill-opacity="0.02"/>
<path d="M872.326 371.114C877.318 371.078 881.624 375.229 881.708 380.151C881.793 385.182 877.511 389.115 872 389.079C866.537 389.042 862.22 385.339 862.111 380.609C862.003 375.699 866.899 371.151 872.326 371.114Z" fill="#D1D1D1" fill-opacity="0.02"/>
<path d="M1009.07 395.533C1009.06 392.975 1010.19 391.347 1012.87 391.153C1015.45 390.973 1017.25 393.06 1017.27 396.136C1017.3 398.766 1016.23 400.648 1013.45 400.962C1010.94 401.239 1009.12 398.863 1009.07 395.533Z" fill="#D1D1D1" fill-opacity="0.02"/>
</g>
<defs>
<clipPath id="clip0_267_7383">
<rect width="1552" height="1079.12" fill="white" transform="translate(-125 -39.5625)"/>
</clipPath>
</defs>
</svg>
