<svg width="94" height="169" viewBox="0 0 94 169" fill="none" xmlns="http://www.w3.org/2000/svg">
<path id="Vector" opacity="0.07" d="M12.4279 51.5154C14.9875 58.048 17.6704 65.1307 20.5245 72.1709C30.5476 97.1106 35.0868 122.192 30.359 147.499C29.9823 149.501 29.7452 151.552 29.0539 153.445C26.0795 161.287 22.2841 169.014 11.2769 168.844C0.811071 168.691 -3.0477 160.594 -6.92894 153.471C-19.9504 129.631 -32.6089 105.644 -45.7665 81.8584C-58.1456 59.5588 -65.9638 36.7321 -63.8745 12.614C-59.5043 -37.6542 5.06687 -65.3949 56.3051 -38.9835C61.5818 -36.2525 66.7199 -32.8924 71.1604 -29.0959C88.0997 -14.7005 96.996 2.27124 91.6631 21.956C86.316 41.5682 69.7175 50.7066 48.2774 52.8987C37.168 54.0468 25.3957 52.1241 12.4279 51.5154Z" fill="black"/>
</svg>
