<svg width="51" height="81" viewBox="0 0 51 81" fill="none" xmlns="http://www.w3.org/2000/svg">
<g id="Group 3808">
<path id="Vector" d="M45.8256 31.9012C45.7092 28.502 45.5838 25.3714 45.4585 22.2407C45.3893 21.1021 45.32 19.9634 45.0957 18.8862C44.6607 16.7793 43.2634 15.5308 41.6389 15.5914C40.0143 15.6521 38.6577 17.0907 38.456 19.2377C38.3087 20.6742 38.3827 22.1291 38.3654 23.567C38.331 29.8883 38.4128 36.1634 38.1958 42.4509C38.0282 47.7118 37.313 52.8716 37.1842 58.1171C36.9881 64.9264 37.052 71.7387 37.1023 78.5034C37.1214 79.7679 37.5056 81.0998 37.9263 82.2583C38.2807 83.3369 39.1547 83.5207 39.7543 82.7531C40.5704 81.6876 41.4617 80.4334 41.8053 79.0781C42.3923 76.6193 42.7443 74.0947 42.9913 71.5056C43.7995 62.1746 44.5415 52.7638 45.2584 43.4159C45.358 42.2633 45.7273 41.746 46.6216 41.5506C50.0163 40.7356 53.3836 39.8255 56.7645 38.9629C57.49 38.7815 58.2292 38.6476 58.8998 38.2759C60.2547 37.58 61.1734 36.4209 61.1835 34.5088C61.1799 32.549 60.3392 31.133 58.8853 30.4369C57.9289 29.9678 56.8586 29.7028 55.8432 29.6281C53.032 29.4699 50.2989 30.1817 47.5957 31.1468C47.014 31.3773 46.5236 31.6246 45.8256 31.9012Z" fill="#0CAD8E"/>
<path id="Vector_2" d="M33.2497 37.734C29.5657 39.1937 26.0893 40.6241 22.6242 41.9441C21.073 42.5587 19.467 42.983 17.8883 43.5025C17.2542 43.7007 16.8616 43.5383 16.6146 42.6821C14.9839 37.1796 13.2758 31.7079 11.6702 26.1425C11.2722 24.763 11.1069 23.2914 10.7477 21.8966C10.4709 20.7871 10.2054 19.5672 9.70958 18.5976C8.8916 16.9605 7.28253 16.3259 5.88648 16.8791C4.51548 17.3693 3.57644 18.9075 3.59139 20.7567C3.60573 21.7051 3.75014 22.655 4.01088 23.5588C6.53527 31.4103 9.09844 39.2465 11.7004 47.0674C12.5989 49.7326 14.3249 51.2219 16.6362 50.9952C18.6235 50.8439 20.606 50.3764 22.5336 49.7186C25.9373 48.635 29.2723 47.3136 32.6598 46.0244C32.97 45.9015 33.353 45.4317 33.387 45.1002C33.4037 42.7614 33.3154 40.3582 33.2497 37.734Z" fill="black"/>
<path id="Vector_3" d="M48.5465 77.7314C48.8161 78.3666 49.0858 79.0018 49.2642 79.6202C49.6735 80.8891 50.3214 80.7384 51.001 80.0981C52.5652 78.6303 53.4971 76.6179 53.7351 74.2974C54.1205 70.5404 54.4145 66.7666 54.656 62.9605C54.8141 60.5127 54.7645 58.0941 54.8701 55.6141C54.9959 52.7549 53.7532 50.5441 51.7426 50.0156C49.6932 49.5025 47.6087 50.9645 47.2227 53.8207C46.8505 56.7244 46.7271 59.7416 46.85 62.7141C47.0559 66.8729 47.6132 71.0515 48.0268 75.181C48.1962 76.068 48.3907 76.892 48.5465 77.7314Z" fill="black"/>
<path id="Vector_4" d="M20.2713 30.9473C20.6144 32.1365 20.9712 33.3732 21.3143 34.5624C21.7534 36.0846 22.3172 36.3912 23.4644 35.7246C24.6117 35.058 25.7978 34.3761 26.8764 33.4717C28.8285 31.8501 30.7143 30.1488 32.5202 28.3202C34.5815 26.1784 34.4364 24.3276 32.1192 22.4365C29.4595 20.2571 26.5629 18.7545 23.4295 17.9289C22.3067 17.6317 21.1337 17.4604 19.9745 17.3367C18.3726 17.1763 17.7069 17.8641 17.9318 19.8422C18.2713 22.5169 18.8322 25.2099 19.3405 27.8708C19.5649 28.948 19.9444 29.9637 20.2713 30.9473C20.2325 30.9626 20.2325 30.9626 20.2713 30.9473Z" fill="#F1DDC4"/>
</g>
</svg>
