<svg width="153" height="100" viewBox="0 0 153 100" fill="none" xmlns="http://www.w3.org/2000/svg">
<g id="Group 3820">
<path id="Vector" d="M183.17 16.4955C188.003 28.7612 177.637 68.7124 167.621 76.6325C167.411 76.212 167.131 75.7914 166.92 75.3709C164.469 70.4646 161.247 66.1891 157.045 62.6146C156.274 61.9838 155.434 61.353 154.523 60.9324C150.251 59.1101 145.768 61.9837 145.908 66.6097C145.978 68.3619 146.539 70.2543 147.309 71.8664C149.831 76.9129 152.492 81.9593 155.294 86.8656C162.298 99.2014 168.321 111.958 173.644 125.065C173.924 125.836 174.205 126.536 174.625 127.728C173.504 127.307 172.804 127.097 172.103 126.817C152.772 119.317 133.441 111.748 114.04 104.388C102.063 99.8322 89.6657 96.6081 76.9883 94.6456C76.6381 94.5755 76.2879 94.4353 75.7276 94.3652C76.0078 93.8746 76.1478 93.3139 76.428 93.0335C79.3697 89.8795 82.1013 86.5152 85.2531 83.5714C87.7746 81.1883 90.9264 79.4361 93.658 77.2633C95.1288 76.0718 96.5296 74.7401 97.5802 73.1981C99.4013 70.6048 99.1211 67.3106 97.3701 64.9976C95.5491 62.6146 92.5373 61.7034 89.4556 62.6146C88.4049 62.965 87.3543 63.4556 86.3037 64.0164C80.0701 67.4508 74.677 72.0066 69.9142 77.2633C64.8713 82.7303 59.8284 88.1973 54.8555 93.7344C53.5247 95.2063 52.4741 96.8184 51.2834 98.4304C50.9332 98.9211 50.7932 99.4818 50.513 100.183C54.4353 100.743 58.0774 101.024 61.6494 101.865C69.2138 103.617 76.7782 105.299 84.2025 107.682C103.464 113.92 122.375 121.14 140.935 129.27C149.48 132.985 158.235 136.139 166.78 139.643C171.263 141.466 175.605 143.638 180.018 145.601C180.718 145.951 181.419 146.302 182.119 146.512C185.271 147.633 188.283 147.493 190.804 145.04C193.326 142.587 193.536 139.573 192.345 136.349C190.454 131.232 188.703 125.976 186.532 120.999C181.769 110.135 176.726 99.4818 171.893 88.688C171.613 88.0571 171.543 86.9357 171.893 86.5853C179.948 78.9455 184.641 69.3432 188.423 59.1802C192.205 49.0872 194.586 38.714 195.287 27.9902C195.707 21.542 195.007 15.2339 192.415 9.27623C191.295 6.68291 189.614 4.22977 187.722 2.19716C185.271 -0.466249 181.489 -0.746604 178.687 1.56636C158.375 18.3178 134.282 22.4531 109.067 22.1027C78.8094 21.6821 49.3923 16.2151 20.5356 7.24364C16.4032 5.98202 12.2008 4.86057 7.99835 3.87931C6.45746 3.52886 4.70645 3.45879 3.09552 3.73915C0.0137329 4.29986 -0.966827 6.96327 1.06435 9.27623C2.39511 10.8182 4.21617 12.0798 6.03723 13.0611C13.6716 17.1964 21.8664 20 30.3413 22.1027C54.2251 28.0603 78.2491 32.8264 102.903 34.088C122.164 35.0693 141.216 33.9478 159.566 27.3594C167.761 24.6259 175.675 21.1915 183.17 16.4955Z" fill="black"/>
<path id="Vector_2" d="M57.0266 43.0586C55.4857 43.8296 53.7347 44.3903 52.3339 45.3715C50.9331 46.4229 49.6723 47.7546 48.6217 49.1564C44.1391 55.114 39.7266 61.0717 35.384 67.0994C33.7031 69.4123 32.5824 72.0757 32.5124 75.0896C32.4423 77.5428 33.1427 78.1736 35.5241 77.9633C38.746 77.6128 41.4776 76.0709 43.7189 73.828C47.2909 70.4637 50.793 67.0293 54.0849 63.4547C56.6764 60.6511 59.1978 57.7774 61.5092 54.7636C62.4898 53.4319 63.2602 51.6095 63.4703 49.9274C63.8205 46.3528 60.8088 43.4791 57.0266 43.0586Z" fill="#F1DDC4"/>
<path id="Vector_3" d="M18.5047 107.472C18.5747 109.504 18.5047 111.257 18.7849 112.939C19.3452 116.584 21.9367 118.196 25.4387 117.074C27.8901 116.303 30.3415 115.252 32.863 114.551C35.5245 113.85 38.3262 113.429 40.9877 112.869C41.2679 112.799 41.6181 112.869 41.9683 112.799C43.9294 112.588 45.5403 111.747 46.1707 109.785C46.8011 107.962 46.1707 106.07 44.3497 104.738C41.6181 102.776 38.7464 100.954 36.0148 98.991C34.1237 97.5892 32.3027 96.1173 30.5517 94.5754C28.3804 92.6128 25.0185 92.5427 22.5671 94.6454C20.676 96.3276 19.6253 98.5004 19.2751 100.954C18.8549 103.266 18.7148 105.509 18.5047 107.472Z" fill="#F1DDC4"/>
<path id="Vector_4" d="M145.488 90.721C145.278 89.7397 145.208 88.1276 144.578 86.7959C142.477 82.3102 140.165 77.9646 137.994 73.549C137.013 71.6565 136.103 69.8342 135.122 67.9418C134.212 66.2596 133.371 64.5074 132.111 63.1056C130.36 61.073 127.488 60.7926 125.317 61.9842C123.075 63.1757 121.955 65.6989 122.515 68.2922C122.795 69.5539 123.285 70.8856 123.986 72.007C128.048 79.1561 132.111 86.2352 136.243 93.3143C136.523 93.7348 136.803 94.1554 137.083 94.5759C138.344 96.2581 139.885 97.5197 142.126 96.8889C144.298 96.3281 145.138 94.5058 145.418 92.4031C145.348 92.1228 145.418 91.7022 145.488 90.721Z" fill="#DA4E41"/>
<path id="Vector_5" d="M26.3496 65.278C25.7893 61.7735 25.299 58.269 24.5286 54.7645C23.9682 51.9609 21.7269 50.5592 19.2055 50.9797C16.684 51.4002 15.0731 53.7132 15.4933 56.5168C16.2638 62.124 17.0342 67.7311 17.8747 73.2682C18.2249 75.6513 19.4856 76.983 21.2367 77.0531C22.9176 77.1232 24.3184 76.0017 24.8087 73.6888C25.5091 71.0955 25.8593 68.2218 26.3496 65.278Z" fill="#DA4E41"/>
</g>
</svg>
