<svg width="110" height="156" viewBox="0 0 110 156" fill="none" xmlns="http://www.w3.org/2000/svg">
<g id="Group 3808">
<path id="Vector" d="M98.3806 63.1833C98.1191 56.6682 97.8376 50.6678 97.556 44.6675C97.4005 42.485 97.245 40.3025 96.7411 38.2379C95.7641 34.1997 92.6255 31.8067 88.9764 31.923C85.3273 32.0392 82.28 34.7965 81.8271 38.9117C81.4962 41.665 81.6624 44.4534 81.6236 47.2095C81.5462 59.3252 81.73 71.3525 81.2425 83.4037C80.8661 93.487 79.2596 103.377 78.9704 113.43C78.5297 126.482 78.6734 139.539 78.7862 152.504C78.8292 154.928 79.6923 157.481 80.6371 159.701C81.4332 161.769 83.3964 162.121 84.7432 160.649C86.5764 158.607 88.5784 156.203 89.3503 153.606C90.6688 148.893 91.4594 144.054 92.0141 139.092C93.8296 121.207 95.4962 103.17 97.1066 85.2532C97.3304 83.0441 98.1599 82.0525 100.169 81.6781C107.794 80.116 115.357 78.3716 122.952 76.7183C124.581 76.3706 126.242 76.114 127.748 75.4015C130.791 74.0678 132.855 71.8462 132.878 68.1812C132.869 64.425 130.981 61.7109 127.715 60.3768C125.567 59.4777 123.163 58.9698 120.882 58.8266C114.568 58.5233 108.429 59.8877 102.357 61.7374C101.05 62.1792 99.9485 62.6532 98.3806 63.1833Z" fill="#0CAD8E"/>
<path id="Vector_2" d="M70.1293 74.3611C61.8542 77.1588 54.0455 79.9005 46.2622 82.4304C42.778 83.6084 39.1705 84.4217 35.6246 85.4173C34.2001 85.7974 33.3183 85.4859 32.7634 83.8449C29.1007 73.2985 25.2638 62.811 21.6573 52.144C20.7634 49.5001 20.3922 46.6794 19.5854 44.006C18.9635 41.8796 18.3671 39.5414 17.2534 37.6829C15.4161 34.5452 11.8018 33.329 8.66599 34.3892C5.58646 35.3287 3.47719 38.2769 3.51077 41.8213C3.54297 43.6391 3.86735 45.4597 4.45301 47.1919C10.1233 62.2407 15.8807 77.2601 21.7252 92.2501C23.7435 97.3585 27.6205 100.213 32.812 99.7784C37.2759 99.4883 41.729 98.5923 46.0588 97.3316C53.7041 95.2548 61.1952 92.7221 68.8042 90.2511C69.5011 90.0155 70.3614 89.1151 70.4378 88.4797C70.4752 83.997 70.2768 79.3908 70.1293 74.3611Z" fill="black"/>
<path id="Vector_3" d="M104.492 151.026C105.098 152.243 105.704 153.461 106.105 154.646C107.024 157.078 108.479 156.789 110.006 155.562C113.519 152.749 115.612 148.891 116.147 144.444C117.013 137.243 117.673 130.01 118.216 122.715C118.571 118.023 118.459 113.388 118.696 108.634C118.979 103.154 116.188 98.9168 111.671 97.9038C107.068 96.9204 102.386 99.7225 101.519 105.197C100.683 110.762 100.406 116.545 100.682 122.243C101.144 130.214 102.396 138.223 103.325 146.138C103.706 147.837 104.143 149.417 104.492 151.026Z" fill="black"/>
<path id="Vector_4" d="M40.9801 61.3547C41.7507 63.634 42.5521 66.0044 43.3228 68.2837C44.3091 71.2011 45.5755 71.7889 48.1525 70.5113C50.7295 69.2336 53.3936 67.9266 55.8164 66.1931C60.2012 63.0851 64.4372 59.8243 68.4936 56.3194C73.1235 52.2143 72.7978 48.667 67.5928 45.0424C61.6185 40.8652 55.1123 37.9853 48.074 36.4028C45.552 35.8332 42.9173 35.5048 40.3135 35.2676C36.7153 34.9603 35.2198 36.2786 35.7251 40.0699C36.4877 45.1965 37.7475 50.3581 38.8894 55.458C39.3933 57.5227 40.2457 59.4695 40.9801 61.3547C40.893 61.3841 40.893 61.3841 40.9801 61.3547Z" fill="#F1DDC4"/>
</g>
</svg>
