<svg width="34" height="34" viewBox="0 0 34 34" fill="none" xmlns="http://www.w3.org/2000/svg">
<rect width="34" height="34" rx="17" fill="#FFEBD2"/>
<path opacity="0.4" d="M25.4846 13.5834V18.7745H22.063C21.5011 18.7745 20.8386 18.372 20.5786 17.8772L19.7064 16.2251C19.4716 15.7806 19.1361 15.8058 18.9516 16.267L17.0228 21.1395C16.8131 21.6846 16.4609 21.6846 16.2428 21.1395L15.2868 18.7242C15.0604 18.1372 14.3559 17.6592 13.7269 17.6592L8.71191 17.6843V13.5834C8.71191 10.5308 10.5317 8.71094 13.5844 8.71094H20.6121C23.6647 8.71094 25.4846 10.5308 25.4846 13.5834Z" fill="#0CAD8E"/>
<path d="M25.4846 20.6124V18.7758H22.063C21.5011 18.7758 20.8386 18.3733 20.5786 17.8785L19.7064 16.2264C19.4716 15.7819 19.1361 15.8071 18.9516 16.2683L17.0228 21.1408C16.8131 21.6859 16.4609 21.6859 16.2428 21.1408L15.2868 18.7255C15.0604 18.1385 14.3559 17.6604 13.7269 17.6604L8.71191 17.6856V20.6124C8.71191 23.6147 10.473 25.4262 13.4334 25.4765C13.5257 25.4849 13.6263 25.4849 13.7186 25.4849H20.4276C20.5534 25.4849 20.6792 25.4849 20.7966 25.4765C23.7402 25.4094 25.4846 23.6063 25.4846 20.6124Z" fill="#0CAD8E"/>
<path d="M8.71217 17.6855V20.4614C8.6954 20.1931 8.68701 19.9079 8.68701 19.6144V17.6855H8.71217Z" fill="#0CAD8E"/>
</svg>
