<svg width="78" height="72" viewBox="0 0 78 72" fill="none" xmlns="http://www.w3.org/2000/svg">
<g clip-path="url(#clip0_288_276)">
<rect width="78" height="72" rx="36" fill="#F1DDC4"/>
<path opacity="0.4" d="M46.07 43.8201C45.88 43.8201 45.69 43.7501 45.54 43.6001C45.25 43.3101 45.25 42.8301 45.54 42.5401C49.15 38.9301 49.15 33.0601 45.54 29.4601C45.25 29.1701 45.25 28.6901 45.54 28.4001C45.83 28.1101 46.31 28.1101 46.6 28.4001C50.79 32.5901 50.79 39.4101 46.6 43.6001C46.45 43.7501 46.26 43.8201 46.07 43.8201Z" fill="#0CAD8E"/>
<path opacity="0.4" d="M31.9301 43.8201C31.7401 43.8201 31.5501 43.7501 31.4001 43.6001C27.2101 39.4101 27.2101 32.5901 31.4001 28.4001C31.6901 28.1101 32.1701 28.1101 32.4601 28.4001C32.7501 28.6901 32.7501 29.1701 32.4601 29.4601C28.8501 33.0701 28.8501 38.9401 32.4601 42.5401C32.7501 42.8301 32.7501 43.3101 32.4601 43.6001C32.3101 43.7501 32.1201 43.8201 31.9301 43.8201Z" fill="#0CAD8E"/>
<path opacity="0.4" d="M39 46.71C37.75 46.7 36.56 46.4999 35.45 46.1099C35.06 45.9699 34.85 45.54 34.99 45.15C35.13 44.76 35.55 44.55 35.95 44.69C36.91 45.02 37.93 45.2 39.01 45.2C40.08 45.2 41.11 45.02 42.06 44.69C42.45 44.56 42.88 44.76 43.02 45.15C43.16 45.54 42.95 45.9699 42.56 46.1099C41.44 46.4999 40.25 46.71 39 46.71Z" fill="#0CAD8E"/>
<path opacity="0.4" d="M42.3 27.3401C42.22 27.3401 42.13 27.33 42.05 27.3C41.09 26.97 40.06 26.79 38.99 26.79C37.92 26.79 36.9 26.97 35.94 27.3C35.55 27.43 35.12 27.2301 34.98 26.8401C34.84 26.4501 35.05 26.0201 35.44 25.8801C36.55 25.4901 37.75 25.29 38.99 25.29C40.23 25.29 41.43 25.4901 42.54 25.8801C42.93 26.0201 43.14 26.4501 43 26.8401C42.9 27.1501 42.61 27.3401 42.3 27.3401Z" fill="#0CAD8E"/>
<path d="M35.74 36.0001V34.3302C35.74 32.2502 37.21 31.4001 39.01 32.4401L40.46 33.2802L41.91 34.1201C43.71 35.1601 43.71 36.8602 41.91 37.9002L40.46 38.7401L39.01 39.5802C37.21 40.6202 35.74 39.7701 35.74 37.6901V36.0001Z" fill="#0CAD8E"/>
</g>
<defs>
<clipPath id="clip0_288_276">
<rect width="78" height="72" rx="36" fill="white"/>
</clipPath>
</defs>
</svg>
