<svg width="20" height="20" viewBox="0 0 20 20" fill="none" xmlns="http://www.w3.org/2000/svg">
<g id="vuesax/bulk/home-trend-up">
<g id="home-trend-up">
<g id="home-trend-up_2">
<path id="Vector" opacity="0.4" d="M16.6999 5.68373L11.8999 2.3254C10.5915 1.40873 8.5832 1.45873 7.32487 2.43373L3.14987 5.69206C2.31654 6.34206 1.6582 7.6754 1.6582 8.7254V14.4754C1.6582 16.6004 3.3832 18.3337 5.5082 18.3337H14.4915C16.6165 18.3337 18.3415 16.6087 18.3415 14.4837V8.83373C18.3415 7.70873 17.6165 6.3254 16.6999 5.68373Z" fill="#0CAD8E"/>
<path id="Vector_2" d="M14.0249 9.39251C13.9666 9.25085 13.8499 9.13418 13.7082 9.07585C13.6332 9.04251 13.5582 9.03418 13.4832 9.03418H11.9332C11.6082 9.03418 11.3499 9.29251 11.3499 9.61751C11.3499 9.94251 11.6082 10.2008 11.9332 10.2008H12.0832L10.3249 11.9592L9.4749 10.6925C9.3749 10.5508 9.2249 10.4508 9.0499 10.4342C8.86657 10.4175 8.70824 10.4758 8.58324 10.6008L6.0999 13.0842C5.8749 13.3092 5.8749 13.6758 6.0999 13.9092C6.21657 14.0258 6.35824 14.0758 6.50824 14.0758C6.65824 14.0758 6.80824 14.0175 6.91657 13.9092L8.8999 11.9258L9.7499 13.1925C9.8499 13.3342 9.9999 13.4342 10.1749 13.4508C10.3582 13.4675 10.5166 13.4092 10.6416 13.2842L12.9082 11.0175V11.1675C12.9082 11.4925 13.1666 11.7508 13.4916 11.7508C13.8166 11.7508 14.0749 11.4925 14.0749 11.1675V9.61751C14.0666 9.53418 14.0582 9.45918 14.0249 9.39251Z" fill="#0CAD8E"/>
</g>
</g>
</g>
</svg>
