<svg width="12" height="13" viewBox="0 0 12 13" fill="none" xmlns="http://www.w3.org/2000/svg">
<path d="M6.27678 3.60454C5.6963 3.60454 5.12885 3.77667 4.6462 4.09917C4.16355 4.42166 3.78737 4.88004 3.56523 5.41633C3.34309 5.95262 3.28497 6.54274 3.39822 7.11206C3.51146 7.68139 3.79099 8.20435 4.20145 8.6148C4.61191 9.02526 5.13487 9.30479 5.7042 9.41804C6.27352 9.53128 6.86364 9.47316 7.39994 9.25102C7.93623 9.02888 8.39461 8.6527 8.7171 8.17005C9.0396 7.6874 9.21173 7.11996 9.21173 6.53948C9.21231 6.1539 9.13679 5.77199 8.9895 5.41564C8.84221 5.0593 8.62605 4.73552 8.3534 4.46287C8.08074 4.19022 7.75697 3.97406 7.40062 3.82677C7.04427 3.67948 6.66236 3.60396 6.27678 3.60454ZM6.27678 8.44893C5.89937 8.44893 5.53044 8.33702 5.21664 8.12734C4.90284 7.91767 4.65826 7.61965 4.51384 7.27097C4.36941 6.9223 4.33162 6.53863 4.40525 6.16847C4.47888 5.79832 4.66062 5.45832 4.92748 5.19145C5.19435 4.92459 5.53435 4.74285 5.90451 4.66922C6.27466 4.59559 6.65833 4.63338 7.00701 4.77781C7.35569 4.92223 7.65371 5.16681 7.86338 5.48061C8.07306 5.79441 8.18497 6.16334 8.18497 6.54074C8.18364 7.0463 7.98213 7.53075 7.62453 7.88812C7.26692 8.24549 6.78234 8.44668 6.27678 8.44767V8.44893ZM10.017 3.485C10.017 3.62038 9.97689 3.75273 9.90167 3.86529C9.82646 3.97786 9.71955 4.06559 9.59448 4.1174C9.4694 4.16921 9.33177 4.18277 9.19899 4.15636C9.0662 4.12994 8.94424 4.06475 8.84851 3.96902C8.75278 3.87329 8.68758 3.75132 8.66117 3.61854C8.63476 3.48576 8.64831 3.34813 8.70012 3.22305C8.75193 3.09798 8.83967 2.99107 8.95223 2.91586C9.0648 2.84064 9.19714 2.8005 9.33253 2.8005C9.42225 2.80058 9.51108 2.81833 9.59395 2.85275C9.67681 2.88716 9.75209 2.93756 9.81547 3.00106C9.87886 3.06456 9.92912 3.13993 9.96338 3.22286C9.99764 3.30578 10.0152 3.39465 10.0151 3.48437L10.017 3.485ZM11.9611 4.17706C11.98 3.28696 11.6478 2.4252 11.0362 1.77814C10.3872 1.16872 9.52558 0.837263 8.63544 0.854561C7.69172 0.801084 4.85743 0.801084 3.91183 0.854561C3.02254 0.837217 2.16176 1.16848 1.51353 1.77751C0.902901 2.42512 0.570815 3.28651 0.588692 4.17643C0.535215 5.12014 0.535215 7.95442 0.588692 8.90002C0.569964 9.7899 0.902182 10.6514 1.51353 11.2983C2.16216 11.9073 3.02287 12.2391 3.91246 12.2232C4.85617 12.2766 7.69046 12.2766 8.63606 12.2232C9.52616 12.242 10.3879 11.9098 11.035 11.2983C11.6444 10.6499 11.9763 9.78906 11.9598 8.89939C12.0133 7.95568 12.0133 5.12455 11.9598 4.18083L11.9611 4.17706ZM10.738 9.9142C10.6409 10.1605 10.4941 10.3842 10.3069 10.5715C10.1197 10.7587 9.89594 10.9055 9.64962 11.0026C8.89464 11.3015 7.10788 11.2323 6.27489 11.2323C5.4419 11.2323 3.65136 11.2989 2.90016 11.0026C2.65349 10.9057 2.42941 10.759 2.24184 10.5718C2.05427 10.3845 1.90723 10.1607 1.80986 9.9142C1.51102 9.15923 1.58022 7.37247 1.58022 6.53948C1.58022 5.7065 1.51605 3.91596 1.80986 3.16477C1.90702 2.91845 2.05377 2.69473 2.241 2.50749C2.42823 2.32026 2.65196 2.17351 2.89828 2.07635C3.65325 1.77751 5.44002 1.84672 6.273 1.84672C7.10599 1.84672 8.89653 1.78003 9.64773 2.07635C9.89405 2.17351 10.1178 2.32026 10.305 2.50749C10.4922 2.69473 10.639 2.91845 10.7361 3.16477C11.035 3.91974 10.9658 5.7065 10.9658 6.53948C10.9658 7.37247 11.0369 9.16301 10.738 9.9142Z" fill="black"/>
</svg>
