<svg width="95" height="95" viewBox="0 0 95 95" fill="none" xmlns="http://www.w3.org/2000/svg">
<rect width="94.5455" height="94.5455" rx="47.2727" fill="#E1F3E2"/>
<path d="M61.76 18.2528C61.1865 17.8704 60.4763 17.7884 59.8481 18.0343C55.9425 19.5911 51.6271 19.5911 47.7214 18.0343C47.0932 17.7884 46.3831 17.8704 45.8095 18.2528C45.236 18.6352 44.9082 19.2634 44.9082 19.9462V28.1399V36.3337C44.9082 37.4535 45.8368 38.3821 46.9566 38.3821C48.0765 38.3821 49.0051 37.4535 49.0051 36.3337V30.9258C50.5892 31.3082 52.1733 31.5266 53.7848 31.5266C56.3521 31.5266 58.9195 31.0351 61.3776 30.0518C62.1424 29.7514 62.6613 28.9866 62.6613 28.1399V19.9462C62.6613 19.2634 62.3336 18.6352 61.76 18.2528Z" fill="#F1DDC4"/>
<path d="M74.2691 72.5227H70.8551V44.5273C70.8551 37.9177 67.2225 34.2852 60.6129 34.2852H33.3004C26.6908 34.2852 23.0582 37.9177 23.0582 44.5273V72.5227H19.6441C18.5243 72.5227 17.5957 73.4513 17.5957 74.5711C17.5957 75.6909 18.5243 76.6195 19.6441 76.6195H25.1066H68.8066H74.2691C75.389 76.6195 76.3176 75.6909 76.3176 74.5711C76.3176 73.4513 75.389 72.5227 74.2691 72.5227ZM66.7582 49.307V72.5227H59.9028V49.307H66.7582ZM44.8809 72.5227H38.0528V49.307H44.8809V72.5227ZM48.9778 49.307H55.8059V72.5227H48.9778V49.307ZM27.1551 49.307H33.9559V72.5227H27.1551V49.307Z" fill="#0CAD8E"/>
</svg>
