<svg xmlns="http://www.w3.org/2000/svg" width="237" height="228" viewBox="0 0 237 228" fill="none">
<path d="M280.948 111.8C282.998 109.375 284.771 107.867 285.784 105.948C287.737 102.293 289.257 98.4081 290.969 94.6198C294.31 87.2363 301.871 84.0754 308.576 87.3931C313.871 90.0111 316.198 94.656 316.09 100.29C315.945 108.168 315.523 116.059 314.848 123.913C312.821 147.306 309.565 170.518 303.668 193.296C302.595 197.422 301.353 201.536 299.809 205.517C293.574 221.647 281.43 228.922 264.173 227.016C249.086 225.351 236.098 218.848 224.412 209.498C213.654 200.896 204.513 190.714 195.806 180.097C186.001 168.153 176.185 156.221 166.067 144.555C157.625 134.819 147.845 126.531 136.846 119.75C123.195 111.341 108.554 105.743 92.4181 104.911C66.3571 103.584 42.6477 119.135 32.9879 143.373C22.3753 170.011 42.4668 196.794 66.0435 199.014C72.4472 199.618 78.5013 198.327 83.7834 194.418C89.1621 190.436 89.789 185.514 85.0013 180.797C81.9502 177.781 78.1273 175.561 73.7376 172.303C73.9064 176.912 71.8081 176.816 69.4565 176.019C66.9843 175.187 64.3672 174.559 62.1241 173.293C53.4411 168.37 53.5376 157.561 62.2688 152.638C67.0806 149.924 72.2544 149.755 77.5968 150.708C94.0945 153.652 107.975 169.71 107.746 185.804C107.625 194.309 103.971 201.282 97.7606 206.868C85.7974 217.606 71.4824 221.237 55.9133 219.066C12.8601 213.045 -11.1145 170.12 6.38415 130.283C17.5635 104.814 37.9686 90.2645 64.4638 83.7497C89.753 77.5364 113.607 82.2416 136.364 94.0286C151.125 101.665 163.944 111.945 175.1 124.166C186.846 137.027 198.158 150.286 209.494 163.52C217.574 172.943 226.088 181.907 235.941 189.507C243.599 195.407 252.004 199.738 261.568 201.62C262.002 201.705 262.424 201.801 262.858 201.874C271.348 203.152 273.929 202.043 275.557 193.742C279.211 175.042 282.19 156.221 285.434 137.437C285.506 137.039 285.349 136.604 285.313 136.279C282.142 136.279 279.078 136.641 276.124 136.218C263.16 134.348 255.538 126.241 251.715 114.249C248.7 104.766 249.592 95.1627 251.992 85.68C255.695 70.9613 262.508 57.6299 270.202 44.6606C273.772 38.6524 276.98 32.403 280.067 26.1174C281.43 23.3546 281.382 20.3867 278.596 18.1668C272.397 22.2447 268.43 20.3867 267.284 13.0032C266.138 5.66798 271.264 0.142393 278.777 0.61291C288.208 1.20407 296.794 9.39591 299.037 19.8559C300.316 25.8158 299.737 31.7032 297.843 37.3736C295.275 45.0587 292.344 52.6232 289.462 60.1997C284.927 72.0953 280.694 84.0875 279.163 96.8156C278.777 100.037 279.054 103.367 279.296 106.636C279.356 107.999 280.128 109.375 280.948 111.8Z" fill="#F1DDC4"/>
</svg>