<svg width="59" height="63" viewBox="0 0 59 63" fill="none" xmlns="http://www.w3.org/2000/svg">
<path d="M35.2266 31.2383C35.2266 37.7586 35.2674 43.7654 35.3081 49.7723C35.376 51.9592 35.4438 54.1461 35.8646 56.2294C36.6789 60.3034 39.7191 62.8203 43.3699 62.8505C47.0207 62.8807 50.1761 60.2477 50.7936 56.154C51.2347 53.4162 51.1804 50.6234 51.3296 47.871C51.8928 35.7682 52.1913 23.7432 53.1616 11.7213C53.942 1.66118 55.9437 -8.15612 56.6358 -18.1903C57.5994 -31.2133 57.9794 -44.2654 58.3864 -57.2252C58.4407 -59.6487 57.6807 -62.234 56.8256 -64.4905C56.1131 -66.5882 54.1655 -67.0188 52.7608 -65.6027C50.8472 -63.6358 48.7504 -61.314 47.8751 -58.7495C46.3686 -54.0935 45.3847 -49.2901 44.6314 -44.354C42.1004 -26.5566 39.7119 -8.60057 37.3844 9.23722C37.0722 11.4356 36.2037 12.3931 34.1815 12.6866C26.4998 13.9417 18.8725 15.3815 11.218 16.729C9.57581 17.0111 7.90645 17.2009 6.37284 17.8524C3.27848 19.063 1.12737 21.2001 0.957737 24.8612C0.815253 28.6147 2.59321 31.4024 5.80295 32.8663C7.91337 33.8509 10.2952 34.4547 12.5685 34.6893C18.8658 35.2455 25.0545 34.1283 31.1958 32.5236C32.519 32.1346 33.6387 31.7051 35.2266 31.2383Z" fill="#0CAD8E"/>
</svg>
