<svg xmlns="http://www.w3.org/2000/svg" width="54" height="59" viewBox="0 0 54 59" fill="none">
<path d="M0.527401 45.2268C1.2751 37.2642 2.04692 29.3016 2.77051 21.339C3.66293 11.3254 4.29005 1.2636 5.52014 -8.71378C5.89399 -11.6937 7.52205 -14.7461 9.30689 -17.2555C12.2736 -21.4419 16.7236 -22.3588 21.6198 -20.8386C28.3853 -18.7273 32.956 -14.2514 35.4523 -7.77274C39.1908 1.91508 44.6057 10.6257 50.5149 19.095C54.7117 25.1152 53.5781 30.9062 47.8135 34.6703C37.7437 41.2696 27.7462 47.9896 17.7246 54.6613C16.7236 55.3248 15.7588 56.0728 14.7096 56.6519C8.08885 60.3075 0.937434 56.3744 0.455045 48.8341C0.382687 47.6397 0.442992 46.4332 0.442992 45.2268C0.467112 45.2389 0.491222 45.2268 0.527401 45.2268Z" fill="#F1DDC4"/>
</svg>