<svg width="95" height="95" viewBox="0 0 95 95" fill="none" xmlns="http://www.w3.org/2000/svg">
<rect width="94.5455" height="94.5455" rx="47.2727" fill="#E1F3E2"/>
<path d="M68.3575 71.7375C65.7628 73.6494 62.3488 74.6326 58.2792 74.6326H35.3913C34.7358 74.6326 34.0803 74.6053 33.4521 74.5234L52.2978 55.6777L68.3575 71.7375Z" fill="#0CAD8E"/>
<path d="M74.1482 35.8767V58.7646C74.1482 62.8341 73.165 66.2482 71.2531 68.8429L55.1934 52.7831L74.039 33.9375C74.1209 34.5657 74.1482 35.2212 74.1482 35.8767Z" fill="#0CAD8E"/>
<path d="M55.1936 52.7828L71.2533 68.8426C70.4613 69.9897 69.5053 70.9456 68.3582 71.7377L52.2984 55.6779L33.4528 74.5236C31.7048 74.4143 30.1207 74.0592 28.6731 73.513C22.8283 71.3826 19.5234 66.1933 19.5234 58.7643V35.8764C19.5234 25.9346 25.4502 20.0078 35.392 20.0078H58.2799C65.7089 20.0078 70.8982 23.3126 73.0286 29.1575C73.5749 30.6051 73.9299 32.1892 74.0392 33.9372L55.1936 52.7828Z" fill="#0CAD8E"/>
<path d="M55.1933 52.7816L71.253 68.8413C70.461 69.9884 69.505 70.9444 68.3579 71.7365L52.2981 55.6767L33.4525 74.5223C31.7045 74.4131 30.1204 74.058 28.6729 73.5117L29.738 72.4466L73.0283 29.1562C73.5746 30.6038 73.9296 32.1879 74.0389 33.9359L55.1933 52.7816Z" fill="#F1DDC4"/>
<path d="M47.4907 36.2034C46.4528 31.6969 42.4652 29.6758 38.9692 29.6484C35.4732 29.6484 31.4856 31.6696 30.4477 36.1761C29.3006 41.1743 32.3596 45.3531 35.1182 47.9751C36.2107 49.013 37.5763 49.5046 38.9692 49.5046C40.3622 49.5046 41.7278 48.9857 42.8203 47.9751C45.5789 45.3531 48.6378 41.1743 47.4907 36.2034ZM39.0512 40.4642C37.549 40.4642 36.3199 39.2351 36.3199 37.7329C36.3199 36.2307 37.5217 35.0017 39.0512 35.0017H39.0785C40.5807 35.0017 41.8097 36.2307 41.8097 37.7329C41.8097 39.2351 40.5533 40.4642 39.0512 40.4642Z" fill="#F1DDC4"/>
</svg>
