<svg width="95" height="95" viewBox="0 0 95 95" fill="none" xmlns="http://www.w3.org/2000/svg">
<rect width="94.5455" height="94.5455" rx="47.2727" fill="#E1F3E2"/>
<path d="M74.0879 35.4526V55.5272C73.2958 55.1449 72.4218 54.8717 71.4386 54.7079L70.5919 54.5713L69.8817 53.0964C68.3796 50.0374 65.9215 48.2621 63.1629 48.2621C60.4043 48.2621 57.9462 50.0374 56.444 53.0964L55.7066 54.5713L54.8872 54.7079C51.637 55.2541 49.2881 57.0567 48.4414 59.6241C47.622 62.2188 48.4688 65.0593 50.7903 67.4082L51.637 68.2549L51.5551 68.5826C51.0088 71.0134 51.2274 72.8707 51.7463 74.209H35.3314C25.3897 74.209 19.4629 68.2822 19.4629 58.3404V35.4526C19.4629 25.5108 25.3897 19.584 35.3314 19.584H58.2193C68.1611 19.584 74.0879 25.5108 74.0879 35.4526Z" fill="#0CAD8E"/>
<path d="M66.221 54.9258L67.0951 56.7011C67.5321 57.5751 68.6519 58.3945 69.5805 58.5583L70.7549 58.7495C74.3329 59.3504 75.1522 61.9724 72.6122 64.5398L71.5197 65.6323C70.7822 66.3697 70.3999 67.79 70.6184 68.8278L70.7549 69.4833C71.7382 73.7987 69.4439 75.4648 65.7021 73.1978L64.9101 72.7062C63.9542 72.1327 62.3699 72.1327 61.414 72.7062L60.622 73.1978C56.8529 75.4648 54.5859 73.7987 55.5692 69.4833L55.7057 68.8278C55.9242 67.8173 55.5419 66.3697 54.8044 65.6323L53.7119 64.5398C51.1719 61.9451 51.9912 59.3504 55.5692 58.7495L56.7436 58.5583C57.6995 58.3945 58.792 57.5751 59.229 56.7011L60.1031 54.9258C61.7964 51.5117 64.5277 51.5117 66.221 54.9258Z" fill="#F1DDC4"/>
<path fill-rule="evenodd" clip-rule="evenodd" d="M58.0537 35.746C58.9479 36.4391 59.1108 37.7258 58.4177 38.6199L52.0964 46.7746C50.4716 48.8295 47.4759 49.2042 45.386 47.5893L45.3717 47.5783L40.3829 43.6526C40.0747 43.4185 39.6448 43.4767 39.4107 43.7787C39.4105 43.779 39.4109 43.7784 39.4107 43.7787L32.9116 52.2165C32.2213 53.1128 30.9351 53.2798 30.0388 52.5894C29.1425 51.8991 28.9756 50.6129 29.6659 49.7166L36.1683 41.2745C37.7904 39.1753 40.7981 38.7959 42.8927 40.4145L42.907 40.4255L47.8958 44.3512C48.2073 44.5877 48.6462 44.5268 48.8785 44.2387L55.1797 36.1099C55.8729 35.2158 57.1596 35.0528 58.0537 35.746Z" fill="#F1DDC4"/>
</svg>
