<svg width="34" height="34" viewBox="0 0 34 34" fill="none" xmlns="http://www.w3.org/2000/svg">
<rect width="34" height="34" rx="17" fill="#29BFA2"/>
<path opacity="0.4" d="M23.1378 11.6806H22.8023L19.9673 8.84563C19.7408 8.61917 19.3718 8.61917 19.1369 8.84563C18.9105 9.07209 18.9105 9.44114 19.1369 9.67599L21.1416 11.6806H12.9889L14.9935 9.67599C15.22 9.44953 15.22 9.08048 14.9935 8.84563C14.7671 8.61917 14.398 8.61917 14.1632 8.84563L11.3366 11.6806H11.0011C10.2462 11.6806 8.67773 11.6806 8.67773 13.8278C8.67773 14.6414 8.84548 15.1782 9.19776 15.5305C9.39906 15.7402 9.6423 15.8492 9.90231 15.9079C10.1455 15.9666 10.4056 15.975 10.6572 15.975H23.4733C23.7333 15.975 23.9765 15.9582 24.2114 15.9079C24.9159 15.7402 25.4527 15.2369 25.4527 13.8278C25.4527 11.6806 23.8843 11.6806 23.1378 11.6806Z" fill="#F1DDC4"/>
<path d="M23.4901 15.9739H10.6572C10.414 15.9739 10.1456 15.9655 9.90234 15.8984L10.9592 22.3484C11.2024 23.7911 11.8315 25.4518 14.6245 25.4518H19.3299C22.1565 25.4518 22.6597 24.0343 22.9617 22.4491L24.2282 15.8984C23.9933 15.9571 23.7417 15.9739 23.4901 15.9739ZM19.4809 19.6225L16.7549 22.1387C16.6375 22.2478 16.4781 22.3065 16.3272 22.3065C16.1678 22.3065 16.0084 22.2478 15.8826 22.122L14.6245 20.8638C14.3813 20.6206 14.3813 20.218 14.6245 19.9748C14.8677 19.7315 15.2703 19.7315 15.5136 19.9748L16.3439 20.8051L18.6253 18.6999C18.877 18.465 19.2796 18.4818 19.5144 18.7334C19.7577 18.9934 19.7409 19.3876 19.4809 19.6225Z" fill="#F1DDC4"/>
</svg>
