<svg width="95" height="95" viewBox="0 0 95 95" fill="none" xmlns="http://www.w3.org/2000/svg">
<rect width="94.5455" height="94.5455" rx="47.2727" fill="#E1F3E2"/>
<path d="M20.3418 49.7226V44.9156C20.3418 42.0751 22.6634 39.7262 25.5312 39.7262C30.4747 39.7262 32.4959 36.2302 30.0104 31.9421C28.5902 29.484 29.4369 26.2884 31.9223 24.8682L36.6474 22.1642C38.805 20.8806 41.5909 21.6453 42.8746 23.803L43.175 24.3219C45.6332 28.61 49.6754 28.61 52.1609 24.3219L52.4613 23.803C53.745 21.6453 56.5309 20.8806 58.6886 22.1642L63.4136 24.8682C65.899 26.2884 66.7457 29.484 65.3255 31.9421C62.84 36.2302 64.8612 39.7262 69.8047 39.7262C72.6452 39.7262 74.9941 42.0477 74.9941 44.9156V49.7226C74.9941 52.5631 72.6726 54.9119 69.8047 54.9119C64.8612 54.9119 62.84 58.4079 65.3255 62.696C66.7457 65.1814 65.899 68.3497 63.4136 69.7699L58.6886 72.4739C56.5309 73.7576 53.745 72.9928 52.4613 70.8351L52.1609 70.3162C49.7027 66.0281 45.6605 66.0281 43.175 70.3162L42.8746 70.8351C41.5909 72.9928 38.805 73.7576 36.6474 72.4739L31.9223 69.7699C29.4369 68.3497 28.5902 65.1541 30.0104 62.696C32.4959 58.4079 30.4747 54.9119 25.5312 54.9119C22.6634 54.9119 20.3418 52.5631 20.3418 49.7226Z" fill="#0CAD8E"/>
<path d="M47.6539 56.1965C52.5563 56.1965 56.5305 52.2223 56.5305 47.3199C56.5305 42.4175 52.5563 38.4434 47.6539 38.4434C42.7515 38.4434 38.7773 42.4175 38.7773 47.3199C38.7773 52.2223 42.7515 56.1965 47.6539 56.1965Z" fill="#F1DDC4"/>
</svg>
