<svg width="95" height="95" viewBox="0 0 95 95" fill="none" xmlns="http://www.w3.org/2000/svg">
<rect width="94.5455" height="94.5455" rx="47.2727" fill="#E1F3E2"/>
<path d="M66.6218 54.3675C64.2729 56.5252 61.1593 57.7269 57.9637 57.6996H31.5798C20.4636 56.9075 20.4363 40.7659 31.5798 39.9738H31.6891C24.0689 18.7793 56.2704 10.3397 59.9575 32.5721C70.2544 33.8831 74.4332 47.5667 66.6218 54.3675Z" fill="#0CAD8E"/>
<path d="M65.3924 71.3555C65.3924 72.4753 64.4638 73.4039 63.3439 73.4039H52.4189C52.2824 73.4039 52.1731 73.4039 52.0365 73.3493C51.2445 75.3704 49.2507 76.818 46.9564 76.818C44.6622 76.818 42.6684 75.3704 41.8764 73.3493C41.7398 73.4039 41.6305 73.4039 41.4939 73.4039H30.5689C29.4491 73.4039 28.5205 72.4753 28.5205 71.3555C28.5205 70.2357 29.4491 69.307 30.5689 69.307H41.4939C41.6305 69.307 41.7398 69.307 41.8764 69.3616C42.4226 67.9414 43.5424 66.8216 44.9626 66.2754C44.908 66.1388 44.908 66.0295 44.908 65.893V57.6992H49.0049V65.893C49.0049 66.0295 49.0049 66.1388 48.9503 66.2754C50.3705 66.8216 51.4903 67.9414 52.0365 69.3616C52.1731 69.307 52.2824 69.307 52.4189 69.307H63.3439C64.4638 69.307 65.3924 70.2357 65.3924 71.3555Z" fill="#F1DDC4"/>
</svg>
