<svg width="57" height="60" viewBox="0 0 57 60" fill="none" xmlns="http://www.w3.org/2000/svg">
<path id="Vector" d="M59.9807 21.1536C59.7515 21.8533 59.4863 23.4096 58.7507 24.7005C53.975 33.0733 49.0667 41.3737 44.279 49.7345C43.5916 50.9289 43.0368 52.2801 42.8438 53.6313C42.2408 57.7936 39.6842 60.2789 35.5115 59.8807C33.2805 59.6636 31.0011 58.9156 28.9751 57.9263C21.7875 54.4276 14.624 50.8565 7.61733 47.0079C5.21744 45.6928 2.85369 43.7987 1.24975 41.603C-0.788351 38.804 -0.10094 35.5466 1.70802 32.6269C8.11175 22.36 15.2752 12.6481 24.4648 4.69752C30.0122 -0.104165 35.222 -0.683261 40.5283 3.37042C43.0488 5.30075 45.4969 7.33966 48.1139 9.12521C50.1641 10.5247 52.3469 11.8035 54.6141 12.8049C58.0512 14.3009 60.0168 16.8465 59.9807 21.1536ZM17.7957 34.0626C22.6075 36.6082 26.8165 38.8402 31.1338 41.1204C34.4985 34.509 37.7547 28.1269 41.0952 21.5638C38.3576 19.4042 35.7286 17.3291 32.6172 14.88C27.6244 21.3225 22.8487 27.5116 17.7957 34.0626Z" fill="black"/>
</svg>
