<svg width="45" height="46" viewBox="0 0 45 46" fill="none" xmlns="http://www.w3.org/2000/svg">
<rect x="0.156738" y="0.279297" width="44.8139" height="44.8139" rx="22.4069" fill="#E1F3E2"/>
<path d="M31.8153 14.2679L23.6988 9.89248C22.8444 9.42646 21.8088 9.42646 20.9545 9.89248L12.8379 14.2679C12.2425 14.5915 11.88 15.2129 11.88 15.9249C11.88 16.6239 12.2425 17.2582 12.8379 17.5818L20.9545 21.9573C21.3817 22.1903 21.8606 22.3068 22.3266 22.3068C22.7927 22.3068 23.2716 22.1903 23.6988 21.9573L31.8153 17.5818C32.4108 17.2582 32.7733 16.6368 32.7733 15.9249C32.7733 15.2129 32.4108 14.5915 31.8153 14.2679Z" fill="#F1DDC4"/>
<path d="M19.6211 23.4718L12.0612 19.6919C11.4787 19.4071 10.8055 19.433 10.2619 19.7696C9.70522 20.1191 9.38159 20.7016 9.38159 21.3489V28.4816C9.38159 29.7113 10.0677 30.8246 11.168 31.3812L18.715 35.1612C18.9739 35.2906 19.2586 35.3554 19.5434 35.3554C19.88 35.3554 20.2166 35.2648 20.5143 35.0835C21.071 34.747 21.3946 34.1515 21.3946 33.5042V26.3715C21.4075 25.1288 20.7214 24.0155 19.6211 23.4718Z" fill="#0CAD8E"/>
<path d="M34.3914 19.7689C33.8348 19.4324 33.1616 19.3935 32.592 19.6913L25.0451 23.4712C23.9448 24.0279 23.2587 25.1282 23.2587 26.3709V33.5036C23.2587 34.1509 23.5823 34.7463 24.1389 35.0829C24.4367 35.2641 24.7732 35.3547 25.1098 35.3547C25.3946 35.3547 25.6794 35.29 25.9383 35.1606L33.4852 31.3806C34.5856 30.824 35.2717 29.7237 35.2717 28.4809V21.3482C35.2717 20.701 34.948 20.1185 34.3914 19.7689Z" fill="#0CAD8E"/>
</svg>
