<svg width="34" height="34" viewBox="0 0 34 34" fill="none" xmlns="http://www.w3.org/2000/svg">
<g id="Frame 35828">
<rect width="34" height="34" rx="17" fill="#29BFA2"/>
<g id="bag-tick">
<path id="Vector" opacity="0.4" d="M23.1373 11.6796H22.8018L19.9668 8.84465C19.7404 8.61819 19.3713 8.61819 19.1365 8.84465C18.91 9.07111 18.91 9.44016 19.1365 9.67501L21.1411 11.6796H12.9884L14.993 9.67501C15.2195 9.44855 15.2195 9.0795 14.993 8.84465C14.7666 8.61819 14.3975 8.61819 14.1627 8.84465L11.3361 11.6796H11.0006C10.2457 11.6796 8.67725 11.6796 8.67725 13.8268C8.67725 14.6404 8.845 15.1772 9.19727 15.5295C9.39857 15.7392 9.64181 15.8482 9.90182 15.9069C10.1451 15.9656 10.4051 15.974 10.6567 15.974H23.4728C23.7328 15.974 23.976 15.9573 24.2109 15.9069C24.9154 15.7392 25.4522 15.2359 25.4522 13.8268C25.4522 11.6796 23.8838 11.6796 23.1373 11.6796Z" fill="#F1DDC4"/>
<path id="Vector_2" d="M23.4896 15.9749H10.6567C10.4135 15.9749 10.1451 15.9665 9.90186 15.8994L10.9587 22.3494C11.2019 23.7921 11.831 25.4528 14.624 25.4528H19.3294C22.156 25.4528 22.6592 24.0353 22.9612 22.4501L24.2277 15.8994C23.9929 15.9581 23.7412 15.9749 23.4896 15.9749ZM19.4804 19.6235L16.7544 22.1397C16.637 22.2488 16.4777 22.3075 16.3267 22.3075C16.1673 22.3075 16.008 22.2488 15.8821 22.1229L14.624 20.8648C14.3808 20.6216 14.3808 20.219 14.624 19.9757C14.8673 19.7325 15.2699 19.7325 15.5131 19.9757L16.3435 20.8061L18.6249 18.7008C18.8765 18.466 19.2791 18.4828 19.5139 18.7344C19.7572 18.9944 19.7404 19.3886 19.4804 19.6235Z" fill="#F1DDC4"/>
</g>
</g>
</svg>
