<svg width="37" height="45" viewBox="0 0 37 45" fill="none" xmlns="http://www.w3.org/2000/svg">
<path id="Vector" d="M-4.58634 35.0109C-4.00752 28.8468 -3.41002 22.6827 -2.84987 16.5185C-2.15902 8.76668 -1.67355 0.977465 -0.72129 -6.74637C-0.431879 -9.05325 0.828459 -11.4162 2.21016 -13.3588C4.50678 -16.5996 7.9517 -17.3094 11.742 -16.1326C16.9795 -14.4982 20.5177 -11.0332 22.4503 -6.01788C25.3444 1.4818 29.5362 8.22498 34.1107 14.7814C37.3596 19.4418 36.482 23.9248 32.0195 26.8388C24.2241 31.9475 16.4847 37.1497 8.72657 42.3145C7.9517 42.8281 7.20483 43.4072 6.39262 43.8555C1.26724 46.6854 -4.26892 43.6407 -4.64235 37.8034C-4.69837 36.8788 -4.65168 35.9449 -4.65168 35.0109C-4.63301 35.0202 -4.61435 35.0109 -4.58634 35.0109Z" fill="#F1DDC4"/>
</svg>
