<svg width="12" height="13" viewBox="0 0 12 13" fill="none" xmlns="http://www.w3.org/2000/svg">
<path d="M2.87027 12.2611H0.497137V4.62018H2.87027V12.2611ZM1.68244 3.57832C1.40916 3.57969 1.14161 3.49994 0.91367 3.34917C0.685731 3.19841 0.507652 2.9834 0.401976 2.73136C0.296301 2.47933 0.267781 2.20161 0.320027 1.93337C0.372274 1.66512 0.502937 1.4184 0.695476 1.22445C0.888014 1.0305 1.13377 0.898044 1.40163 0.843841C1.66949 0.789638 1.94741 0.81613 2.20021 0.919963C2.45301 1.0238 2.66931 1.2003 2.82174 1.42713C2.97417 1.65396 3.05587 1.92092 3.05649 2.19421C3.0565 2.55956 2.91206 2.9101 2.65466 3.16938C2.39726 3.42867 2.04779 3.57566 1.68244 3.57832ZM11.7487 12.2605H9.38316V8.54162C9.38316 7.65516 9.36554 6.5183 8.14941 6.5183C6.91566 6.5183 6.72691 7.48152 6.72691 8.47745V12.2611H4.3563V4.62018H6.63191V5.66078H6.66274C6.89031 5.27131 7.21927 4.95087 7.61459 4.7336C8.0099 4.51634 8.45675 4.41038 8.90753 4.42703C11.309 4.42703 11.75 6.00807 11.75 8.06221V12.2592L11.7487 12.2605Z" fill="black"/>
</svg>
