<svg width="45" height="45" viewBox="0 0 45 45" fill="none" xmlns="http://www.w3.org/2000/svg">
<path opacity="0.4" d="M20.175 3.75C19.275 3.75 18.5625 4.4625 18.5625 5.3625V39.6562C18.5625 40.5375 19.275 41.2687 20.175 41.2687C31.2188 41.2687 38.925 33.5625 38.925 22.5188C38.925 11.475 31.2 3.75 20.175 3.75Z" fill="#F1DDC4"/>
<path d="M29.8127 21.6383L24.4877 16.2945C23.9439 15.7508 23.0439 15.7508 22.5002 16.2945C21.9564 16.8383 21.9564 17.7383 22.5002 18.282L25.4252 21.207H7.48145C6.7127 21.207 6.0752 21.8445 6.0752 22.6133C6.0752 23.382 6.7127 24.0195 7.48145 24.0195H25.4252L22.5002 26.9633C21.9564 27.507 21.9564 28.407 22.5002 28.9508C22.7814 29.232 23.1377 29.3633 23.4939 29.3633C23.8502 29.3633 24.2064 29.232 24.4877 28.9508L29.8127 23.607C30.3752 23.0633 30.3752 22.182 29.8127 21.6383Z" fill="#F1DDC4"/>
</svg>
