<svg width="17" height="17" viewBox="0 0 17 17" fill="none" xmlns="http://www.w3.org/2000/svg">
<path d="M8.48101 15.224C12.1877 15.224 15.1926 12.2191 15.1926 8.51238C15.1926 4.80567 12.1877 1.80078 8.48101 1.80078C4.77429 1.80078 1.76941 4.80567 1.76941 8.51238C1.76941 12.2191 4.77429 15.224 8.48101 15.224Z" stroke="#0CAD8E" stroke-width="1.00674" stroke-linecap="round" stroke-linejoin="round"/>
<path opacity="0.4" d="M7.64208 10.211V6.81491C7.64208 6.49275 7.50785 6.36523 7.16556 6.36523H6.29305C5.95076 6.36523 5.81653 6.49275 5.81653 6.81491V10.211C5.81653 10.5331 5.95076 10.6607 6.29305 10.6607H7.15885C7.50785 10.6607 7.64208 10.5331 7.64208 10.211Z" stroke="#0CAD8E" stroke-width="1.00674" stroke-linecap="round" stroke-linejoin="round"/>
<path opacity="0.4" d="M11.1858 10.211V6.81491C11.1858 6.49275 11.0516 6.36523 10.7093 6.36523H9.84347C9.50118 6.36523 9.36694 6.49275 9.36694 6.81491V10.211C9.36694 10.5331 9.50118 10.6607 9.84347 10.6607H10.7093C11.0516 10.6607 11.1858 10.5331 11.1858 10.211Z" stroke="#0CAD8E" stroke-width="1.00674" stroke-linecap="round" stroke-linejoin="round"/>
</svg>
