<svg width="17" height="17" viewBox="0 0 17 17" fill="none" xmlns="http://www.w3.org/2000/svg">
<path opacity="0.4" d="M13.3923 13.8566C13.2648 13.8566 13.1373 13.8096 13.0366 13.7089C12.842 13.5143 12.842 13.1921 13.0366 12.9975C15.4595 10.5746 15.4595 6.63491 13.0366 4.21873C12.842 4.0241 12.842 3.70194 13.0366 3.50731C13.2312 3.31267 13.5534 3.31267 13.748 3.50731C16.5602 6.31946 16.5602 10.8967 13.748 13.7089C13.6474 13.8096 13.5198 13.8566 13.3923 13.8566Z" fill="white"/>
<path opacity="0.4" d="M3.90209 13.8566C3.77457 13.8566 3.64705 13.8096 3.54637 13.7089C0.734216 10.8967 0.734216 6.31946 3.54637 3.50731C3.74101 3.31267 4.06317 3.31267 4.2578 3.50731C4.45244 3.70194 4.45244 4.0241 4.2578 4.21873C1.83492 6.64162 1.83492 10.5813 4.2578 12.9975C4.45244 13.1921 4.45244 13.5143 4.2578 13.7089C4.15713 13.8096 4.02961 13.8566 3.90209 13.8566Z" fill="white"/>
<path opacity="0.4" d="M8.64717 15.797C7.80822 15.7903 7.00954 15.6561 6.26456 15.3943C6.00281 15.3004 5.86185 15.0118 5.95581 14.75C6.04977 14.4883 6.33167 14.3473 6.60014 14.4413C7.24445 14.6628 7.92903 14.7836 8.65388 14.7836C9.37202 14.7836 10.0633 14.6628 10.7009 14.4413C10.9627 14.354 11.2513 14.4883 11.3452 14.75C11.4392 15.0118 11.2982 15.3004 11.0365 15.3943C10.2848 15.6561 9.48612 15.797 8.64717 15.797Z" fill="white"/>
<path opacity="0.4" d="M10.862 2.79583C10.8083 2.79583 10.7479 2.78909 10.6942 2.76896C10.0499 2.54748 9.35857 2.42666 8.64043 2.42666C7.92229 2.42666 7.23772 2.54748 6.59341 2.76896C6.33165 2.85621 6.04306 2.722 5.9491 2.46025C5.85514 2.1985 5.99607 1.90989 6.25783 1.81592C7.00281 1.55417 7.8082 1.41992 8.64043 1.41992C9.47267 1.41992 10.2781 1.55417 11.0231 1.81592C11.2848 1.90989 11.4258 2.1985 11.3318 2.46025C11.2647 2.66831 11.07 2.79583 10.862 2.79583Z" fill="white"/>
<path d="M6.45923 8.60727V7.48645C6.45923 6.09044 7.44585 5.51994 8.65393 6.21795L9.6271 6.78174L10.6003 7.34549C11.8084 8.0435 11.8084 9.18449 10.6003 9.88249L9.6271 10.4462L8.65393 11.01C7.44585 11.708 6.45923 11.1375 6.45923 9.74154V8.60727Z" fill="white"/>
</svg>
