<svg width="65" height="65" viewBox="0 0 65 65" fill="none" xmlns="http://www.w3.org/2000/svg">
<g id="Icon/Users/profile-tick">
<rect width="64.5" height="64.5" rx="32.25" fill="#1CCAA8"/>
<g id="vuesax/bulk/profile-tick">
<g id="profile-tick">
<path id="Vector" d="M32.25 12.875C27.1738 12.875 23.0469 17.0019 23.0469 22.0781C23.0469 27.0575 26.9413 31.0875 32.0175 31.2619C32.1725 31.2425 32.3275 31.2425 32.4438 31.2619C32.4825 31.2619 32.5019 31.2619 32.5406 31.2619C32.56 31.2619 32.56 31.2619 32.5794 31.2619C37.5394 31.0875 41.4338 27.0575 41.4531 22.0781C41.4531 17.0019 37.3263 12.875 32.25 12.875Z" fill="white"/>
<path id="Vector_2" opacity="0.4" d="M42.0926 36.4352C36.687 32.8315 27.8714 32.8315 22.427 36.4352C19.9664 38.0627 18.6101 40.2909 18.6101 42.674C18.6101 45.0571 19.9664 47.2659 22.4076 48.8934C25.1201 50.7146 28.6851 51.6252 32.2501 51.6252C35.8151 51.6252 39.3801 50.7146 42.0926 48.8934C44.5339 47.2465 45.8901 45.0377 45.8901 42.6352C45.8707 40.2715 44.5339 38.0434 42.0926 36.4352Z" fill="white"/>
<path id="Vector_3" d="M31.0295 46.3162C30.7195 46.3162 30.4095 46.1806 30.177 45.9675L27.7357 43.5262C27.2707 43.0612 27.2707 42.2863 27.7357 41.8213C28.2007 41.3563 28.9757 41.3563 29.4407 41.8213L31.0295 43.41L35.0595 39.38C35.5245 38.915 36.2995 38.915 36.7645 39.38C37.2295 39.845 37.2295 40.62 36.7645 41.085L31.882 45.9675C31.6495 46.2 31.3395 46.3162 31.0295 46.3162Z" fill="white"/>
</g>
</g>
</g>
</svg>
