<svg width="295" height="294" viewBox="0 0 295 294" fill="none" xmlns="http://www.w3.org/2000/svg">
<path d="M244.713 115.177C243.025 119.473 242.032 121.695 241.287 123.99C226.365 169.325 193.741 194.177 147.04 202.624C121.393 207.262 95.7952 206.506 70.4707 200.451C21.4604 188.709 -4.80767 151.528 0.728963 102.238C6.36491 52.118 37.6482 14.7661 84.3247 2.46197C96.689 -0.784958 109.153 -1.90798 121.815 0.75303C156.077 7.90603 175.791 39.8871 165.76 73.0887C159.28 94.4989 145.749 110.831 125.092 120.425C119.059 123.209 111.66 124.283 104.932 124.136C96.2421 123.965 89.3151 117.301 87.602 109.635C85.6406 100.895 88.5951 93.7177 95.8945 88.6642C104.361 82.8051 113.944 80.4371 124.149 83.0981C127.923 84.099 130.405 83.4398 131.945 80.2906C134.477 75.1638 137.705 70.0371 138.698 64.5686C141.578 48.4072 130.505 36.3473 114.093 38.8862C68.1368 45.9904 41.5213 80.1198 43.7807 123.111C44.6248 138.979 53.3643 151.503 66.97 160.365C99.0974 181.311 150.243 181.727 181.923 160.292C189.471 155.19 196.15 147.768 200.892 140.029C211.369 123.013 215.242 103.751 215.565 83.9769C215.64 79.8023 213.927 75.2859 211.99 71.4531C207.149 61.9564 201.19 52.9724 196.572 43.3537C188.379 26.2402 193.295 8.83385 207.869 0.875214C222.79 -7.27872 241.461 -2.46942 250.722 14.4C284.438 75.8962 330.221 129.605 366.494 189.465C380.274 212.218 393.631 235.02 402.371 260.117C404.531 266.366 406.418 272.909 406.939 279.452C407.907 291.17 397.157 297.883 387.102 291.585C381.019 287.776 375.706 282.162 371.286 276.449C345.937 243.613 321.258 210.241 295.735 177.527C280.366 157.826 263.88 139.004 247.891 119.766C247.047 118.741 246.377 117.594 244.713 115.177Z" fill="#0CAD8E" fill-opacity="0.05"/>
</svg>
