<svg width="190" height="192" viewBox="0 0 190 192" fill="none" xmlns="http://www.w3.org/2000/svg">
<path d="M157.391 74.3691C156.305 77.1821 155.667 78.6366 155.188 80.1389C145.59 109.819 124.608 126.09 94.5712 131.62C78.0757 134.657 61.6122 134.161 45.3244 130.197C13.8026 122.51 -3.09213 98.1676 0.468844 65.8981C4.09369 33.0852 24.214 8.63129 54.2348 0.575895C62.1871 -1.54983 70.2032 -2.28507 78.3472 -0.54293C100.384 4.14007 113.063 25.0777 106.611 46.8145C102.444 60.8315 93.7408 71.5241 80.455 77.8054C76.5747 79.6275 71.816 80.3307 67.4886 80.2348C61.8996 80.123 57.4444 75.7596 56.3426 70.741C55.0811 65.0191 56.9813 60.3201 61.6761 57.0116C67.1213 53.1757 73.2852 51.6254 79.8482 53.3675C82.2754 54.0228 83.8723 53.5913 84.8623 51.5295C86.4911 48.1731 88.567 44.8166 89.2057 41.2365C91.0581 30.6558 83.9361 22.7603 73.381 24.4225C43.8233 29.0735 26.7051 51.4177 28.1582 79.5636C28.7012 89.9525 34.3221 98.1516 43.0728 103.953C63.736 117.667 96.6311 117.939 117.007 103.906C121.861 100.565 126.157 95.7063 129.207 90.6397C135.946 79.4996 138.437 66.8891 138.644 53.9429C138.692 51.2098 137.59 48.253 136.345 45.7437C133.231 39.5263 129.398 33.6446 126.428 27.3473C121.159 16.1433 124.32 4.7475 133.694 -0.462937C143.291 -5.80123 155.299 -2.65263 161.256 8.39157C182.941 48.6526 212.387 83.815 235.717 123.005C244.579 137.901 253.17 152.829 258.791 169.26C260.18 173.351 261.394 177.635 261.729 181.918C262.352 189.59 255.438 193.985 248.97 189.862C245.058 187.368 241.641 183.692 238.799 179.952C222.495 158.455 206.622 136.607 190.206 115.189C180.322 102.291 169.719 89.9684 159.435 77.3738C158.892 76.7026 158.461 75.9514 157.391 74.3691Z" fill="white" fill-opacity="0.1"/>
</svg>
