<svg width="51" height="80" viewBox="0 0 51 80" fill="none" xmlns="http://www.w3.org/2000/svg">
<g id="Group 3808">
<path id="Vector" d="M43.6292 28.306C43.5121 25.387 43.3859 22.6987 43.2598 20.0104C43.1901 19.0327 43.1204 18.0549 42.8947 17.1298C42.4569 15.3207 41.0508 14.2485 39.4159 14.3006C37.781 14.3527 36.4157 15.588 36.2129 17.4317C36.0646 18.6653 36.1391 19.9145 36.1217 21.1493C36.087 26.5775 36.1694 31.966 35.9509 37.3652C35.7823 41.8827 35.0625 46.3135 34.933 50.8179C34.7356 56.6651 34.7999 62.5149 34.8505 68.3238C34.8697 69.4097 35.2564 70.5534 35.6797 71.5482C36.0364 72.4745 36.9159 72.6322 37.5193 71.9731C38.3407 71.0582 39.2376 69.9811 39.5834 68.8174C40.1741 66.706 40.5284 64.538 40.7769 62.3148C41.5902 54.3021 42.3369 46.2209 43.0584 38.1938C43.1587 37.2041 43.5303 36.7598 44.4303 36.5921C47.8465 35.8922 51.2352 35.1107 54.6376 34.37C55.3677 34.2142 56.1116 34.0992 56.7864 33.78C58.1499 33.1825 59.0745 32.1872 59.0846 30.5451C59.081 28.8623 58.235 27.6463 56.7718 27.0486C55.8094 26.6458 54.7323 26.4182 53.7104 26.3541C50.8813 26.2182 48.1309 26.8295 45.4106 27.6582C44.8252 27.8561 44.3317 28.0685 43.6292 28.306Z" fill="#0CAD8E"/>
<path id="Vector_2" d="M30.9717 33.3163C27.2643 34.5698 23.7658 35.7981 20.2787 36.9316C18.7177 37.4593 17.1015 37.8237 15.5128 38.2698C14.8746 38.4401 14.4795 38.3005 14.231 37.5653C12.59 32.8403 10.8709 28.1416 9.25517 23.3626C8.85468 22.178 8.68835 20.9143 8.32689 19.7165C8.04828 18.7639 7.78108 17.7163 7.28213 16.8837C6.45895 15.4779 4.83967 14.933 3.43475 15.408C2.05505 15.8289 1.11005 17.1498 1.12509 18.7377C1.13952 19.5522 1.28485 20.3678 1.54724 21.1439C4.08766 27.8861 6.6671 34.6152 9.28558 41.331C10.1898 43.6197 11.9268 44.8986 14.2527 44.7039C16.2526 44.5739 18.2478 44.1725 20.1876 43.6077C23.6129 42.6772 26.9691 41.5425 30.3781 40.4354C30.6903 40.3299 31.0757 39.9265 31.1099 39.6418C31.1267 37.6334 31.0378 35.5698 30.9717 33.3163Z" fill="black"/>
<path id="Vector_3" d="M46.3677 67.6618C46.6391 68.2072 46.9105 68.7527 47.09 69.2837C47.5019 70.3734 48.1539 70.244 48.8378 69.6942C50.412 68.4337 51.3498 66.7056 51.5893 64.713C51.9771 61.4868 52.273 58.2462 52.5161 54.9779C52.6751 52.8759 52.6252 50.799 52.7315 48.6694C52.8581 46.2143 51.6074 44.3158 49.5841 43.862C47.5217 43.4214 45.424 44.6768 45.0356 47.1294C44.661 49.6229 44.5367 52.2138 44.6605 54.7663C44.8677 58.3375 45.4285 61.9257 45.8447 65.4718C46.0152 66.2334 46.211 66.941 46.3677 67.6618Z" fill="black"/>
<path id="Vector_4" d="M17.9129 27.4877C18.2581 28.5089 18.6172 29.5709 18.9625 30.5921C19.4044 31.8991 19.9717 32.1625 21.1263 31.5901C22.2808 31.0177 23.4744 30.4321 24.5599 29.6554C26.5244 28.263 28.4222 26.8021 30.2396 25.2318C32.3139 23.3926 32.168 21.8034 29.836 20.1794C27.1594 18.3079 24.2444 17.0177 21.0911 16.3087C19.9612 16.0535 18.7808 15.9064 17.6142 15.8001C16.0022 15.6624 15.3321 16.2531 15.5585 17.9516C15.9002 20.2484 16.4646 22.561 16.9762 24.8459C17.202 25.7709 17.5839 26.6431 17.9129 27.4877C17.8739 27.5009 17.8739 27.5009 17.9129 27.4877Z" fill="#F1DDC4"/>
</g>
</svg>
