<svg width="16" height="17" viewBox="0 0 16 17" fill="none" xmlns="http://www.w3.org/2000/svg">
<path opacity="0.4" d="M8.00016 13.1673C10.5775 13.1673 12.6668 11.078 12.6668 8.50065C12.6668 5.92332 10.5775 3.83398 8.00016 3.83398C5.42283 3.83398 3.3335 5.92332 3.3335 8.50065C3.3335 11.078 5.42283 13.1673 8.00016 13.1673Z" fill="#0CAD8E"/>
<path d="M7.99984 15.806C7.63317 15.806 7.33317 15.5327 7.33317 15.166V15.1127C7.33317 14.746 7.63317 14.446 7.99984 14.446C8.3665 14.446 8.6665 14.746 8.6665 15.1127C8.6665 15.4793 8.3665 15.806 7.99984 15.806ZM12.7598 13.926C12.5865 13.926 12.4198 13.8593 12.2865 13.7327L12.1998 13.646C11.9398 13.386 11.9398 12.966 12.1998 12.706C12.4598 12.446 12.8798 12.446 13.1398 12.706L13.2265 12.7927C13.4865 13.0527 13.4865 13.4727 13.2265 13.7327C13.0998 13.8593 12.9332 13.926 12.7598 13.926ZM3.23984 13.926C3.0665 13.926 2.89984 13.8593 2.7665 13.7327C2.5065 13.4727 2.5065 13.0527 2.7665 12.7927L2.85317 12.706C3.11317 12.446 3.53317 12.446 3.79317 12.706C4.05317 12.966 4.05317 13.386 3.79317 13.646L3.7065 13.7327C3.57984 13.8593 3.4065 13.926 3.23984 13.926ZM14.6665 9.16602H14.6132C14.2465 9.16602 13.9465 8.86602 13.9465 8.49935C13.9465 8.13268 14.2465 7.83268 14.6132 7.83268C14.9798 7.83268 15.3065 8.13268 15.3065 8.49935C15.3065 8.86602 15.0332 9.16602 14.6665 9.16602ZM1.3865 9.16602H1.33317C0.966504 9.16602 0.666504 8.86602 0.666504 8.49935C0.666504 8.13268 0.966504 7.83268 1.33317 7.83268C1.69984 7.83268 2.0265 8.13268 2.0265 8.49935C2.0265 8.86602 1.75317 9.16602 1.3865 9.16602ZM12.6732 4.49268C12.4998 4.49268 12.3332 4.42602 12.1998 4.29935C11.9398 4.03935 11.9398 3.61935 12.1998 3.35935L12.2865 3.27268C12.5465 3.01268 12.9665 3.01268 13.2265 3.27268C13.4865 3.53268 13.4865 3.95268 13.2265 4.21268L13.1398 4.29935C13.0132 4.42602 12.8465 4.49268 12.6732 4.49268ZM3.3265 4.49268C3.15317 4.49268 2.9865 4.42602 2.85317 4.29935L2.7665 4.20602C2.5065 3.94602 2.5065 3.52602 2.7665 3.26602C3.0265 3.00602 3.4465 3.00602 3.7065 3.26602L3.79317 3.35268C4.05317 3.61268 4.05317 4.03268 3.79317 4.29268C3.6665 4.42602 3.49317 4.49268 3.3265 4.49268ZM7.99984 2.52602C7.63317 2.52602 7.33317 2.25268 7.33317 1.88602V1.83268C7.33317 1.46602 7.63317 1.16602 7.99984 1.16602C8.3665 1.16602 8.6665 1.46602 8.6665 1.83268C8.6665 2.19935 8.3665 2.52602 7.99984 2.52602Z" fill="#0CAD8E"/>
</svg>
