<svg width="24" height="25" viewBox="0 0 24 25" fill="none" xmlns="http://www.w3.org/2000/svg">
<rect y="0.5" width="24" height="24" rx="12" fill="#F1F1F1"/>
<path opacity="0.4" d="M12.0002 17.1673C14.5775 17.1673 16.6668 15.078 16.6668 12.5007C16.6668 9.92332 14.5775 7.83398 12.0002 7.83398C9.42283 7.83398 7.3335 9.92332 7.3335 12.5007C7.3335 15.078 9.42283 17.1673 12.0002 17.1673Z" fill="#0CAD8E"/>
<path d="M11.9998 19.806C11.6332 19.806 11.3332 19.5327 11.3332 19.166V19.1127C11.3332 18.746 11.6332 18.446 11.9998 18.446C12.3665 18.446 12.6665 18.746 12.6665 19.1127C12.6665 19.4793 12.3665 19.806 11.9998 19.806ZM16.7598 17.926C16.5865 17.926 16.4198 17.8593 16.2865 17.7327L16.1998 17.646C15.9398 17.386 15.9398 16.966 16.1998 16.706C16.4598 16.446 16.8798 16.446 17.1398 16.706L17.2265 16.7927C17.4865 17.0527 17.4865 17.4727 17.2265 17.7327C17.0998 17.8593 16.9332 17.926 16.7598 17.926ZM7.23984 17.926C7.0665 17.926 6.89984 17.8593 6.7665 17.7327C6.5065 17.4727 6.5065 17.0527 6.7665 16.7927L6.85317 16.706C7.11317 16.446 7.53317 16.446 7.79317 16.706C8.05317 16.966 8.05317 17.386 7.79317 17.646L7.7065 17.7327C7.57984 17.8593 7.4065 17.926 7.23984 17.926ZM18.6665 13.166H18.6132C18.2465 13.166 17.9465 12.866 17.9465 12.4993C17.9465 12.1327 18.2465 11.8327 18.6132 11.8327C18.9798 11.8327 19.3065 12.1327 19.3065 12.4993C19.3065 12.866 19.0332 13.166 18.6665 13.166ZM5.3865 13.166H5.33317C4.9665 13.166 4.6665 12.866 4.6665 12.4993C4.6665 12.1327 4.9665 11.8327 5.33317 11.8327C5.69984 11.8327 6.0265 12.1327 6.0265 12.4993C6.0265 12.866 5.75317 13.166 5.3865 13.166ZM16.6732 8.49268C16.4998 8.49268 16.3332 8.42602 16.1998 8.29935C15.9398 8.03935 15.9398 7.61935 16.1998 7.35935L16.2865 7.27268C16.5465 7.01268 16.9665 7.01268 17.2265 7.27268C17.4865 7.53268 17.4865 7.95268 17.2265 8.21268L17.1398 8.29935C17.0132 8.42602 16.8465 8.49268 16.6732 8.49268ZM7.3265 8.49268C7.15317 8.49268 6.9865 8.42602 6.85317 8.29935L6.7665 8.20602C6.5065 7.94602 6.5065 7.52602 6.7665 7.26602C7.0265 7.00602 7.4465 7.00602 7.7065 7.26602L7.79317 7.35268C8.05317 7.61268 8.05317 8.03268 7.79317 8.29268C7.6665 8.42602 7.49317 8.49268 7.3265 8.49268ZM11.9998 6.52602C11.6332 6.52602 11.3332 6.25268 11.3332 5.88602V5.83268C11.3332 5.46602 11.6332 5.16602 11.9998 5.16602C12.3665 5.16602 12.6665 5.46602 12.6665 5.83268C12.6665 6.19935 12.3665 6.52602 11.9998 6.52602Z" fill="#0CAD8E"/>
</svg>
