<svg width="14" height="11" viewBox="0 0 14 11" fill="none" xmlns="http://www.w3.org/2000/svg">
<path d="M11.8813 2.8774C11.8895 2.99379 11.8895 3.10956 11.8895 3.22595C11.8964 4.22949 11.7039 5.2244 11.323 6.1529C10.9422 7.08139 10.3806 7.92496 9.67101 8.63458C8.96138 9.34421 8.11782 9.90576 7.18932 10.2866C6.26082 10.6674 5.2659 10.86 4.26236 10.853C2.80291 10.8568 1.37345 10.4388 0.145874 9.64948C0.360835 9.67321 0.577001 9.68434 0.793262 9.68283C1.9998 9.68599 3.17223 9.28262 4.12143 8.53779C3.56195 8.52762 3.01962 8.34291 2.57023 8.00948C2.12084 7.67605 1.78685 7.21056 1.61492 6.67805C1.78143 6.70442 1.94967 6.7183 2.11824 6.71957C2.35623 6.71889 2.59318 6.68824 2.82351 6.62834C2.21707 6.50504 1.67197 6.17572 1.28069 5.69627C0.889422 5.21681 0.676081 4.61675 0.676871 3.9979V3.96456C1.04832 4.1719 1.46352 4.28852 1.8886 4.30492C1.3194 3.92545 0.916537 3.34298 0.762308 2.67648C0.608079 2.00999 0.714116 1.30976 1.05876 0.718817C1.73203 1.54759 2.57198 2.2256 3.52413 2.70888C4.47628 3.19216 5.51938 3.46993 6.58578 3.52416C6.54267 3.32229 6.52032 3.11654 6.5191 2.91012C6.52022 2.37303 6.68249 1.84863 6.98492 1.40478C7.28735 0.960927 7.71603 0.618048 8.21547 0.420506C8.71492 0.222965 9.26216 0.179851 9.78638 0.296743C10.3106 0.413636 10.7877 0.685155 11.1559 1.07617C11.7553 0.960246 12.33 0.741202 12.8546 0.428783C12.6547 1.04823 12.2357 1.57348 11.6762 1.90601C12.2086 1.84535 12.729 1.70539 13.2201 1.49077C12.8529 2.02444 12.3984 2.49237 11.8756 2.87489L11.8813 2.8774Z" fill="black"/>
</svg>
