<svg width="71" height="58" viewBox="0 0 71 58" fill="none" xmlns="http://www.w3.org/2000/svg">
<path d="M0.742595 34.3929C0.491622 31.8758 0.152793 29.3651 0.0210327 26.8355C-0.0479848 25.5488 0.0461209 24.1867 0.403757 22.9564C2.22331 16.6608 5.53615 11.3004 10.7125 7.20158C23.2046 -2.68444 39.5304 2.55671 43.3766 18.004C46.4134 30.2062 43.4645 41.2346 34.58 50.2733C29.3472 55.596 22.8909 58.3641 15.3178 56.3806C6.97926 54.1963 2.63744 48.1642 0.937098 40.0232C0.554364 38.1966 0.497883 36.301 0.297104 34.4368C0.447688 34.4242 0.592011 34.4054 0.742595 34.3929ZM33.2938 28.5617C33.2812 25.3668 32.591 22.1781 30.6836 19.341C28.0484 15.4242 24.1897 14.5769 20.1554 17.05C16.9868 18.9895 14.9476 21.9019 13.2975 25.1533C12.2999 27.118 11.1078 28.976 10.0537 30.9155C9.79642 31.3925 9.63328 31.9763 9.61446 32.5224C9.50779 36.0562 10.1478 39.4394 11.8419 42.5779C14.6214 47.7374 19.4024 49.0807 24.3403 45.9485C25.8022 45.0196 27.1638 43.7956 28.2618 42.4461C31.493 38.4854 33.1306 33.8719 33.2938 28.5617Z" fill="#0CAD8E"/>
<path d="M65.6817 0.234375C67.7334 0.410127 69.4337 1.07547 70.4062 2.93969C71.4164 4.86668 71.1027 6.81878 69.7286 8.35661C68.5804 9.64336 67.1749 10.8485 65.6503 11.6143C61.3273 13.7735 56.8851 15.6942 52.4805 17.6965C51.2633 18.2489 50.0461 18.3054 48.9355 17.4392C47.7309 16.5039 47.2979 15.1732 47.712 13.7798C48.0571 12.6123 48.5841 11.3883 49.3747 10.4844C52.9824 6.35429 57.3807 3.24725 62.4002 1.05036C63.4166 0.610978 64.5837 0.498002 65.6817 0.234375Z" fill="#F1DDC4"/>
<path d="M55.2037 29.7422C54.0681 29.6731 52.9199 29.6731 51.7968 29.5162C49.9145 29.2526 48.6972 27.9784 48.5655 26.2899C48.44 24.7081 49.3686 22.982 51.1128 22.6933C54.0555 22.2162 57.0734 21.9401 60.0475 22.0279C62.0302 22.0844 63.2286 23.7101 63.3164 25.4049C63.398 27.1059 62.3753 28.6563 60.4428 29.171C58.7612 29.6166 56.9793 29.6982 55.2476 29.943C55.2225 29.8802 55.2163 29.8112 55.2037 29.7422Z" fill="black"/>
</svg>
