<svg width="74" height="94" viewBox="0 0 74 94" fill="none" xmlns="http://www.w3.org/2000/svg">
<path d="M53.6163 35.9826C54.7813 32.0197 55.8298 28.3617 56.8782 24.7037C57.2277 23.3624 57.5772 22.0211 57.6937 20.6798C57.9267 18.0582 56.5287 15.9854 54.3153 15.3147C52.1018 14.6441 49.7136 15.6805 48.6069 18.0582C47.8497 19.6434 47.3837 21.3505 46.8012 22.9966C44.2965 30.2517 41.9666 37.5067 39.2289 44.6399C36.9572 50.6147 33.9865 56.2236 31.773 62.1984C28.8606 69.9412 26.2976 77.806 23.7347 85.6098C23.2687 87.073 23.2687 88.78 23.3852 90.3042C23.4434 91.7065 24.5502 92.3161 25.6569 91.7065C27.1714 90.8529 28.8606 89.8165 29.8508 88.4142C31.5983 85.8536 33.0545 83.1101 34.3942 80.2447C39.1124 69.8802 43.7723 59.3939 48.3739 48.9685C48.9564 47.6882 49.6554 47.2615 50.9369 47.4444C55.8298 48.054 60.7227 48.5418 65.6156 49.0905C66.664 49.2124 67.7125 49.3953 68.761 49.2734C70.858 49.0905 72.5472 48.176 73.3044 45.9812C74.0616 43.7254 73.4791 41.7135 71.7899 40.2503C70.6832 39.2748 69.3435 38.4822 68.0037 37.9335C64.2758 36.4703 60.3149 36.0435 56.2958 35.9216C55.422 35.9216 54.6648 35.9826 53.6163 35.9826Z" fill="#0CAD8E"/>
<path d="M34.394 36.9574C28.8604 36.9574 23.618 37.0183 18.4339 36.9574C16.1039 36.9574 13.774 36.7135 11.444 36.5916C10.512 36.5306 10.046 36.1648 10.046 35.0674C9.98778 27.9952 9.81306 20.923 9.81306 13.7899C9.81306 12.0218 10.1626 10.2538 10.2208 8.48575C10.2791 7.08351 10.3955 5.55933 10.1043 4.21806C9.63831 1.96227 7.71609 0.499065 5.61914 0.499065C3.58043 0.438098 1.71645 1.77937 1.01747 3.91322C0.667976 5.01063 0.493252 6.169 0.493252 7.32738C0.842743 17.5089 1.25047 27.6904 1.71646 37.8719C1.89121 41.347 3.63866 43.8466 6.84235 44.6392C9.58004 45.3708 12.4342 45.7366 15.2884 45.8586C20.2978 46.1634 25.3072 46.1634 30.3749 46.2244C30.8409 46.2244 31.5398 45.8586 31.7146 45.4928C32.6466 42.8102 33.4621 40.0057 34.394 36.9574Z" fill="black"/>
<path d="M39.4618 89.9374C39.5783 90.7909 39.6949 91.6445 39.6949 92.437C39.7531 94.0831 40.6851 94.2051 41.8501 93.7783C44.5295 92.8028 46.5682 90.9129 47.7914 88.3522C49.7719 84.2065 51.6358 79.9998 53.4416 75.7321C54.6065 72.9885 55.4803 70.1841 56.587 67.3796C57.8685 64.1483 57.053 61.039 54.5483 59.5148C51.9853 57.9906 48.6069 58.7222 46.976 61.8316C45.345 65.0019 44.0053 68.416 43.015 71.8911C41.6753 76.7685 40.8016 81.8288 39.7531 86.7671C39.6366 87.8645 39.5783 88.9009 39.4618 89.9374Z" fill="black"/>
<path d="M19.5411 23.2397C19.5411 24.7639 19.5411 26.3491 19.5411 27.8732C19.5411 29.8242 20.1818 30.4339 21.9875 30.19C23.7932 29.9461 25.6572 29.7023 27.4629 29.1535C30.7248 28.1781 33.9285 27.0807 37.0739 25.8004C40.6854 24.2762 41.2096 22.0814 38.8214 18.8501C36.0837 15.1311 32.7635 12.0828 28.8609 9.70505C27.4629 8.85152 25.9484 8.11991 24.434 7.44927C22.337 6.53477 21.172 7.0225 20.7061 9.40022C20.1236 12.6315 19.8323 15.9847 19.4828 19.2769C19.3663 20.6182 19.4828 21.9594 19.5411 23.2397C19.4828 23.2397 19.4828 23.2397 19.5411 23.2397Z" fill="#F1DDC4"/>
</svg>
