<svg width="133" height="125" viewBox="0 0 133 125" fill="none" xmlns="http://www.w3.org/2000/svg">
<path d="M97.3806 63.1833C97.1191 56.6682 96.8376 50.6678 96.556 44.6675C96.4005 42.485 96.245 40.3025 95.7411 38.2379C94.7641 34.1997 91.6255 31.8067 87.9764 31.923C84.3273 32.0392 81.28 34.7965 80.8271 38.9117C80.4962 41.665 80.6624 44.4534 80.6236 47.2095C80.5462 59.3252 80.73 71.3525 80.2425 83.4037C79.8661 93.487 78.2596 103.377 77.9704 113.43C77.5297 126.482 77.6734 139.539 77.7862 152.504C77.8292 154.928 78.6923 157.481 79.6371 159.701C80.4332 161.769 82.3964 162.121 83.7432 160.649C85.5764 158.607 87.5784 156.203 88.3503 153.606C89.6688 148.893 90.4594 144.054 91.0141 139.092C92.8296 121.207 94.4962 103.17 96.1066 85.2532C96.3304 83.0441 97.1599 82.0525 99.1687 81.6781C106.794 80.116 114.357 78.3716 121.952 76.7183C123.581 76.3706 125.242 76.114 126.748 75.4015C129.791 74.0678 131.855 71.8462 131.878 68.1812C131.869 64.425 129.981 61.7109 126.715 60.3768C124.567 59.4777 122.163 58.9698 119.882 58.8266C113.568 58.5233 107.429 59.8877 101.357 61.7374C100.05 62.1792 98.9485 62.6532 97.3806 63.1833Z" fill="#0CAD8E"/>
<path d="M69.1293 74.3611C60.8542 77.1588 53.0455 79.9005 45.2622 82.4304C41.778 83.6084 38.1705 84.4217 34.6246 85.4173C33.2001 85.7974 32.3183 85.4859 31.7634 83.8449C28.1007 73.2985 24.2638 62.811 20.6573 52.144C19.7634 49.5001 19.3922 46.6794 18.5854 44.006C17.9635 41.8796 17.3671 39.5414 16.2534 37.6829C14.4161 34.5452 10.8018 33.329 7.66599 34.3892C4.58646 35.3287 2.47719 38.2769 2.51077 41.8213C2.54297 43.6391 2.86735 45.4597 3.45301 47.1919C9.12331 62.2407 14.8807 77.2601 20.7252 92.2501C22.7435 97.3585 26.6205 100.213 31.812 99.7784C36.2759 99.4883 40.729 98.5923 45.0588 97.3316C52.7041 95.2548 60.1952 92.7221 67.8042 90.2511C68.5011 90.0155 69.3614 89.1151 69.4378 88.4797C69.4752 83.997 69.2768 79.3908 69.1293 74.3611Z" fill="black"/>
<path d="M103.493 151.026C104.099 152.243 104.704 153.461 105.105 154.646C106.024 157.078 107.48 156.789 109.006 155.562C112.52 152.749 114.613 148.891 115.148 144.444C116.013 137.243 116.674 130.01 117.216 122.715C117.571 118.023 117.46 113.388 117.697 108.634C117.98 103.154 115.188 98.9168 110.672 97.9038C106.069 96.9204 101.386 99.7225 100.519 105.197C99.6834 110.762 99.4061 116.545 99.6823 122.243C100.145 130.214 101.397 138.223 102.325 146.138C102.706 147.837 103.143 149.417 103.493 151.026Z" fill="black"/>
<path d="M39.9806 61.3547C40.7512 63.634 41.5526 66.0044 42.3232 68.2837C43.3096 71.2011 44.576 71.7889 47.153 70.5113C49.73 69.2336 52.3941 67.9266 54.8169 66.1931C59.2017 63.0851 63.4377 59.8243 67.4941 56.3194C72.124 52.2143 71.7983 48.667 66.5933 45.0424C60.619 40.8652 54.1128 37.9853 47.0745 36.4028C44.5525 35.8332 41.9178 35.5048 39.314 35.2676C35.7158 34.9603 34.2203 36.2786 34.7256 40.0699C35.4882 45.1965 36.748 50.3581 37.8899 55.458C38.3938 57.5227 39.2462 59.4695 39.9806 61.3547C39.8935 61.3841 39.8935 61.3841 39.9806 61.3547Z" fill="#F1DDC4"/>
</svg>
