<svg width="19" height="20" viewBox="0 0 19 20" fill="none" xmlns="http://www.w3.org/2000/svg">
<path d="M9.5 0.435547C7.62108 0.435547 5.78435 0.99651 4.22209 2.0475C2.65982 3.09849 1.44218 4.5923 0.723148 6.34003C0.00411604 8.08776 -0.184015 10.0109 0.182544 11.8663C0.549104 13.7217 1.45389 15.426 2.78249 16.7636C4.11109 18.1013 5.80383 19.0122 7.64664 19.3813C9.48946 19.7503 11.3996 19.5609 13.1355 18.837C14.8714 18.1131 16.3551 16.8871 17.399 15.3142C18.4428 13.7413 19 11.892 19 10.0003C18.997 7.46449 17.9952 5.03339 16.2142 3.24029C14.4333 1.44719 12.0187 0.438525 9.5 0.435547ZM17.0972 6.43697H13.355C12.9477 4.7363 12.205 3.13545 11.1709 1.7296C12.4546 1.99521 13.659 2.55915 14.6879 3.37644C15.7169 4.19373 16.5419 5.24176 17.0972 6.43697ZM17.8824 10.0003C17.883 10.8262 17.7628 11.6477 17.5256 12.4384H13.585C13.8508 10.824 13.8508 9.1766 13.585 7.56223H17.5256C17.7628 8.35288 17.883 9.17439 17.8824 10.0003ZM9.5 18.4398C9.47678 18.4399 9.45379 18.4351 9.43259 18.4255C9.41139 18.416 9.39246 18.402 9.37706 18.3845C8.17745 17.0839 7.29638 15.4138 6.79902 13.5637H12.201C11.7036 15.4138 10.8226 17.0839 9.62294 18.3845C9.60755 18.402 9.58862 18.416 9.56741 18.4255C9.54621 18.4351 9.52323 18.4399 9.5 18.4398ZM6.54848 12.4384C6.26163 10.8258 6.26163 9.17479 6.54848 7.56223H12.4515C12.7384 9.17479 12.7384 10.8258 12.4515 12.4384H6.54848ZM1.11765 10.0003C1.11702 9.17439 1.23722 8.35288 1.47437 7.56223H5.415C5.14923 9.1766 5.14923 10.824 5.415 12.4384H1.47437C1.23722 11.6477 1.11702 10.8262 1.11765 10.0003ZM9.5 1.56081C9.52323 1.56068 9.54621 1.56555 9.56741 1.57509C9.58862 1.58464 9.60755 1.59863 9.62294 1.61614C10.8226 2.91676 11.7036 4.58684 12.201 6.43697H6.79902C7.29638 4.58684 8.17745 2.91676 9.37706 1.61614C9.39246 1.59863 9.41139 1.58464 9.43259 1.57509C9.45379 1.56555 9.47678 1.56068 9.5 1.56081ZM7.82912 1.7296C6.79504 3.13545 6.05229 4.7363 5.64505 6.43697H1.9028C2.45813 5.24176 3.28315 4.19373 4.31208 3.37644C5.341 2.55915 6.54536 1.99521 7.82912 1.7296ZM1.9028 13.5637H5.64505C6.05229 15.2643 6.79504 16.8652 7.82912 18.271C6.54536 18.0054 5.341 17.4415 4.31208 16.6242C3.28315 15.8069 2.45813 14.7589 1.9028 13.5637ZM11.1709 18.271C12.205 16.8652 12.9477 15.2643 13.355 13.5637H17.0972C16.5419 14.7589 15.7169 15.8069 14.6879 16.6242C13.659 17.4415 12.4546 18.0054 11.1709 18.271Z" fill="white"/>
</svg>
